<?xml version="1.0" encoding="utf-8" standalone="no"?>
<!DOCTYPE svg PUBLIC "-//W3C//DTD SVG 1.1//EN"
  "http://www.w3.org/Graphics/SVG/1.1/DTD/svg11.dtd">
<svg xmlns:xlink="http://www.w3.org/1999/xlink" width="599.393438pt" height="212.744063pt" viewBox="0 0 599.393438 212.744063" xmlns="http://www.w3.org/2000/svg" version="1.1">
 <metadata>
  <rdf:RDF xmlns:dc="http://purl.org/dc/elements/1.1/" xmlns:cc="http://creativecommons.org/ns#" xmlns:rdf="http://www.w3.org/1999/02/22-rdf-syntax-ns#">
   <cc:Work>
    <dc:type rdf:resource="http://purl.org/dc/dcmitype/StillImage"/>
    <dc:date>2022-05-03T03:15:54.726746</dc:date>
    <dc:format>image/svg+xml</dc:format>
    <dc:creator>
     <cc:Agent>
      <dc:title>Matplotlib v3.5.1, https://matplotlib.org/</dc:title>
     </cc:Agent>
    </dc:creator>
   </cc:Work>
  </rdf:RDF>
 </metadata>
 <defs>
  <style type="text/css">*{stroke-linejoin: round; stroke-linecap: butt}</style>
 </defs>
 <g id="figure_1">
  <g id="patch_1">
   <path d="M 0 212.744063 
L 599.393438 212.744063 
L 599.393438 0 
L 0 0 
z
" style="fill: #ffffff"/>
  </g>
  <g id="axes_1">
   <g id="patch_2">
    <path d="M 34.193438 185.398125 
L 592.193437 185.398125 
L 592.193437 22.318125 
L 34.193438 22.318125 
z
" style="fill: #eaeaf2"/>
   </g>
   <g id="matplotlib.axis_1">
    <g id="xtick_1">
     <g id="line2d_1">
      <path d="M 105.49848 185.398125 
L 105.49848 22.318125 
" clip-path="url(#pa4d1c33d24)" style="fill: none; stroke: #ffffff; stroke-linecap: round"/>
     </g>
     <g id="text_1">
      <!-- −10 -->
      <g style="fill: #262626" transform="translate(93.890902 203.256406)scale(0.11 -0.11)">
       <defs>
        <path id="DejaVuSans-2212" d="M 678 2272 
L 4684 2272 
L 4684 1741 
L 678 1741 
L 678 2272 
z
" transform="scale(0.015625)"/>
        <path id="DejaVuSans-31" d="M 794 531 
L 1825 531 
L 1825 4091 
L 703 3866 
L 703 4441 
L 1819 4666 
L 2450 4666 
L 2450 531 
L 3481 531 
L 3481 0 
L 794 0 
L 794 531 
z
" transform="scale(0.015625)"/>
        <path id="DejaVuSans-30" d="M 2034 4250 
Q 1547 4250 1301 3770 
Q 1056 3291 1056 2328 
Q 1056 1369 1301 889 
Q 1547 409 2034 409 
Q 2525 409 2770 889 
Q 3016 1369 3016 2328 
Q 3016 3291 2770 3770 
Q 2525 4250 2034 4250 
z
M 2034 4750 
Q 2819 4750 3233 4129 
Q 3647 3509 3647 2328 
Q 3647 1150 3233 529 
Q 2819 -91 2034 -91 
Q 1250 -91 836 529 
Q 422 1150 422 2328 
Q 422 3509 836 4129 
Q 1250 4750 2034 4750 
z
" transform="scale(0.015625)"/>
       </defs>
       <use xlink:href="#DejaVuSans-2212"/>
       <use xlink:href="#DejaVuSans-31" x="83.789062"/>
       <use xlink:href="#DejaVuSans-30" x="147.412109"/>
      </g>
     </g>
    </g>
    <g id="xtick_2">
     <g id="line2d_2">
      <path d="M 209.755714 185.398125 
L 209.755714 22.318125 
" clip-path="url(#pa4d1c33d24)" style="fill: none; stroke: #ffffff; stroke-linecap: round"/>
     </g>
     <g id="text_2">
      <!-- −5 -->
      <g style="fill: #262626" transform="translate(201.647511 203.256406)scale(0.11 -0.11)">
       <defs>
        <path id="DejaVuSans-35" d="M 691 4666 
L 3169 4666 
L 3169 4134 
L 1269 4134 
L 1269 2991 
Q 1406 3038 1543 3061 
Q 1681 3084 1819 3084 
Q 2600 3084 3056 2656 
Q 3513 2228 3513 1497 
Q 3513 744 3044 326 
Q 2575 -91 1722 -91 
Q 1428 -91 1123 -41 
Q 819 9 494 109 
L 494 744 
Q 775 591 1075 516 
Q 1375 441 1709 441 
Q 2250 441 2565 725 
Q 2881 1009 2881 1497 
Q 2881 1984 2565 2268 
Q 2250 2553 1709 2553 
Q 1456 2553 1204 2497 
Q 953 2441 691 2322 
L 691 4666 
z
" transform="scale(0.015625)"/>
       </defs>
       <use xlink:href="#DejaVuSans-2212"/>
       <use xlink:href="#DejaVuSans-35" x="83.789062"/>
      </g>
     </g>
    </g>
    <g id="xtick_3">
     <g id="line2d_3">
      <path d="M 314.012948 185.398125 
L 314.012948 22.318125 
" clip-path="url(#pa4d1c33d24)" style="fill: none; stroke: #ffffff; stroke-linecap: round"/>
     </g>
     <g id="text_3">
      <!-- 0 -->
      <g style="fill: #262626" transform="translate(310.513573 203.256406)scale(0.11 -0.11)">
       <use xlink:href="#DejaVuSans-30"/>
      </g>
     </g>
    </g>
    <g id="xtick_4">
     <g id="line2d_4">
      <path d="M 418.270182 185.398125 
L 418.270182 22.318125 
" clip-path="url(#pa4d1c33d24)" style="fill: none; stroke: #ffffff; stroke-linecap: round"/>
     </g>
     <g id="text_4">
      <!-- 5 -->
      <g style="fill: #262626" transform="translate(414.770807 203.256406)scale(0.11 -0.11)">
       <use xlink:href="#DejaVuSans-35"/>
      </g>
     </g>
    </g>
    <g id="xtick_5">
     <g id="line2d_5">
      <path d="M 522.527417 185.398125 
L 522.527417 22.318125 
" clip-path="url(#pa4d1c33d24)" style="fill: none; stroke: #ffffff; stroke-linecap: round"/>
     </g>
     <g id="text_5">
      <!-- 10 -->
      <g style="fill: #262626" transform="translate(515.528667 203.256406)scale(0.11 -0.11)">
       <use xlink:href="#DejaVuSans-31"/>
       <use xlink:href="#DejaVuSans-30" x="63.623047"/>
      </g>
     </g>
    </g>
   </g>
   <g id="matplotlib.axis_2">
    <g id="ytick_1">
     <g id="line2d_6">
      <path d="M 34.193438 185.398125 
L 592.193437 185.398125 
" clip-path="url(#pa4d1c33d24)" style="fill: none; stroke: #ffffff; stroke-linecap: round"/>
     </g>
     <g id="text_6">
      <!-- 0.0 -->
      <g style="fill: #262626" transform="translate(7.2 189.577266)scale(0.11 -0.11)">
       <defs>
        <path id="DejaVuSans-2e" d="M 684 794 
L 1344 794 
L 1344 0 
L 684 0 
L 684 794 
z
" transform="scale(0.015625)"/>
       </defs>
       <use xlink:href="#DejaVuSans-30"/>
       <use xlink:href="#DejaVuSans-2e" x="63.623047"/>
       <use xlink:href="#DejaVuSans-30" x="95.410156"/>
      </g>
     </g>
    </g>
    <g id="ytick_2">
     <g id="line2d_7">
      <path d="M 34.193438 144.488481 
L 592.193437 144.488481 
" clip-path="url(#pa4d1c33d24)" style="fill: none; stroke: #ffffff; stroke-linecap: round"/>
     </g>
     <g id="text_7">
      <!-- 0.1 -->
      <g style="fill: #262626" transform="translate(7.2 148.667621)scale(0.11 -0.11)">
       <use xlink:href="#DejaVuSans-30"/>
       <use xlink:href="#DejaVuSans-2e" x="63.623047"/>
       <use xlink:href="#DejaVuSans-31" x="95.410156"/>
      </g>
     </g>
    </g>
    <g id="ytick_3">
     <g id="line2d_8">
      <path d="M 34.193438 103.578837 
L 592.193437 103.578837 
" clip-path="url(#pa4d1c33d24)" style="fill: none; stroke: #ffffff; stroke-linecap: round"/>
     </g>
     <g id="text_8">
      <!-- 0.2 -->
      <g style="fill: #262626" transform="translate(7.2 107.757977)scale(0.11 -0.11)">
       <defs>
        <path id="DejaVuSans-32" d="M 1228 531 
L 3431 531 
L 3431 0 
L 469 0 
L 469 531 
Q 828 903 1448 1529 
Q 2069 2156 2228 2338 
Q 2531 2678 2651 2914 
Q 2772 3150 2772 3378 
Q 2772 3750 2511 3984 
Q 2250 4219 1831 4219 
Q 1534 4219 1204 4116 
Q 875 4013 500 3803 
L 500 4441 
Q 881 4594 1212 4672 
Q 1544 4750 1819 4750 
Q 2544 4750 2975 4387 
Q 3406 4025 3406 3419 
Q 3406 3131 3298 2873 
Q 3191 2616 2906 2266 
Q 2828 2175 2409 1742 
Q 1991 1309 1228 531 
z
" transform="scale(0.015625)"/>
       </defs>
       <use xlink:href="#DejaVuSans-30"/>
       <use xlink:href="#DejaVuSans-2e" x="63.623047"/>
       <use xlink:href="#DejaVuSans-32" x="95.410156"/>
      </g>
     </g>
    </g>
    <g id="ytick_4">
     <g id="line2d_9">
      <path d="M 34.193438 62.669192 
L 592.193437 62.669192 
" clip-path="url(#pa4d1c33d24)" style="fill: none; stroke: #ffffff; stroke-linecap: round"/>
     </g>
     <g id="text_9">
      <!-- 0.3 -->
      <g style="fill: #262626" transform="translate(7.2 66.848333)scale(0.11 -0.11)">
       <defs>
        <path id="DejaVuSans-33" d="M 2597 2516 
Q 3050 2419 3304 2112 
Q 3559 1806 3559 1356 
Q 3559 666 3084 287 
Q 2609 -91 1734 -91 
Q 1441 -91 1130 -33 
Q 819 25 488 141 
L 488 750 
Q 750 597 1062 519 
Q 1375 441 1716 441 
Q 2309 441 2620 675 
Q 2931 909 2931 1356 
Q 2931 1769 2642 2001 
Q 2353 2234 1838 2234 
L 1294 2234 
L 1294 2753 
L 1863 2753 
Q 2328 2753 2575 2939 
Q 2822 3125 2822 3475 
Q 2822 3834 2567 4026 
Q 2313 4219 1838 4219 
Q 1578 4219 1281 4162 
Q 984 4106 628 3988 
L 628 4550 
Q 988 4650 1302 4700 
Q 1616 4750 1894 4750 
Q 2613 4750 3031 4423 
Q 3450 4097 3450 3541 
Q 3450 3153 3228 2886 
Q 3006 2619 2597 2516 
z
" transform="scale(0.015625)"/>
       </defs>
       <use xlink:href="#DejaVuSans-30"/>
       <use xlink:href="#DejaVuSans-2e" x="63.623047"/>
       <use xlink:href="#DejaVuSans-33" x="95.410156"/>
      </g>
     </g>
    </g>
   </g>
   <g id="patch_3">
    <path d="M 59.557074 185.398125 
L 61.538603 185.398125 
L 61.538603 185.237258 
L 59.557074 185.237258 
z
" clip-path="url(#pa4d1c33d24)" style="fill: #4c72b0; fill-opacity: 0.5; stroke: #4c72b0; stroke-linejoin: miter"/>
   </g>
   <g id="patch_4">
    <path d="M 61.538623 185.398125 
L 63.520152 185.398125 
L 63.520152 185.079072 
L 61.538623 185.079072 
z
" clip-path="url(#pa4d1c33d24)" style="fill: #4c72b0; fill-opacity: 0.5; stroke: #4c72b0; stroke-linejoin: miter"/>
   </g>
   <g id="patch_5">
    <path d="M 63.520152 185.398125 
L 65.501702 185.398125 
L 65.501702 185.009367 
L 63.520152 185.009367 
z
" clip-path="url(#pa4d1c33d24)" style="fill: #4c72b0; fill-opacity: 0.5; stroke: #4c72b0; stroke-linejoin: miter"/>
   </g>
   <g id="patch_6">
    <path d="M 65.501682 185.398125 
L 67.483211 185.398125 
L 67.483211 184.869945 
L 65.501682 184.869945 
z
" clip-path="url(#pa4d1c33d24)" style="fill: #4c72b0; fill-opacity: 0.5; stroke: #4c72b0; stroke-linejoin: miter"/>
   </g>
   <g id="patch_7">
    <path d="M 67.483231 185.398125 
L 69.46476 185.398125 
L 69.46476 184.6635 
L 67.483231 184.6635 
z
" clip-path="url(#pa4d1c33d24)" style="fill: #4c72b0; fill-opacity: 0.5; stroke: #4c72b0; stroke-linejoin: miter"/>
   </g>
   <g id="patch_8">
    <path d="M 69.464741 185.398125 
L 71.44627 185.398125 
L 71.44627 184.414156 
L 69.464741 184.414156 
z
" clip-path="url(#pa4d1c33d24)" style="fill: #4c72b0; fill-opacity: 0.5; stroke: #4c72b0; stroke-linejoin: miter"/>
   </g>
   <g id="patch_9">
    <path d="M 71.44629 185.398125 
L 73.427839 185.398125 
L 73.427839 184.022727 
L 71.44629 184.022727 
z
" clip-path="url(#pa4d1c33d24)" style="fill: #4c72b0; fill-opacity: 0.5; stroke: #4c72b0; stroke-linejoin: miter"/>
   </g>
   <g id="patch_10">
    <path d="M 73.427839 185.398125 
L 75.409368 185.398125 
L 75.409368 183.668806 
L 73.427839 183.668806 
z
" clip-path="url(#pa4d1c33d24)" style="fill: #4c72b0; fill-opacity: 0.5; stroke: #4c72b0; stroke-linejoin: miter"/>
   </g>
   <g id="patch_11">
    <path d="M 75.409348 185.398125 
L 77.390878 185.398125 
L 77.390878 183.073599 
L 75.409348 183.073599 
z
" clip-path="url(#pa4d1c33d24)" style="fill: #4c72b0; fill-opacity: 0.5; stroke: #4c72b0; stroke-linejoin: miter"/>
   </g>
   <g id="patch_12">
    <path d="M 77.390898 185.398125 
L 79.372427 185.398125 
L 79.372427 182.430131 
L 77.390898 182.430131 
z
" clip-path="url(#pa4d1c33d24)" style="fill: #4c72b0; fill-opacity: 0.5; stroke: #4c72b0; stroke-linejoin: miter"/>
   </g>
   <g id="patch_13">
    <path d="M 79.372427 185.398125 
L 81.353976 185.398125 
L 81.353976 181.716992 
L 79.372427 181.716992 
z
" clip-path="url(#pa4d1c33d24)" style="fill: #4c72b0; fill-opacity: 0.5; stroke: #4c72b0; stroke-linejoin: miter"/>
   </g>
   <g id="patch_14">
    <path d="M 81.353956 185.398125 
L 83.335486 185.398125 
L 83.335486 180.821462 
L 81.353956 180.821462 
z
" clip-path="url(#pa4d1c33d24)" style="fill: #4c72b0; fill-opacity: 0.5; stroke: #4c72b0; stroke-linejoin: miter"/>
   </g>
   <g id="patch_15">
    <path d="M 83.335506 185.398125 
L 85.317035 185.398125 
L 85.317035 179.403153 
L 83.335506 179.403153 
z
" clip-path="url(#pa4d1c33d24)" style="fill: #4c72b0; fill-opacity: 0.5; stroke: #4c72b0; stroke-linejoin: miter"/>
   </g>
   <g id="patch_16">
    <path d="M 85.317015 185.398125 
L 87.298544 185.398125 
L 87.298544 178.196651 
L 85.317015 178.196651 
z
" clip-path="url(#pa4d1c33d24)" style="fill: #4c72b0; fill-opacity: 0.5; stroke: #4c72b0; stroke-linejoin: miter"/>
   </g>
   <g id="patch_17">
    <path d="M 87.298564 185.398125 
L 89.280114 185.398125 
L 89.280114 176.416481 
L 87.298564 176.416481 
z
" clip-path="url(#pa4d1c33d24)" style="fill: #4c72b0; fill-opacity: 0.5; stroke: #4c72b0; stroke-linejoin: miter"/>
   </g>
   <g id="patch_18">
    <path d="M 89.280114 185.398125 
L 91.261643 185.398125 
L 91.261643 174.097227 
L 89.280114 174.097227 
z
" clip-path="url(#pa4d1c33d24)" style="fill: #4c72b0; fill-opacity: 0.5; stroke: #4c72b0; stroke-linejoin: miter"/>
   </g>
   <g id="patch_19">
    <path d="M 91.261623 185.398125 
L 93.243152 185.398125 
L 93.243152 171.6735 
L 91.261623 171.6735 
z
" clip-path="url(#pa4d1c33d24)" style="fill: #4c72b0; fill-opacity: 0.5; stroke: #4c72b0; stroke-linejoin: miter"/>
   </g>
   <g id="patch_20">
    <path d="M 93.243172 185.398125 
L 95.224702 185.398125 
L 95.224702 168.705506 
L 93.243172 168.705506 
z
" clip-path="url(#pa4d1c33d24)" style="fill: #4c72b0; fill-opacity: 0.5; stroke: #4c72b0; stroke-linejoin: miter"/>
   </g>
   <g id="patch_21">
    <path d="M 95.224682 185.398125 
L 97.206211 185.398125 
L 97.206211 164.847382 
L 95.224682 164.847382 
z
" clip-path="url(#pa4d1c33d24)" style="fill: #4c72b0; fill-opacity: 0.5; stroke: #4c72b0; stroke-linejoin: miter"/>
   </g>
   <g id="patch_22">
    <path d="M 97.206231 185.398125 
L 99.18778 185.398125 
L 99.18778 160.075252 
L 97.206231 160.075252 
z
" clip-path="url(#pa4d1c33d24)" style="fill: #4c72b0; fill-opacity: 0.5; stroke: #4c72b0; stroke-linejoin: miter"/>
   </g>
   <g id="patch_23">
    <path d="M 99.18778 185.398125 
L 101.16931 185.398125 
L 101.16931 155.14979 
L 99.18778 155.14979 
z
" clip-path="url(#pa4d1c33d24)" style="fill: #4c72b0; fill-opacity: 0.5; stroke: #4c72b0; stroke-linejoin: miter"/>
   </g>
   <g id="patch_24">
    <path d="M 101.16929 185.398125 
L 103.150819 185.398125 
L 103.150819 150.069078 
L 101.16929 150.069078 
z
" clip-path="url(#pa4d1c33d24)" style="fill: #4c72b0; fill-opacity: 0.5; stroke: #4c72b0; stroke-linejoin: miter"/>
   </g>
   <g id="patch_25">
    <path d="M 103.150839 185.398125 
L 105.132368 185.398125 
L 105.132368 143.076732 
L 103.150839 143.076732 
z
" clip-path="url(#pa4d1c33d24)" style="fill: #4c72b0; fill-opacity: 0.5; stroke: #4c72b0; stroke-linejoin: miter"/>
   </g>
   <g id="patch_26">
    <path d="M 105.132368 185.398125 
L 107.113918 185.398125 
L 107.113918 135.69076 
L 105.132368 135.69076 
z
" clip-path="url(#pa4d1c33d24)" style="fill: #4c72b0; fill-opacity: 0.5; stroke: #4c72b0; stroke-linejoin: miter"/>
   </g>
   <g id="patch_27">
    <path d="M 107.113898 185.398125 
L 109.095427 185.398125 
L 109.095427 127.456558 
L 107.113898 127.456558 
z
" clip-path="url(#pa4d1c33d24)" style="fill: #4c72b0; fill-opacity: 0.5; stroke: #4c72b0; stroke-linejoin: miter"/>
   </g>
   <g id="patch_28">
    <path d="M 109.095447 185.398125 
L 111.076976 185.398125 
L 111.076976 118.742936 
L 109.095447 118.742936 
z
" clip-path="url(#pa4d1c33d24)" style="fill: #4c72b0; fill-opacity: 0.5; stroke: #4c72b0; stroke-linejoin: miter"/>
   </g>
   <g id="patch_29">
    <path d="M 111.076956 185.398125 
L 113.058486 185.398125 
L 113.058486 110.005183 
L 111.076956 110.005183 
z
" clip-path="url(#pa4d1c33d24)" style="fill: #4c72b0; fill-opacity: 0.5; stroke: #4c72b0; stroke-linejoin: miter"/>
   </g>
   <g id="patch_30">
    <path d="M 113.058506 185.398125 
L 115.040055 185.398125 
L 115.040055 100.327214 
L 113.058506 100.327214 
z
" clip-path="url(#pa4d1c33d24)" style="fill: #4c72b0; fill-opacity: 0.5; stroke: #4c72b0; stroke-linejoin: miter"/>
   </g>
   <g id="patch_31">
    <path d="M 115.040055 185.398125 
L 117.021584 185.398125 
L 117.021584 89.974576 
L 115.040055 89.974576 
z
" clip-path="url(#pa4d1c33d24)" style="fill: #4c72b0; fill-opacity: 0.5; stroke: #4c72b0; stroke-linejoin: miter"/>
   </g>
   <g id="patch_32">
    <path d="M 117.021564 185.398125 
L 119.003094 185.398125 
L 119.003094 79.684459 
L 117.021564 79.684459 
z
" clip-path="url(#pa4d1c33d24)" style="fill: #4c72b0; fill-opacity: 0.5; stroke: #4c72b0; stroke-linejoin: miter"/>
   </g>
   <g id="patch_33">
    <path d="M 119.003114 185.398125 
L 120.984643 185.398125 
L 120.984643 70.043171 
L 119.003114 70.043171 
z
" clip-path="url(#pa4d1c33d24)" style="fill: #4c72b0; fill-opacity: 0.5; stroke: #4c72b0; stroke-linejoin: miter"/>
   </g>
   <g id="patch_34">
    <path d="M 120.984623 185.398125 
L 122.966152 185.398125 
L 122.966152 59.753053 
L 120.984623 59.753053 
z
" clip-path="url(#pa4d1c33d24)" style="fill: #4c72b0; fill-opacity: 0.5; stroke: #4c72b0; stroke-linejoin: miter"/>
   </g>
   <g id="patch_35">
    <path d="M 122.966172 185.398125 
L 124.947721 185.398125 
L 124.947721 51.944306 
L 122.966172 51.944306 
z
" clip-path="url(#pa4d1c33d24)" style="fill: #4c72b0; fill-opacity: 0.5; stroke: #4c72b0; stroke-linejoin: miter"/>
   </g>
   <g id="patch_36">
    <path d="M 124.947721 185.398125 
L 126.929251 185.398125 
L 126.929251 44.116793 
L 124.947721 44.116793 
z
" clip-path="url(#pa4d1c33d24)" style="fill: #4c72b0; fill-opacity: 0.5; stroke: #4c72b0; stroke-linejoin: miter"/>
   </g>
   <g id="patch_37">
    <path d="M 126.929231 185.398125 
L 128.91076 185.398125 
L 128.91076 37.730378 
L 126.929231 37.730378 
z
" clip-path="url(#pa4d1c33d24)" style="fill: #4c72b0; fill-opacity: 0.5; stroke: #4c72b0; stroke-linejoin: miter"/>
   </g>
   <g id="patch_38">
    <path d="M 128.91078 185.398125 
L 130.89231 185.398125 
L 130.89231 34.025078 
L 128.91078 34.025078 
z
" clip-path="url(#pa4d1c33d24)" style="fill: #4c72b0; fill-opacity: 0.5; stroke: #4c72b0; stroke-linejoin: miter"/>
   </g>
   <g id="patch_39">
    <path d="M 130.89231 185.398125 
L 132.873859 185.398125 
L 132.873859 30.999649 
L 130.89231 30.999649 
z
" clip-path="url(#pa4d1c33d24)" style="fill: #4c72b0; fill-opacity: 0.5; stroke: #4c72b0; stroke-linejoin: miter"/>
   </g>
   <g id="patch_40">
    <path d="M 132.873839 185.398125 
L 134.855368 185.398125 
L 134.855368 30.083839 
L 132.873839 30.083839 
z
" clip-path="url(#pa4d1c33d24)" style="fill: #4c72b0; fill-opacity: 0.5; stroke: #4c72b0; stroke-linejoin: miter"/>
   </g>
   <g id="patch_41">
    <path d="M 134.855388 185.398125 
L 136.836917 185.398125 
L 136.836917 32.593363 
L 134.855388 32.593363 
z
" clip-path="url(#pa4d1c33d24)" style="fill: #4c72b0; fill-opacity: 0.5; stroke: #4c72b0; stroke-linejoin: miter"/>
   </g>
   <g id="patch_42">
    <path d="M 136.836898 185.398125 
L 138.818427 185.398125 
L 138.818427 36.824161 
L 136.836898 36.824161 
z
" clip-path="url(#pa4d1c33d24)" style="fill: #4c72b0; fill-opacity: 0.5; stroke: #4c72b0; stroke-linejoin: miter"/>
   </g>
   <g id="patch_43">
    <path d="M 138.818447 185.398125 
L 140.799996 185.398125 
L 140.799996 43.142295 
L 138.818447 43.142295 
z
" clip-path="url(#pa4d1c33d24)" style="fill: #4c72b0; fill-opacity: 0.5; stroke: #4c72b0; stroke-linejoin: miter"/>
   </g>
   <g id="patch_44">
    <path d="M 140.799996 185.398125 
L 142.781525 185.398125 
L 142.781525 50.395963 
L 140.799996 50.395963 
z
" clip-path="url(#pa4d1c33d24)" style="fill: #4c72b0; fill-opacity: 0.5; stroke: #4c72b0; stroke-linejoin: miter"/>
   </g>
   <g id="patch_45">
    <path d="M 142.781506 185.398125 
L 144.763035 185.398125 
L 144.763035 58.492929 
L 142.781506 58.492929 
z
" clip-path="url(#pa4d1c33d24)" style="fill: #4c72b0; fill-opacity: 0.5; stroke: #4c72b0; stroke-linejoin: miter"/>
   </g>
   <g id="patch_46">
    <path d="M 144.763055 185.398125 
L 146.744584 185.398125 
L 146.744584 67.619443 
L 144.763055 67.619443 
z
" clip-path="url(#pa4d1c33d24)" style="fill: #4c72b0; fill-opacity: 0.5; stroke: #4c72b0; stroke-linejoin: miter"/>
   </g>
   <g id="patch_47">
    <path d="M 146.744584 185.398125 
L 148.726133 185.398125 
L 148.726133 79.280143 
L 146.744584 79.280143 
z
" clip-path="url(#pa4d1c33d24)" style="fill: #4c72b0; fill-opacity: 0.5; stroke: #4c72b0; stroke-linejoin: miter"/>
   </g>
   <g id="patch_48">
    <path d="M 148.726113 185.398125 
L 150.707663 185.398125 
L 150.707663 89.055438 
L 148.726113 89.055438 
z
" clip-path="url(#pa4d1c33d24)" style="fill: #4c72b0; fill-opacity: 0.5; stroke: #4c72b0; stroke-linejoin: miter"/>
   </g>
   <g id="patch_49">
    <path d="M 150.707663 185.398125 
L 152.689192 185.398125 
L 152.689192 100.516719 
L 150.707663 100.516719 
z
" clip-path="url(#pa4d1c33d24)" style="fill: #4c72b0; fill-opacity: 0.5; stroke: #4c72b0; stroke-linejoin: miter"/>
   </g>
   <g id="patch_50">
    <path d="M 152.689192 185.398125 
L 154.670721 185.398125 
L 154.670721 110.074892 
L 152.689192 110.074892 
z
" clip-path="url(#pa4d1c33d24)" style="fill: #4c72b0; fill-opacity: 0.5; stroke: #4c72b0; stroke-linejoin: miter"/>
   </g>
   <g id="patch_51">
    <path d="M 154.670721 185.398125 
L 156.652271 185.398125 
L 156.652271 120.673663 
L 154.670721 120.673663 
z
" clip-path="url(#pa4d1c33d24)" style="fill: #4c72b0; fill-opacity: 0.5; stroke: #4c72b0; stroke-linejoin: miter"/>
   </g>
   <g id="patch_52">
    <path d="M 156.652261 185.398125 
L 158.63379 185.398125 
L 158.63379 129.74623 
L 156.652261 129.74623 
z
" clip-path="url(#pa4d1c33d24)" style="fill: #4c72b0; fill-opacity: 0.5; stroke: #4c72b0; stroke-linejoin: miter"/>
   </g>
   <g id="patch_53">
    <path d="M 158.63378 185.398125 
L 160.615329 185.398125 
L 160.615329 137.891694 
L 158.63378 137.891694 
z
" clip-path="url(#pa4d1c33d24)" style="fill: #4c72b0; fill-opacity: 0.5; stroke: #4c72b0; stroke-linejoin: miter"/>
   </g>
   <g id="patch_54">
    <path d="M 160.615329 185.398125 
L 162.596859 185.398125 
L 162.596859 144.977642 
L 160.615329 144.977642 
z
" clip-path="url(#pa4d1c33d24)" style="fill: #4c72b0; fill-opacity: 0.5; stroke: #4c72b0; stroke-linejoin: miter"/>
   </g>
   <g id="patch_55">
    <path d="M 162.596859 185.398125 
L 164.578408 185.398125 
L 164.578408 151.887042 
L 162.596859 151.887042 
z
" clip-path="url(#pa4d1c33d24)" style="fill: #4c72b0; fill-opacity: 0.5; stroke: #4c72b0; stroke-linejoin: miter"/>
   </g>
   <g id="patch_56">
    <path d="M 164.578398 185.398125 
L 166.559927 185.398125 
L 166.559927 156.892515 
L 164.578398 156.892515 
z
" clip-path="url(#pa4d1c33d24)" style="fill: #4c72b0; fill-opacity: 0.5; stroke: #4c72b0; stroke-linejoin: miter"/>
   </g>
   <g id="patch_57">
    <path d="M 166.559917 185.398125 
L 168.541467 185.398125 
L 168.541467 162.002837 
L 166.559917 162.002837 
z
" clip-path="url(#pa4d1c33d24)" style="fill: #4c72b0; fill-opacity: 0.5; stroke: #4c72b0; stroke-linejoin: miter"/>
   </g>
   <g id="patch_58">
    <path d="M 168.541467 185.398125 
L 170.522996 185.398125 
L 170.522996 165.868886 
L 168.541467 165.868886 
z
" clip-path="url(#pa4d1c33d24)" style="fill: #4c72b0; fill-opacity: 0.5; stroke: #4c72b0; stroke-linejoin: miter"/>
   </g>
   <g id="patch_59">
    <path d="M 170.522996 185.398125 
L 172.504545 185.398125 
L 172.504545 169.646656 
L 170.522996 169.646656 
z
" clip-path="url(#pa4d1c33d24)" style="fill: #4c72b0; fill-opacity: 0.5; stroke: #4c72b0; stroke-linejoin: miter"/>
   </g>
   <g id="patch_60">
    <path d="M 172.504535 185.398125 
L 174.486065 185.398125 
L 174.486065 172.099797 
L 172.504535 172.099797 
z
" clip-path="url(#pa4d1c33d24)" style="fill: #4c72b0; fill-opacity: 0.5; stroke: #4c72b0; stroke-linejoin: miter"/>
   </g>
   <g id="patch_61">
    <path d="M 174.486055 185.398125 
L 176.467604 185.398125 
L 176.467604 174.703213 
L 174.486055 174.703213 
z
" clip-path="url(#pa4d1c33d24)" style="fill: #4c72b0; fill-opacity: 0.5; stroke: #4c72b0; stroke-linejoin: miter"/>
   </g>
   <g id="patch_62">
    <path d="M 176.467604 185.398125 
L 178.449133 185.398125 
L 178.449133 176.405667 
L 176.467604 176.405667 
z
" clip-path="url(#pa4d1c33d24)" style="fill: #4c72b0; fill-opacity: 0.5; stroke: #4c72b0; stroke-linejoin: miter"/>
   </g>
   <g id="patch_63">
    <path d="M 178.449133 185.398125 
L 180.430683 185.398125 
L 180.430683 177.944664 
L 178.449133 177.944664 
z
" clip-path="url(#pa4d1c33d24)" style="fill: #4c72b0; fill-opacity: 0.5; stroke: #4c72b0; stroke-linejoin: miter"/>
   </g>
   <g id="patch_64">
    <path d="M 180.430673 185.398125 
L 182.412202 185.398125 
L 182.412202 179.126998 
L 180.430673 179.126998 
z
" clip-path="url(#pa4d1c33d24)" style="fill: #4c72b0; fill-opacity: 0.5; stroke: #4c72b0; stroke-linejoin: miter"/>
   </g>
   <g id="patch_65">
    <path d="M 182.412192 185.398125 
L 184.393741 185.398125 
L 184.393741 180.172659 
L 182.412192 180.172659 
z
" clip-path="url(#pa4d1c33d24)" style="fill: #4c72b0; fill-opacity: 0.5; stroke: #4c72b0; stroke-linejoin: miter"/>
   </g>
   <g id="patch_66">
    <path d="M 184.393741 185.398125 
L 186.375271 185.398125 
L 186.375271 181.065444 
L 184.393741 181.065444 
z
" clip-path="url(#pa4d1c33d24)" style="fill: #4c72b0; fill-opacity: 0.5; stroke: #4c72b0; stroke-linejoin: miter"/>
   </g>
   <g id="patch_67">
    <path d="M 186.375271 185.398125 
L 188.3568 185.398125 
L 188.3568 181.70623 
L 186.375271 181.70623 
z
" clip-path="url(#pa4d1c33d24)" style="fill: #4c72b0; fill-opacity: 0.5; stroke: #4c72b0; stroke-linejoin: miter"/>
   </g>
   <g id="patch_68">
    <path d="M 188.3568 185.398125 
L 190.338349 185.398125 
L 190.338349 182.202252 
L 188.3568 182.202252 
z
" clip-path="url(#pa4d1c33d24)" style="fill: #4c72b0; fill-opacity: 0.5; stroke: #4c72b0; stroke-linejoin: miter"/>
   </g>
   <g id="patch_69">
    <path d="M 190.338339 185.398125 
L 192.319869 185.398125 
L 192.319869 182.679475 
L 190.338339 182.679475 
z
" clip-path="url(#pa4d1c33d24)" style="fill: #4c72b0; fill-opacity: 0.5; stroke: #4c72b0; stroke-linejoin: miter"/>
   </g>
   <g id="patch_70">
    <path d="M 192.319859 185.398125 
L 194.301408 185.398125 
L 194.301408 183.12187 
L 192.319859 183.12187 
z
" clip-path="url(#pa4d1c33d24)" style="fill: #4c72b0; fill-opacity: 0.5; stroke: #4c72b0; stroke-linejoin: miter"/>
   </g>
   <g id="patch_71">
    <path d="M 194.301408 185.398125 
L 196.282937 185.398125 
L 196.282937 183.43823 
L 194.301408 183.43823 
z
" clip-path="url(#pa4d1c33d24)" style="fill: #4c72b0; fill-opacity: 0.5; stroke: #4c72b0; stroke-linejoin: miter"/>
   </g>
   <g id="patch_72">
    <path d="M 196.282937 185.398125 
L 198.264486 185.398125 
L 198.264486 183.872578 
L 196.282937 183.872578 
z
" clip-path="url(#pa4d1c33d24)" style="fill: #4c72b0; fill-opacity: 0.5; stroke: #4c72b0; stroke-linejoin: miter"/>
   </g>
   <g id="patch_73">
    <path d="M 198.264477 185.398125 
L 200.246006 185.398125 
L 200.246006 184.998639 
L 198.264477 184.998639 
z
" clip-path="url(#pa4d1c33d24)" style="fill: #4c72b0; fill-opacity: 0.5; stroke: #4c72b0; stroke-linejoin: miter"/>
   </g>
   <g id="patch_74">
    <path d="M 200.245996 185.398125 
L 202.227545 185.398125 
L 202.227545 185.14342 
L 200.245996 185.14342 
z
" clip-path="url(#pa4d1c33d24)" style="fill: #4c72b0; fill-opacity: 0.5; stroke: #4c72b0; stroke-linejoin: miter"/>
   </g>
   <g id="patch_75">
    <path d="M 202.227545 185.398125 
L 204.209075 185.398125 
L 204.209075 185.202404 
L 202.227545 185.202404 
z
" clip-path="url(#pa4d1c33d24)" style="fill: #4c72b0; fill-opacity: 0.5; stroke: #4c72b0; stroke-linejoin: miter"/>
   </g>
   <g id="patch_76">
    <path d="M 204.209075 185.398125 
L 206.190624 185.398125 
L 206.190624 185.170231 
L 204.209075 185.170231 
z
" clip-path="url(#pa4d1c33d24)" style="fill: #4c72b0; fill-opacity: 0.5; stroke: #4c72b0; stroke-linejoin: miter"/>
   </g>
   <g id="patch_77">
    <path d="M 206.190614 185.398125 
L 208.172143 185.398125 
L 208.172143 185.188998 
L 206.190614 185.188998 
z
" clip-path="url(#pa4d1c33d24)" style="fill: #4c72b0; fill-opacity: 0.5; stroke: #4c72b0; stroke-linejoin: miter"/>
   </g>
   <g id="patch_78">
    <path d="M 208.172133 185.398125 
L 210.153682 185.398125 
L 210.153682 185.261389 
L 208.172133 185.261389 
z
" clip-path="url(#pa4d1c33d24)" style="fill: #4c72b0; fill-opacity: 0.5; stroke: #4c72b0; stroke-linejoin: miter"/>
   </g>
   <g id="patch_79">
    <path d="M 210.153682 185.398125 
L 212.135212 185.398125 
L 212.135212 185.226534 
L 210.153682 185.226534 
z
" clip-path="url(#pa4d1c33d24)" style="fill: #4c72b0; fill-opacity: 0.5; stroke: #4c72b0; stroke-linejoin: miter"/>
   </g>
   <g id="patch_80">
    <path d="M 212.135212 185.398125 
L 214.116761 185.398125 
L 214.116761 184.912846 
L 212.135212 184.912846 
z
" clip-path="url(#pa4d1c33d24)" style="fill: #4c72b0; fill-opacity: 0.5; stroke: #4c72b0; stroke-linejoin: miter"/>
   </g>
   <g id="patch_81">
    <path d="M 214.116751 185.398125 
L 216.09828 185.398125 
L 216.09828 184.679586 
L 214.116751 184.679586 
z
" clip-path="url(#pa4d1c33d24)" style="fill: #4c72b0; fill-opacity: 0.5; stroke: #4c72b0; stroke-linejoin: miter"/>
   </g>
   <g id="patch_82">
    <path d="M 216.098271 185.398125 
L 218.07982 185.398125 
L 218.07982 184.684952 
L 216.098271 184.684952 
z
" clip-path="url(#pa4d1c33d24)" style="fill: #4c72b0; fill-opacity: 0.5; stroke: #4c72b0; stroke-linejoin: miter"/>
   </g>
   <g id="patch_83">
    <path d="M 218.07982 185.398125 
L 220.061349 185.398125 
L 220.061349 184.558936 
L 218.07982 184.558936 
z
" clip-path="url(#pa4d1c33d24)" style="fill: #4c72b0; fill-opacity: 0.5; stroke: #4c72b0; stroke-linejoin: miter"/>
   </g>
   <g id="patch_84">
    <path d="M 220.061349 185.398125 
L 222.042878 185.398125 
L 222.042878 184.556255 
L 220.061349 184.556255 
z
" clip-path="url(#pa4d1c33d24)" style="fill: #4c72b0; fill-opacity: 0.5; stroke: #4c72b0; stroke-linejoin: miter"/>
   </g>
   <g id="patch_85">
    <path d="M 222.042878 185.398125 
L 224.024428 185.398125 
L 224.024428 184.639373 
L 222.042878 184.639373 
z
" clip-path="url(#pa4d1c33d24)" style="fill: #4c72b0; fill-opacity: 0.5; stroke: #4c72b0; stroke-linejoin: miter"/>
   </g>
   <g id="patch_86">
    <path d="M 224.024418 185.398125 
L 226.005947 185.398125 
L 226.005947 184.467778 
L 224.024418 184.467778 
z
" clip-path="url(#pa4d1c33d24)" style="fill: #4c72b0; fill-opacity: 0.5; stroke: #4c72b0; stroke-linejoin: miter"/>
   </g>
   <g id="patch_87">
    <path d="M 226.005937 185.398125 
L 227.987486 185.398125 
L 227.987486 184.298874 
L 226.005937 184.298874 
z
" clip-path="url(#pa4d1c33d24)" style="fill: #4c72b0; fill-opacity: 0.5; stroke: #4c72b0; stroke-linejoin: miter"/>
   </g>
   <g id="patch_88">
    <path d="M 227.987486 185.398125 
L 229.969016 185.398125 
L 229.969016 183.971772 
L 227.987486 183.971772 
z
" clip-path="url(#pa4d1c33d24)" style="fill: #4c72b0; fill-opacity: 0.5; stroke: #4c72b0; stroke-linejoin: miter"/>
   </g>
   <g id="patch_89">
    <path d="M 229.969016 185.398125 
L 231.950565 185.398125 
L 231.950565 183.995909 
L 229.969016 183.995909 
z
" clip-path="url(#pa4d1c33d24)" style="fill: #4c72b0; fill-opacity: 0.5; stroke: #4c72b0; stroke-linejoin: miter"/>
   </g>
   <g id="patch_90">
    <path d="M 231.950555 185.398125 
L 233.932084 185.398125 
L 233.932084 184.009308 
L 231.950555 184.009308 
z
" clip-path="url(#pa4d1c33d24)" style="fill: #4c72b0; fill-opacity: 0.5; stroke: #4c72b0; stroke-linejoin: miter"/>
   </g>
   <g id="patch_91">
    <path d="M 233.932084 185.398125 
L 235.913614 185.398125 
L 235.913614 183.902067 
L 233.932084 183.902067 
z
" clip-path="url(#pa4d1c33d24)" style="fill: #4c72b0; fill-opacity: 0.5; stroke: #4c72b0; stroke-linejoin: miter"/>
   </g>
   <g id="patch_92">
    <path d="M 235.913624 185.398125 
L 237.895153 185.398125 
L 237.895153 183.210341 
L 235.913624 183.210341 
z
" clip-path="url(#pa4d1c33d24)" style="fill: #4c72b0; fill-opacity: 0.5; stroke: #4c72b0; stroke-linejoin: miter"/>
   </g>
   <g id="patch_93">
    <path d="M 237.895153 185.398125 
L 239.876682 185.398125 
L 239.876682 183.028026 
L 237.895153 183.028026 
z
" clip-path="url(#pa4d1c33d24)" style="fill: #4c72b0; fill-opacity: 0.5; stroke: #4c72b0; stroke-linejoin: miter"/>
   </g>
   <g id="patch_94">
    <path d="M 239.876692 185.398125 
L 241.858222 185.398125 
L 241.858222 183.204979 
L 239.876692 183.204979 
z
" clip-path="url(#pa4d1c33d24)" style="fill: #4c72b0; fill-opacity: 0.5; stroke: #4c72b0; stroke-linejoin: miter"/>
   </g>
   <g id="patch_95">
    <path d="M 241.858222 185.398125 
L 243.839751 185.398125 
L 243.839751 183.081648 
L 241.858222 183.081648 
z
" clip-path="url(#pa4d1c33d24)" style="fill: #4c72b0; fill-opacity: 0.5; stroke: #4c72b0; stroke-linejoin: miter"/>
   </g>
   <g id="patch_96">
    <path d="M 243.839761 185.398125 
L 245.82129 185.398125 
L 245.82129 182.550788 
L 243.839761 182.550788 
z
" clip-path="url(#pa4d1c33d24)" style="fill: #4c72b0; fill-opacity: 0.5; stroke: #4c72b0; stroke-linejoin: miter"/>
   </g>
   <g id="patch_97">
    <path d="M 245.82129 185.398125 
L 247.80282 185.398125 
L 247.80282 181.872468 
L 245.82129 181.872468 
z
" clip-path="url(#pa4d1c33d24)" style="fill: #4c72b0; fill-opacity: 0.5; stroke: #4c72b0; stroke-linejoin: miter"/>
   </g>
   <g id="patch_98">
    <path d="M 247.80283 185.398125 
L 249.784359 185.398125 
L 249.784359 181.966307 
L 247.80283 181.966307 
z
" clip-path="url(#pa4d1c33d24)" style="fill: #4c72b0; fill-opacity: 0.5; stroke: #4c72b0; stroke-linejoin: miter"/>
   </g>
   <g id="patch_99">
    <path d="M 249.784359 185.398125 
L 251.765888 185.398125 
L 251.765888 181.840295 
L 249.784359 181.840295 
z
" clip-path="url(#pa4d1c33d24)" style="fill: #4c72b0; fill-opacity: 0.5; stroke: #4c72b0; stroke-linejoin: miter"/>
   </g>
   <g id="patch_100">
    <path d="M 251.765898 185.398125 
L 253.747428 185.398125 
L 253.747428 181.918047 
L 251.765898 181.918047 
z
" clip-path="url(#pa4d1c33d24)" style="fill: #4c72b0; fill-opacity: 0.5; stroke: #4c72b0; stroke-linejoin: miter"/>
   </g>
   <g id="patch_101">
    <path d="M 253.747428 185.398125 
L 255.728957 185.398125 
L 255.728957 181.521243 
L 253.747428 181.521243 
z
" clip-path="url(#pa4d1c33d24)" style="fill: #4c72b0; fill-opacity: 0.5; stroke: #4c72b0; stroke-linejoin: miter"/>
   </g>
   <g id="patch_102">
    <path d="M 255.728967 185.398125 
L 257.710496 185.398125 
L 257.710496 181.775948 
L 255.728967 181.775948 
z
" clip-path="url(#pa4d1c33d24)" style="fill: #4c72b0; fill-opacity: 0.5; stroke: #4c72b0; stroke-linejoin: miter"/>
   </g>
   <g id="patch_103">
    <path d="M 257.710496 185.398125 
L 259.692026 185.398125 
L 259.692026 181.757181 
L 257.710496 181.757181 
z
" clip-path="url(#pa4d1c33d24)" style="fill: #4c72b0; fill-opacity: 0.5; stroke: #4c72b0; stroke-linejoin: miter"/>
   </g>
   <g id="patch_104">
    <path d="M 259.692036 185.398125 
L 261.673565 185.398125 
L 261.673565 181.052049 
L 259.692036 181.052049 
z
" clip-path="url(#pa4d1c33d24)" style="fill: #4c72b0; fill-opacity: 0.5; stroke: #4c72b0; stroke-linejoin: miter"/>
   </g>
   <g id="patch_105">
    <path d="M 261.673565 185.398125 
L 263.655094 185.398125 
L 263.655094 180.408583 
L 261.673565 180.408583 
z
" clip-path="url(#pa4d1c33d24)" style="fill: #4c72b0; fill-opacity: 0.5; stroke: #4c72b0; stroke-linejoin: miter"/>
   </g>
   <g id="patch_106">
    <path d="M 263.655104 185.398125 
L 265.636634 185.398125 
L 265.636634 179.569397 
L 263.655104 179.569397 
z
" clip-path="url(#pa4d1c33d24)" style="fill: #4c72b0; fill-opacity: 0.5; stroke: #4c72b0; stroke-linejoin: miter"/>
   </g>
   <g id="patch_107">
    <path d="M 265.636634 185.398125 
L 267.618163 185.398125 
L 267.618163 180.971605 
L 265.636634 180.971605 
z
" clip-path="url(#pa4d1c33d24)" style="fill: #4c72b0; fill-opacity: 0.5; stroke: #4c72b0; stroke-linejoin: miter"/>
   </g>
   <g id="patch_108">
    <path d="M 267.618163 185.398125 
L 269.599692 185.398125 
L 269.599692 180.480973 
L 267.618163 180.480973 
z
" clip-path="url(#pa4d1c33d24)" style="fill: #4c72b0; fill-opacity: 0.5; stroke: #4c72b0; stroke-linejoin: miter"/>
   </g>
   <g id="patch_109">
    <path d="M 269.599702 185.398125 
L 271.581232 185.398125 
L 271.581232 179.36027 
L 269.599702 179.36027 
z
" clip-path="url(#pa4d1c33d24)" style="fill: #4c72b0; fill-opacity: 0.5; stroke: #4c72b0; stroke-linejoin: miter"/>
   </g>
   <g id="patch_110">
    <path d="M 271.581232 185.398125 
L 273.562761 185.398125 
L 273.562761 178.314638 
L 271.581232 178.314638 
z
" clip-path="url(#pa4d1c33d24)" style="fill: #4c72b0; fill-opacity: 0.5; stroke: #4c72b0; stroke-linejoin: miter"/>
   </g>
   <g id="patch_111">
    <path d="M 273.562768 185.398125 
L 275.544298 185.398125 
L 275.544298 180.2075 
L 273.562768 180.2075 
z
" clip-path="url(#pa4d1c33d24)" style="fill: #4c72b0; fill-opacity: 0.5; stroke: #4c72b0; stroke-linejoin: miter"/>
   </g>
   <g id="patch_112">
    <path d="M 275.544303 185.398125 
L 277.525832 185.398125 
L 277.525832 178.958104 
L 275.544303 178.958104 
z
" clip-path="url(#pa4d1c33d24)" style="fill: #4c72b0; fill-opacity: 0.5; stroke: #4c72b0; stroke-linejoin: miter"/>
   </g>
   <g id="patch_113">
    <path d="M 277.525837 185.398125 
L 279.507366 185.398125 
L 279.507366 178.896438 
L 277.525837 178.896438 
z
" clip-path="url(#pa4d1c33d24)" style="fill: #4c72b0; fill-opacity: 0.5; stroke: #4c72b0; stroke-linejoin: miter"/>
   </g>
   <g id="patch_114">
    <path d="M 279.507371 185.398125 
L 281.488901 185.398125 
L 281.488901 178.062614 
L 279.507371 178.062614 
z
" clip-path="url(#pa4d1c33d24)" style="fill: #4c72b0; fill-opacity: 0.5; stroke: #4c72b0; stroke-linejoin: miter"/>
   </g>
   <g id="patch_115">
    <path d="M 281.488906 185.398125 
L 283.470435 185.398125 
L 283.470435 179.09484 
L 281.488906 179.09484 
z
" clip-path="url(#pa4d1c33d24)" style="fill: #4c72b0; fill-opacity: 0.5; stroke: #4c72b0; stroke-linejoin: miter"/>
   </g>
   <g id="patch_116">
    <path d="M 283.47044 185.398125 
L 285.451969 185.398125 
L 285.451969 178.041165 
L 283.47044 178.041165 
z
" clip-path="url(#pa4d1c33d24)" style="fill: #4c72b0; fill-opacity: 0.5; stroke: #4c72b0; stroke-linejoin: miter"/>
   </g>
   <g id="patch_117">
    <path d="M 285.451974 185.398125 
L 287.433504 185.398125 
L 287.433504 179.244983 
L 285.451974 179.244983 
z
" clip-path="url(#pa4d1c33d24)" style="fill: #4c72b0; fill-opacity: 0.5; stroke: #4c72b0; stroke-linejoin: miter"/>
   </g>
   <g id="patch_118">
    <path d="M 287.433509 185.398125 
L 289.415038 185.398125 
L 289.415038 177.116183 
L 287.433509 177.116183 
z
" clip-path="url(#pa4d1c33d24)" style="fill: #4c72b0; fill-opacity: 0.5; stroke: #4c72b0; stroke-linejoin: miter"/>
   </g>
   <g id="patch_119">
    <path d="M 289.415041 185.398125 
L 291.39657 185.398125 
L 291.39657 175.676416 
L 289.415041 175.676416 
z
" clip-path="url(#pa4d1c33d24)" style="fill: #4c72b0; fill-opacity: 0.5; stroke: #4c72b0; stroke-linejoin: miter"/>
   </g>
   <g id="patch_120">
    <path d="M 291.396575 185.398125 
L 293.378104 185.398125 
L 293.378104 177.215384 
L 291.396575 177.215384 
z
" clip-path="url(#pa4d1c33d24)" style="fill: #4c72b0; fill-opacity: 0.5; stroke: #4c72b0; stroke-linejoin: miter"/>
   </g>
   <g id="patch_121">
    <path d="M 293.378109 185.398125 
L 295.359639 185.398125 
L 295.359639 176.998214 
L 293.378109 176.998214 
z
" clip-path="url(#pa4d1c33d24)" style="fill: #4c72b0; fill-opacity: 0.5; stroke: #4c72b0; stroke-linejoin: miter"/>
   </g>
   <g id="patch_122">
    <path d="M 295.359643 185.398125 
L 297.341173 185.398125 
L 297.341173 176.542426 
L 295.359643 176.542426 
z
" clip-path="url(#pa4d1c33d24)" style="fill: #4c72b0; fill-opacity: 0.5; stroke: #4c72b0; stroke-linejoin: miter"/>
   </g>
   <g id="patch_123">
    <path d="M 297.341178 185.398125 
L 299.322707 185.398125 
L 299.322707 176.588005 
L 297.341178 176.588005 
z
" clip-path="url(#pa4d1c33d24)" style="fill: #4c72b0; fill-opacity: 0.5; stroke: #4c72b0; stroke-linejoin: miter"/>
   </g>
   <g id="patch_124">
    <path d="M 299.322712 185.398125 
L 301.304241 185.398125 
L 301.304241 174.845285 
L 299.322712 174.845285 
z
" clip-path="url(#pa4d1c33d24)" style="fill: #4c72b0; fill-opacity: 0.5; stroke: #4c72b0; stroke-linejoin: miter"/>
   </g>
   <g id="patch_125">
    <path d="M 301.304246 185.398125 
L 303.285776 185.398125 
L 303.285776 177.04915 
L 301.304246 177.04915 
z
" clip-path="url(#pa4d1c33d24)" style="fill: #4c72b0; fill-opacity: 0.5; stroke: #4c72b0; stroke-linejoin: miter"/>
   </g>
   <g id="patch_126">
    <path d="M 303.28578 185.398125 
L 305.267309 185.398125 
L 305.267309 176.604091 
L 303.28578 176.604091 
z
" clip-path="url(#pa4d1c33d24)" style="fill: #4c72b0; fill-opacity: 0.5; stroke: #4c72b0; stroke-linejoin: miter"/>
   </g>
   <g id="patch_127">
    <path d="M 305.267314 185.398125 
L 307.248843 185.398125 
L 307.248843 176.156346 
L 305.267314 176.156346 
z
" clip-path="url(#pa4d1c33d24)" style="fill: #4c72b0; fill-opacity: 0.5; stroke: #4c72b0; stroke-linejoin: miter"/>
   </g>
   <g id="patch_128">
    <path d="M 307.248848 185.398125 
L 309.230378 185.398125 
L 309.230378 176.314529 
L 307.248848 176.314529 
z
" clip-path="url(#pa4d1c33d24)" style="fill: #4c72b0; fill-opacity: 0.5; stroke: #4c72b0; stroke-linejoin: miter"/>
   </g>
   <g id="patch_129">
    <path d="M 309.230382 185.398125 
L 311.211911 185.398125 
L 311.211911 175.352012 
L 309.230382 175.352012 
z
" clip-path="url(#pa4d1c33d24)" style="fill: #4c72b0; fill-opacity: 0.5; stroke: #4c72b0; stroke-linejoin: miter"/>
   </g>
   <g id="patch_130">
    <path d="M 311.211916 185.398125 
L 313.193445 185.398125 
L 313.193445 175.558458 
L 311.211916 175.558458 
z
" clip-path="url(#pa4d1c33d24)" style="fill: #4c72b0; fill-opacity: 0.5; stroke: #4c72b0; stroke-linejoin: miter"/>
   </g>
   <g id="patch_131">
    <path d="M 313.19345 185.398125 
L 315.174979 185.398125 
L 315.174979 170.504569 
L 313.19345 170.504569 
z
" clip-path="url(#pa4d1c33d24)" style="fill: #4c72b0; fill-opacity: 0.5; stroke: #4c72b0; stroke-linejoin: miter"/>
   </g>
   <g id="patch_132">
    <path d="M 315.174984 185.398125 
L 317.156513 185.398125 
L 317.156513 176.000841 
L 315.174984 176.000841 
z
" clip-path="url(#pa4d1c33d24)" style="fill: #4c72b0; fill-opacity: 0.5; stroke: #4c72b0; stroke-linejoin: miter"/>
   </g>
   <g id="patch_133">
    <path d="M 317.156518 185.398125 
L 319.138047 185.398125 
L 319.138047 174.630794 
L 317.156518 174.630794 
z
" clip-path="url(#pa4d1c33d24)" style="fill: #4c72b0; fill-opacity: 0.5; stroke: #4c72b0; stroke-linejoin: miter"/>
   </g>
   <g id="patch_134">
    <path d="M 319.138052 185.398125 
L 321.119581 185.398125 
L 321.119581 175.834612 
L 319.138052 175.834612 
z
" clip-path="url(#pa4d1c33d24)" style="fill: #4c72b0; fill-opacity: 0.5; stroke: #4c72b0; stroke-linejoin: miter"/>
   </g>
   <g id="patch_135">
    <path d="M 321.119586 185.398125 
L 323.101115 185.398125 
L 323.101115 175.794397 
L 321.119586 175.794397 
z
" clip-path="url(#pa4d1c33d24)" style="fill: #4c72b0; fill-opacity: 0.5; stroke: #4c72b0; stroke-linejoin: miter"/>
   </g>
   <g id="patch_136">
    <path d="M 323.10112 185.398125 
L 325.082648 185.398125 
L 325.082648 177.236828 
L 323.10112 177.236828 
z
" clip-path="url(#pa4d1c33d24)" style="fill: #4c72b0; fill-opacity: 0.5; stroke: #4c72b0; stroke-linejoin: miter"/>
   </g>
   <g id="patch_137">
    <path d="M 325.082653 185.398125 
L 327.064183 185.398125 
L 327.064183 177.016982 
L 325.082653 177.016982 
z
" clip-path="url(#pa4d1c33d24)" style="fill: #4c72b0; fill-opacity: 0.5; stroke: #4c72b0; stroke-linejoin: miter"/>
   </g>
   <g id="patch_138">
    <path d="M 327.064188 185.398125 
L 329.045717 185.398125 
L 329.045717 173.861318 
L 327.064188 173.861318 
z
" clip-path="url(#pa4d1c33d24)" style="fill: #4c72b0; fill-opacity: 0.5; stroke: #4c72b0; stroke-linejoin: miter"/>
   </g>
   <g id="patch_139">
    <path d="M 329.045722 185.398125 
L 331.027251 185.398125 
L 331.027251 176.708654 
L 329.045722 176.708654 
z
" clip-path="url(#pa4d1c33d24)" style="fill: #4c72b0; fill-opacity: 0.5; stroke: #4c72b0; stroke-linejoin: miter"/>
   </g>
   <g id="patch_140">
    <path d="M 331.027256 185.398125 
L 333.008786 185.398125 
L 333.008786 175.941858 
L 331.027256 175.941858 
z
" clip-path="url(#pa4d1c33d24)" style="fill: #4c72b0; fill-opacity: 0.5; stroke: #4c72b0; stroke-linejoin: miter"/>
   </g>
   <g id="patch_141">
    <path d="M 333.008791 185.398125 
L 334.99032 185.398125 
L 334.99032 178.617603 
L 333.008791 178.617603 
z
" clip-path="url(#pa4d1c33d24)" style="fill: #4c72b0; fill-opacity: 0.5; stroke: #4c72b0; stroke-linejoin: miter"/>
   </g>
   <g id="patch_142">
    <path d="M 334.990325 185.398125 
L 336.971854 185.398125 
L 336.971854 173.896158 
L 334.990325 173.896158 
z
" clip-path="url(#pa4d1c33d24)" style="fill: #4c72b0; fill-opacity: 0.5; stroke: #4c72b0; stroke-linejoin: miter"/>
   </g>
   <g id="patch_143">
    <path d="M 336.971857 185.398125 
L 338.953386 185.398125 
L 338.953386 177.081328 
L 336.971857 177.081328 
z
" clip-path="url(#pa4d1c33d24)" style="fill: #4c72b0; fill-opacity: 0.5; stroke: #4c72b0; stroke-linejoin: miter"/>
   </g>
   <g id="patch_144">
    <path d="M 338.953391 185.398125 
L 340.934921 185.398125 
L 340.934921 176.907056 
L 338.953391 176.907056 
z
" clip-path="url(#pa4d1c33d24)" style="fill: #4c72b0; fill-opacity: 0.5; stroke: #4c72b0; stroke-linejoin: miter"/>
   </g>
   <g id="patch_145">
    <path d="M 340.934925 185.398125 
L 342.916455 185.398125 
L 342.916455 178.65782 
L 340.934925 178.65782 
z
" clip-path="url(#pa4d1c33d24)" style="fill: #4c72b0; fill-opacity: 0.5; stroke: #4c72b0; stroke-linejoin: miter"/>
   </g>
   <g id="patch_146">
    <path d="M 342.91646 185.398125 
L 344.897989 185.398125 
L 344.897989 178.885714 
L 342.91646 178.885714 
z
" clip-path="url(#pa4d1c33d24)" style="fill: #4c72b0; fill-opacity: 0.5; stroke: #4c72b0; stroke-linejoin: miter"/>
   </g>
   <g id="patch_147">
    <path d="M 344.897994 185.398125 
L 346.879523 185.398125 
L 346.879523 178.062614 
L 344.897994 178.062614 
z
" clip-path="url(#pa4d1c33d24)" style="fill: #4c72b0; fill-opacity: 0.5; stroke: #4c72b0; stroke-linejoin: miter"/>
   </g>
   <g id="patch_148">
    <path d="M 346.879528 185.398125 
L 348.861058 185.398125 
L 348.861058 177.829358 
L 346.879528 177.829358 
z
" clip-path="url(#pa4d1c33d24)" style="fill: #4c72b0; fill-opacity: 0.5; stroke: #4c72b0; stroke-linejoin: miter"/>
   </g>
   <g id="patch_149">
    <path d="M 348.861063 185.398125 
L 350.842592 185.398125 
L 350.842592 178.228843 
L 348.861063 178.228843 
z
" clip-path="url(#pa4d1c33d24)" style="fill: #4c72b0; fill-opacity: 0.5; stroke: #4c72b0; stroke-linejoin: miter"/>
   </g>
   <g id="patch_150">
    <path d="M 350.842597 185.398125 
L 352.824126 185.398125 
L 352.824126 180.175327 
L 350.842597 180.175327 
z
" clip-path="url(#pa4d1c33d24)" style="fill: #4c72b0; fill-opacity: 0.5; stroke: #4c72b0; stroke-linejoin: miter"/>
   </g>
   <g id="patch_151">
    <path d="M 352.824129 185.398125 
L 354.805658 185.398125 
L 354.805658 178.826721 
L 352.824129 178.826721 
z
" clip-path="url(#pa4d1c33d24)" style="fill: #4c72b0; fill-opacity: 0.5; stroke: #4c72b0; stroke-linejoin: miter"/>
   </g>
   <g id="patch_152">
    <path d="M 354.805663 185.398125 
L 356.787193 185.398125 
L 356.787193 178.349501 
L 354.805663 178.349501 
z
" clip-path="url(#pa4d1c33d24)" style="fill: #4c72b0; fill-opacity: 0.5; stroke: #4c72b0; stroke-linejoin: miter"/>
   </g>
   <g id="patch_153">
    <path d="M 356.787203 185.398125 
L 358.768732 185.398125 
L 358.768732 179.944752 
L 356.787203 179.944752 
z
" clip-path="url(#pa4d1c33d24)" style="fill: #4c72b0; fill-opacity: 0.5; stroke: #4c72b0; stroke-linejoin: miter"/>
   </g>
   <g id="patch_154">
    <path d="M 358.768732 185.398125 
L 360.750261 185.398125 
L 360.750261 180.47828 
L 358.768732 180.47828 
z
" clip-path="url(#pa4d1c33d24)" style="fill: #4c72b0; fill-opacity: 0.5; stroke: #4c72b0; stroke-linejoin: miter"/>
   </g>
   <g id="patch_155">
    <path d="M 360.750261 185.398125 
L 362.731791 185.398125 
L 362.731791 179.628381 
L 360.750261 179.628381 
z
" clip-path="url(#pa4d1c33d24)" style="fill: #4c72b0; fill-opacity: 0.5; stroke: #4c72b0; stroke-linejoin: miter"/>
   </g>
   <g id="patch_156">
    <path d="M 362.731801 185.398125 
L 364.71333 185.398125 
L 364.71333 180.078807 
L 362.731801 180.078807 
z
" clip-path="url(#pa4d1c33d24)" style="fill: #4c72b0; fill-opacity: 0.5; stroke: #4c72b0; stroke-linejoin: miter"/>
   </g>
   <g id="patch_157">
    <path d="M 364.71333 185.398125 
L 366.694859 185.398125 
L 366.694859 180.357642 
L 364.71333 180.357642 
z
" clip-path="url(#pa4d1c33d24)" style="fill: #4c72b0; fill-opacity: 0.5; stroke: #4c72b0; stroke-linejoin: miter"/>
   </g>
   <g id="patch_158">
    <path d="M 366.694869 185.398125 
L 368.676399 185.398125 
L 368.676399 181.188786 
L 366.694869 181.188786 
z
" clip-path="url(#pa4d1c33d24)" style="fill: #4c72b0; fill-opacity: 0.5; stroke: #4c72b0; stroke-linejoin: miter"/>
   </g>
   <g id="patch_159">
    <path d="M 368.676399 185.398125 
L 370.657928 185.398125 
L 370.657928 181.53733 
L 368.676399 181.53733 
z
" clip-path="url(#pa4d1c33d24)" style="fill: #4c72b0; fill-opacity: 0.5; stroke: #4c72b0; stroke-linejoin: miter"/>
   </g>
   <g id="patch_160">
    <path d="M 370.657938 185.398125 
L 372.639467 185.398125 
L 372.639467 181.507838 
L 370.657938 181.507838 
z
" clip-path="url(#pa4d1c33d24)" style="fill: #4c72b0; fill-opacity: 0.5; stroke: #4c72b0; stroke-linejoin: miter"/>
   </g>
   <g id="patch_161">
    <path d="M 372.639467 185.398125 
L 374.620997 185.398125 
L 374.620997 181.301392 
L 372.639467 181.301392 
z
" clip-path="url(#pa4d1c33d24)" style="fill: #4c72b0; fill-opacity: 0.5; stroke: #4c72b0; stroke-linejoin: miter"/>
   </g>
   <g id="patch_162">
    <path d="M 374.621007 185.398125 
L 376.602536 185.398125 
L 376.602536 181.928771 
L 374.621007 181.928771 
z
" clip-path="url(#pa4d1c33d24)" style="fill: #4c72b0; fill-opacity: 0.5; stroke: #4c72b0; stroke-linejoin: miter"/>
   </g>
   <g id="patch_163">
    <path d="M 376.602536 185.398125 
L 378.584065 185.398125 
L 378.584065 182.212969 
L 376.602536 182.212969 
z
" clip-path="url(#pa4d1c33d24)" style="fill: #4c72b0; fill-opacity: 0.5; stroke: #4c72b0; stroke-linejoin: miter"/>
   </g>
   <g id="patch_164">
    <path d="M 378.584075 185.398125 
L 380.565605 185.398125 
L 380.565605 181.993118 
L 378.584075 181.993118 
z
" clip-path="url(#pa4d1c33d24)" style="fill: #4c72b0; fill-opacity: 0.5; stroke: #4c72b0; stroke-linejoin: miter"/>
   </g>
   <g id="patch_165">
    <path d="M 380.565605 185.398125 
L 382.547134 185.398125 
L 382.547134 183.022663 
L 380.565605 183.022663 
z
" clip-path="url(#pa4d1c33d24)" style="fill: #4c72b0; fill-opacity: 0.5; stroke: #4c72b0; stroke-linejoin: miter"/>
   </g>
   <g id="patch_166">
    <path d="M 382.547144 185.398125 
L 384.528673 185.398125 
L 384.528673 182.695568 
L 382.547144 182.695568 
z
" clip-path="url(#pa4d1c33d24)" style="fill: #4c72b0; fill-opacity: 0.5; stroke: #4c72b0; stroke-linejoin: miter"/>
   </g>
   <g id="patch_167">
    <path d="M 384.528673 185.398125 
L 386.510203 185.398125 
L 386.510203 182.963679 
L 384.528673 182.963679 
z
" clip-path="url(#pa4d1c33d24)" style="fill: #4c72b0; fill-opacity: 0.5; stroke: #4c72b0; stroke-linejoin: miter"/>
   </g>
   <g id="patch_168">
    <path d="M 386.510212 185.398125 
L 388.491742 185.398125 
L 388.491742 183.188892 
L 386.510212 183.188892 
z
" clip-path="url(#pa4d1c33d24)" style="fill: #4c72b0; fill-opacity: 0.5; stroke: #4c72b0; stroke-linejoin: miter"/>
   </g>
   <g id="patch_169">
    <path d="M 388.491742 185.398125 
L 390.473271 185.398125 
L 390.473271 183.266644 
L 388.491742 183.266644 
z
" clip-path="url(#pa4d1c33d24)" style="fill: #4c72b0; fill-opacity: 0.5; stroke: #4c72b0; stroke-linejoin: miter"/>
   </g>
   <g id="patch_170">
    <path d="M 390.473281 185.398125 
L 392.45481 185.398125 
L 392.45481 183.430192 
L 390.473281 183.430192 
z
" clip-path="url(#pa4d1c33d24)" style="fill: #4c72b0; fill-opacity: 0.5; stroke: #4c72b0; stroke-linejoin: miter"/>
   </g>
   <g id="patch_171">
    <path d="M 392.45481 185.398125 
L 394.43634 185.398125 
L 394.43634 183.451636 
L 392.45481 183.451636 
z
" clip-path="url(#pa4d1c33d24)" style="fill: #4c72b0; fill-opacity: 0.5; stroke: #4c72b0; stroke-linejoin: miter"/>
   </g>
   <g id="patch_172">
    <path d="M 394.43634 185.398125 
L 396.417869 185.398125 
L 396.417869 183.140632 
L 394.43634 183.140632 
z
" clip-path="url(#pa4d1c33d24)" style="fill: #4c72b0; fill-opacity: 0.5; stroke: #4c72b0; stroke-linejoin: miter"/>
   </g>
   <g id="patch_173">
    <path d="M 396.417879 185.398125 
L 398.399408 185.398125 
L 398.399408 180.625753 
L 396.417879 180.625753 
z
" clip-path="url(#pa4d1c33d24)" style="fill: #4c72b0; fill-opacity: 0.5; stroke: #4c72b0; stroke-linejoin: miter"/>
   </g>
   <g id="patch_174">
    <path d="M 398.399408 185.398125 
L 400.380958 185.398125 
L 400.380958 181.443501 
L 398.399408 181.443501 
z
" clip-path="url(#pa4d1c33d24)" style="fill: #4c72b0; fill-opacity: 0.5; stroke: #4c72b0; stroke-linejoin: miter"/>
   </g>
   <g id="patch_175">
    <path d="M 400.380948 185.398125 
L 402.362477 185.398125 
L 402.362477 163.584577 
L 400.380948 163.584577 
z
" clip-path="url(#pa4d1c33d24)" style="fill: #4c72b0; fill-opacity: 0.5; stroke: #4c72b0; stroke-linejoin: miter"/>
   </g>
   <g id="patch_176">
    <path d="M 402.362467 185.398125 
L 404.344016 185.398125 
L 404.344016 157.841768 
L 402.362467 157.841768 
z
" clip-path="url(#pa4d1c33d24)" style="fill: #4c72b0; fill-opacity: 0.5; stroke: #4c72b0; stroke-linejoin: miter"/>
   </g>
   <g id="patch_177">
    <path d="M 404.344016 185.398125 
L 406.325546 185.398125 
L 406.325546 165.429184 
L 404.344016 165.429184 
z
" clip-path="url(#pa4d1c33d24)" style="fill: #4c72b0; fill-opacity: 0.5; stroke: #4c72b0; stroke-linejoin: miter"/>
   </g>
   <g id="patch_178">
    <path d="M 406.325546 185.398125 
L 408.307075 185.398125 
L 408.307075 161.919605 
L 406.325546 161.919605 
z
" clip-path="url(#pa4d1c33d24)" style="fill: #4c72b0; fill-opacity: 0.5; stroke: #4c72b0; stroke-linejoin: miter"/>
   </g>
   <g id="patch_179">
    <path d="M 408.307075 185.398125 
L 410.288624 185.398125 
L 410.288624 152.876368 
L 408.307075 152.876368 
z
" clip-path="url(#pa4d1c33d24)" style="fill: #4c72b0; fill-opacity: 0.5; stroke: #4c72b0; stroke-linejoin: miter"/>
   </g>
   <g id="patch_180">
    <path d="M 410.288614 185.398125 
L 412.270144 185.398125 
L 412.270144 153.92184 
L 410.288614 153.92184 
z
" clip-path="url(#pa4d1c33d24)" style="fill: #4c72b0; fill-opacity: 0.5; stroke: #4c72b0; stroke-linejoin: miter"/>
   </g>
   <g id="patch_181">
    <path d="M 412.270134 185.398125 
L 414.251683 185.398125 
L 414.251683 162.37551 
L 412.270134 162.37551 
z
" clip-path="url(#pa4d1c33d24)" style="fill: #4c72b0; fill-opacity: 0.5; stroke: #4c72b0; stroke-linejoin: miter"/>
   </g>
   <g id="patch_182">
    <path d="M 414.251683 185.398125 
L 416.233212 185.398125 
L 416.233212 174.073097 
L 414.251683 174.073097 
z
" clip-path="url(#pa4d1c33d24)" style="fill: #4c72b0; fill-opacity: 0.5; stroke: #4c72b0; stroke-linejoin: miter"/>
   </g>
   <g id="patch_183">
    <path d="M 416.233212 185.398125 
L 418.214762 185.398125 
L 418.214762 171.432269 
L 416.233212 171.432269 
z
" clip-path="url(#pa4d1c33d24)" style="fill: #4c72b0; fill-opacity: 0.5; stroke: #4c72b0; stroke-linejoin: miter"/>
   </g>
   <g id="patch_184">
    <path d="M 418.214752 185.398125 
L 420.196281 185.398125 
L 420.196281 170.622503 
L 418.214752 170.622503 
z
" clip-path="url(#pa4d1c33d24)" style="fill: #4c72b0; fill-opacity: 0.5; stroke: #4c72b0; stroke-linejoin: miter"/>
   </g>
   <g id="patch_185">
    <path d="M 420.196271 185.398125 
L 422.17782 185.398125 
L 422.17782 171.11858 
L 420.196271 171.11858 
z
" clip-path="url(#pa4d1c33d24)" style="fill: #4c72b0; fill-opacity: 0.5; stroke: #4c72b0; stroke-linejoin: miter"/>
   </g>
   <g id="patch_186">
    <path d="M 422.17782 185.398125 
L 424.15935 185.398125 
L 424.15935 172.788843 
L 422.17782 172.788843 
z
" clip-path="url(#pa4d1c33d24)" style="fill: #4c72b0; fill-opacity: 0.5; stroke: #4c72b0; stroke-linejoin: miter"/>
   </g>
   <g id="patch_187">
    <path d="M 424.15935 185.398125 
L 426.140899 185.398125 
L 426.140899 174.652272 
L 424.15935 174.652272 
z
" clip-path="url(#pa4d1c33d24)" style="fill: #4c72b0; fill-opacity: 0.5; stroke: #4c72b0; stroke-linejoin: miter"/>
   </g>
   <g id="patch_188">
    <path d="M 426.140889 185.398125 
L 428.122418 185.398125 
L 428.122418 177.346738 
L 426.140889 177.346738 
z
" clip-path="url(#pa4d1c33d24)" style="fill: #4c72b0; fill-opacity: 0.5; stroke: #4c72b0; stroke-linejoin: miter"/>
   </g>
   <g id="patch_189">
    <path d="M 428.122408 185.398125 
L 430.103958 185.398125 
L 430.103958 181.151261 
L 428.122408 181.151261 
z
" clip-path="url(#pa4d1c33d24)" style="fill: #4c72b0; fill-opacity: 0.5; stroke: #4c72b0; stroke-linejoin: miter"/>
   </g>
   <g id="patch_190">
    <path d="M 430.103958 185.398125 
L 432.085487 185.398125 
L 432.085487 183.682212 
L 430.103958 183.682212 
z
" clip-path="url(#pa4d1c33d24)" style="fill: #4c72b0; fill-opacity: 0.5; stroke: #4c72b0; stroke-linejoin: miter"/>
   </g>
   <g id="patch_191">
    <path d="M 432.085487 185.398125 
L 434.067036 185.398125 
L 434.067036 183.301504 
L 432.085487 183.301504 
z
" clip-path="url(#pa4d1c33d24)" style="fill: #4c72b0; fill-opacity: 0.5; stroke: #4c72b0; stroke-linejoin: miter"/>
   </g>
   <g id="patch_192">
    <path d="M 434.067026 185.398125 
L 436.048556 185.398125 
L 436.048556 183.4141 
L 434.067026 183.4141 
z
" clip-path="url(#pa4d1c33d24)" style="fill: #4c72b0; fill-opacity: 0.5; stroke: #4c72b0; stroke-linejoin: miter"/>
   </g>
   <g id="patch_193">
    <path d="M 436.048546 185.398125 
L 438.030095 185.398125 
L 438.030095 183.363169 
L 436.048546 183.363169 
z
" clip-path="url(#pa4d1c33d24)" style="fill: #4c72b0; fill-opacity: 0.5; stroke: #4c72b0; stroke-linejoin: miter"/>
   </g>
   <g id="patch_194">
    <path d="M 438.030095 185.398125 
L 440.011624 185.398125 
L 440.011624 183.459679 
L 438.030095 183.459679 
z
" clip-path="url(#pa4d1c33d24)" style="fill: #4c72b0; fill-opacity: 0.5; stroke: #4c72b0; stroke-linejoin: miter"/>
   </g>
   <g id="patch_195">
    <path d="M 440.011624 185.398125 
L 441.993154 185.398125 
L 441.993154 183.491853 
L 440.011624 183.491853 
z
" clip-path="url(#pa4d1c33d24)" style="fill: #4c72b0; fill-opacity: 0.5; stroke: #4c72b0; stroke-linejoin: miter"/>
   </g>
   <g id="patch_196">
    <path d="M 441.993154 185.398125 
L 443.974703 185.398125 
L 443.974703 183.55889 
L 441.993154 183.55889 
z
" clip-path="url(#pa4d1c33d24)" style="fill: #4c72b0; fill-opacity: 0.5; stroke: #4c72b0; stroke-linejoin: miter"/>
   </g>
   <g id="patch_197">
    <path d="M 443.974693 185.398125 
L 445.956222 185.398125 
L 445.956222 183.778732 
L 443.974693 183.778732 
z
" clip-path="url(#pa4d1c33d24)" style="fill: #4c72b0; fill-opacity: 0.5; stroke: #4c72b0; stroke-linejoin: miter"/>
   </g>
   <g id="patch_198">
    <path d="M 445.956212 185.398125 
L 447.937762 185.398125 
L 447.937762 183.792145 
L 445.956212 183.792145 
z
" clip-path="url(#pa4d1c33d24)" style="fill: #4c72b0; fill-opacity: 0.5; stroke: #4c72b0; stroke-linejoin: miter"/>
   </g>
   <g id="patch_199">
    <path d="M 447.937762 185.398125 
L 449.919291 185.398125 
L 449.919291 184.11119 
L 447.937762 184.11119 
z
" clip-path="url(#pa4d1c33d24)" style="fill: #4c72b0; fill-opacity: 0.5; stroke: #4c72b0; stroke-linejoin: miter"/>
   </g>
   <g id="patch_200">
    <path d="M 449.919291 185.398125 
L 451.90084 185.398125 
L 451.90084 184.226484 
L 449.919291 184.226484 
z
" clip-path="url(#pa4d1c33d24)" style="fill: #4c72b0; fill-opacity: 0.5; stroke: #4c72b0; stroke-linejoin: miter"/>
   </g>
   <g id="patch_201">
    <path d="M 451.90083 185.398125 
L 453.88236 185.398125 
L 453.88236 184.322998 
L 451.90083 184.322998 
z
" clip-path="url(#pa4d1c33d24)" style="fill: #4c72b0; fill-opacity: 0.5; stroke: #4c72b0; stroke-linejoin: miter"/>
   </g>
   <g id="patch_202">
    <path d="M 453.88235 185.398125 
L 455.863899 185.398125 
L 455.863899 184.336409 
L 453.88235 184.336409 
z
" clip-path="url(#pa4d1c33d24)" style="fill: #4c72b0; fill-opacity: 0.5; stroke: #4c72b0; stroke-linejoin: miter"/>
   </g>
   <g id="patch_203">
    <path d="M 455.863899 185.398125 
L 457.845428 185.398125 
L 457.845428 184.390026 
L 455.863899 184.390026 
z
" clip-path="url(#pa4d1c33d24)" style="fill: #4c72b0; fill-opacity: 0.5; stroke: #4c72b0; stroke-linejoin: miter"/>
   </g>
   <g id="patch_204">
    <path d="M 457.845428 185.398125 
L 459.826977 185.398125 
L 459.826977 184.596476 
L 457.845428 184.596476 
z
" clip-path="url(#pa4d1c33d24)" style="fill: #4c72b0; fill-opacity: 0.5; stroke: #4c72b0; stroke-linejoin: miter"/>
   </g>
   <g id="patch_205">
    <path d="M 459.826968 185.398125 
L 461.808497 185.398125 
L 461.808497 184.717122 
L 459.826968 184.717122 
z
" clip-path="url(#pa4d1c33d24)" style="fill: #4c72b0; fill-opacity: 0.5; stroke: #4c72b0; stroke-linejoin: miter"/>
   </g>
   <g id="patch_206">
    <path d="M 461.808487 185.398125 
L 463.790036 185.398125 
L 463.790036 184.77611 
L 461.808487 184.77611 
z
" clip-path="url(#pa4d1c33d24)" style="fill: #4c72b0; fill-opacity: 0.5; stroke: #4c72b0; stroke-linejoin: miter"/>
   </g>
   <g id="patch_207">
    <path d="M 463.790036 185.398125 
L 465.771566 185.398125 
L 465.771566 184.810961 
L 463.790036 184.810961 
z
" clip-path="url(#pa4d1c33d24)" style="fill: #4c72b0; fill-opacity: 0.5; stroke: #4c72b0; stroke-linejoin: miter"/>
   </g>
   <g id="patch_208">
    <path d="M 465.771566 185.398125 
L 467.753115 185.398125 
L 467.753115 184.918208 
L 465.771566 184.918208 
z
" clip-path="url(#pa4d1c33d24)" style="fill: #4c72b0; fill-opacity: 0.5; stroke: #4c72b0; stroke-linejoin: miter"/>
   </g>
   <g id="patch_209">
    <path d="M 467.753105 185.398125 
L 469.734634 185.398125 
L 469.734634 184.998639 
L 467.753105 184.998639 
z
" clip-path="url(#pa4d1c33d24)" style="fill: #4c72b0; fill-opacity: 0.5; stroke: #4c72b0; stroke-linejoin: miter"/>
   </g>
   <g id="patch_210">
    <path d="M 469.734624 185.398125 
L 471.716173 185.398125 
L 471.716173 184.982554 
L 469.734624 184.982554 
z
" clip-path="url(#pa4d1c33d24)" style="fill: #4c72b0; fill-opacity: 0.5; stroke: #4c72b0; stroke-linejoin: miter"/>
   </g>
   <g id="patch_211">
    <path d="M 471.716173 185.398125 
L 473.697703 185.398125 
L 473.697703 185.012045 
L 471.716173 185.012045 
z
" clip-path="url(#pa4d1c33d24)" style="fill: #4c72b0; fill-opacity: 0.5; stroke: #4c72b0; stroke-linejoin: miter"/>
   </g>
   <g id="patch_212">
    <path d="M 473.697703 185.398125 
L 475.679232 185.398125 
L 475.679232 185.148781 
L 473.697703 185.148781 
z
" clip-path="url(#pa4d1c33d24)" style="fill: #4c72b0; fill-opacity: 0.5; stroke: #4c72b0; stroke-linejoin: miter"/>
   </g>
   <g id="patch_213">
    <path d="M 475.679232 185.398125 
L 477.660781 185.398125 
L 477.660781 185.135377 
L 475.679232 185.135377 
z
" clip-path="url(#pa4d1c33d24)" style="fill: #4c72b0; fill-opacity: 0.5; stroke: #4c72b0; stroke-linejoin: miter"/>
   </g>
   <g id="patch_214">
    <path d="M 477.660771 185.398125 
L 479.642301 185.398125 
L 479.642301 185.087116 
L 477.660771 185.087116 
z
" clip-path="url(#pa4d1c33d24)" style="fill: #4c72b0; fill-opacity: 0.5; stroke: #4c72b0; stroke-linejoin: miter"/>
   </g>
   <g id="patch_215">
    <path d="M 479.642291 185.398125 
L 481.62384 185.398125 
L 481.62384 185.19168 
L 479.642291 185.19168 
z
" clip-path="url(#pa4d1c33d24)" style="fill: #4c72b0; fill-opacity: 0.5; stroke: #4c72b0; stroke-linejoin: miter"/>
   </g>
   <g id="patch_216">
    <path d="M 481.62384 185.398125 
L 483.605369 185.398125 
L 483.605369 185.178274 
L 481.62384 185.178274 
z
" clip-path="url(#pa4d1c33d24)" style="fill: #4c72b0; fill-opacity: 0.5; stroke: #4c72b0; stroke-linejoin: miter"/>
   </g>
   <g id="patch_217">
    <path d="M 483.60535 185.398125 
L 485.586879 185.398125 
L 485.586879 185.256026 
L 483.60535 185.256026 
z
" clip-path="url(#pa4d1c33d24)" style="fill: #4c72b0; fill-opacity: 0.5; stroke: #4c72b0; stroke-linejoin: miter"/>
   </g>
   <g id="patch_218">
    <path d="M 485.586899 185.398125 
L 487.568448 185.398125 
L 487.568448 185.210449 
L 485.586899 185.210449 
z
" clip-path="url(#pa4d1c33d24)" style="fill: #4c72b0; fill-opacity: 0.5; stroke: #4c72b0; stroke-linejoin: miter"/>
   </g>
   <g id="patch_219">
    <path d="M 487.568448 185.398125 
L 489.549977 185.398125 
L 489.549977 185.261388 
L 487.568448 185.261388 
z
" clip-path="url(#pa4d1c33d24)" style="fill: #4c72b0; fill-opacity: 0.5; stroke: #4c72b0; stroke-linejoin: miter"/>
   </g>
   <g id="patch_220">
    <path d="M 489.549958 185.398125 
L 491.531487 185.398125 
L 491.531487 185.29088 
L 489.549958 185.29088 
z
" clip-path="url(#pa4d1c33d24)" style="fill: #4c72b0; fill-opacity: 0.5; stroke: #4c72b0; stroke-linejoin: miter"/>
   </g>
   <g id="patch_221">
    <path d="M 491.531507 185.398125 
L 493.513036 185.398125 
L 493.513036 185.306967 
L 491.531507 185.306967 
z
" clip-path="url(#pa4d1c33d24)" style="fill: #4c72b0; fill-opacity: 0.5; stroke: #4c72b0; stroke-linejoin: miter"/>
   </g>
   <g id="patch_222">
    <path d="M 493.513036 185.398125 
L 495.494585 185.398125 
L 495.494585 185.317692 
L 493.513036 185.317692 
z
" clip-path="url(#pa4d1c33d24)" style="fill: #4c72b0; fill-opacity: 0.5; stroke: #4c72b0; stroke-linejoin: miter"/>
   </g>
   <g id="patch_223">
    <path d="M 495.494565 185.398125 
L 497.476095 185.398125 
L 497.476095 185.29088 
L 495.494565 185.29088 
z
" clip-path="url(#pa4d1c33d24)" style="fill: #4c72b0; fill-opacity: 0.5; stroke: #4c72b0; stroke-linejoin: miter"/>
   </g>
   <g id="patch_224">
    <path d="M 497.476115 185.398125 
L 499.457644 185.398125 
L 499.457644 185.317692 
L 497.476115 185.317692 
z
" clip-path="url(#pa4d1c33d24)" style="fill: #4c72b0; fill-opacity: 0.5; stroke: #4c72b0; stroke-linejoin: miter"/>
   </g>
   <g id="patch_225">
    <path d="M 499.457624 185.398125 
L 501.439154 185.398125 
L 501.439154 185.331097 
L 499.457624 185.331097 
z
" clip-path="url(#pa4d1c33d24)" style="fill: #4c72b0; fill-opacity: 0.5; stroke: #4c72b0; stroke-linejoin: miter"/>
   </g>
   <g id="patch_226">
    <path d="M 501.439173 185.398125 
L 503.420723 185.398125 
L 503.420723 185.328417 
L 501.439173 185.328417 
z
" clip-path="url(#pa4d1c33d24)" style="fill: #4c72b0; fill-opacity: 0.5; stroke: #4c72b0; stroke-linejoin: miter"/>
   </g>
   <g id="patch_227">
    <path d="M 503.420723 185.398125 
L 505.402252 185.398125 
L 505.402252 185.320373 
L 503.420723 185.320373 
z
" clip-path="url(#pa4d1c33d24)" style="fill: #4c72b0; fill-opacity: 0.5; stroke: #4c72b0; stroke-linejoin: miter"/>
   </g>
   <g id="patch_228">
    <path d="M 505.402232 185.398125 
L 507.383761 185.398125 
L 507.383761 185.341822 
L 505.402232 185.341822 
z
" clip-path="url(#pa4d1c33d24)" style="fill: #4c72b0; fill-opacity: 0.5; stroke: #4c72b0; stroke-linejoin: miter"/>
   </g>
   <g id="patch_229">
    <path d="M 507.383781 185.398125 
L 509.365311 185.398125 
L 509.365311 185.349865 
L 507.383781 185.349865 
z
" clip-path="url(#pa4d1c33d24)" style="fill: #4c72b0; fill-opacity: 0.5; stroke: #4c72b0; stroke-linejoin: miter"/>
   </g>
   <g id="patch_230">
    <path d="M 509.365291 185.398125 
L 511.34682 185.398125 
L 511.34682 185.344503 
L 509.365291 185.344503 
z
" clip-path="url(#pa4d1c33d24)" style="fill: #4c72b0; fill-opacity: 0.5; stroke: #4c72b0; stroke-linejoin: miter"/>
   </g>
   <g id="patch_231">
    <path d="M 511.34684 185.398125 
L 513.328389 185.398125 
L 513.328389 185.355228 
L 511.34684 185.355228 
z
" clip-path="url(#pa4d1c33d24)" style="fill: #4c72b0; fill-opacity: 0.5; stroke: #4c72b0; stroke-linejoin: miter"/>
   </g>
   <g id="patch_232">
    <path d="M 513.328389 185.398125 
L 515.309919 185.398125 
L 515.309919 185.347184 
L 513.328389 185.347184 
z
" clip-path="url(#pa4d1c33d24)" style="fill: #4c72b0; fill-opacity: 0.5; stroke: #4c72b0; stroke-linejoin: miter"/>
   </g>
   <g id="patch_233">
    <path d="M 515.309899 185.398125 
L 517.291428 185.398125 
L 517.291428 185.365952 
L 515.309899 185.365952 
z
" clip-path="url(#pa4d1c33d24)" style="fill: #4c72b0; fill-opacity: 0.5; stroke: #4c72b0; stroke-linejoin: miter"/>
   </g>
   <g id="patch_234">
    <path d="M 517.291448 185.398125 
L 519.272977 185.398125 
L 519.272977 185.384719 
L 517.291448 185.384719 
z
" clip-path="url(#pa4d1c33d24)" style="fill: #4c72b0; fill-opacity: 0.5; stroke: #4c72b0; stroke-linejoin: miter"/>
   </g>
   <g id="patch_235">
    <path d="M 519.272977 185.398125 
L 521.254527 185.398125 
L 521.254527 185.36059 
L 519.272977 185.36059 
z
" clip-path="url(#pa4d1c33d24)" style="fill: #4c72b0; fill-opacity: 0.5; stroke: #4c72b0; stroke-linejoin: miter"/>
   </g>
   <g id="patch_236">
    <path d="M 521.254507 185.398125 
L 523.236036 185.398125 
L 523.236036 185.371314 
L 521.254507 185.371314 
z
" clip-path="url(#pa4d1c33d24)" style="fill: #4c72b0; fill-opacity: 0.5; stroke: #4c72b0; stroke-linejoin: miter"/>
   </g>
   <g id="patch_237">
    <path d="M 523.236056 185.398125 
L 525.217585 185.398125 
L 525.217585 185.379357 
L 523.236056 185.379357 
z
" clip-path="url(#pa4d1c33d24)" style="fill: #4c72b0; fill-opacity: 0.5; stroke: #4c72b0; stroke-linejoin: miter"/>
   </g>
   <g id="patch_238">
    <path d="M 525.217565 185.398125 
L 527.199095 185.398125 
L 527.199095 185.379357 
L 525.217565 185.379357 
z
" clip-path="url(#pa4d1c33d24)" style="fill: #4c72b0; fill-opacity: 0.5; stroke: #4c72b0; stroke-linejoin: miter"/>
   </g>
   <g id="patch_239">
    <path d="M 527.199115 185.398125 
L 529.180664 185.398125 
L 529.180664 185.376676 
L 527.199115 185.376676 
z
" clip-path="url(#pa4d1c33d24)" style="fill: #4c72b0; fill-opacity: 0.5; stroke: #4c72b0; stroke-linejoin: miter"/>
   </g>
   <g id="patch_240">
    <path d="M 529.180664 185.398125 
L 531.162193 185.398125 
L 531.162193 185.379357 
L 529.180664 185.379357 
z
" clip-path="url(#pa4d1c33d24)" style="fill: #4c72b0; fill-opacity: 0.5; stroke: #4c72b0; stroke-linejoin: miter"/>
   </g>
   <g id="patch_241">
    <path d="M 531.162173 185.398125 
L 533.143703 185.398125 
L 533.143703 185.382038 
L 531.162173 185.382038 
z
" clip-path="url(#pa4d1c33d24)" style="fill: #4c72b0; fill-opacity: 0.5; stroke: #4c72b0; stroke-linejoin: miter"/>
   </g>
   <g id="patch_242">
    <path d="M 533.143723 185.398125 
L 535.125252 185.398125 
L 535.125252 185.382038 
L 533.143723 185.382038 
z
" clip-path="url(#pa4d1c33d24)" style="fill: #4c72b0; fill-opacity: 0.5; stroke: #4c72b0; stroke-linejoin: miter"/>
   </g>
   <g id="patch_243">
    <path d="M 535.125232 185.398125 
L 537.106761 185.398125 
L 537.106761 185.382038 
L 535.125232 185.382038 
z
" clip-path="url(#pa4d1c33d24)" style="fill: #4c72b0; fill-opacity: 0.5; stroke: #4c72b0; stroke-linejoin: miter"/>
   </g>
   <g id="patch_244">
    <path d="M 537.106781 185.398125 
L 539.088331 185.398125 
L 539.088331 185.390082 
L 537.106781 185.390082 
z
" clip-path="url(#pa4d1c33d24)" style="fill: #4c72b0; fill-opacity: 0.5; stroke: #4c72b0; stroke-linejoin: miter"/>
   </g>
   <g id="patch_245">
    <path d="M 539.088331 185.398125 
L 541.06986 185.398125 
L 541.06986 185.392763 
L 539.088331 185.392763 
z
" clip-path="url(#pa4d1c33d24)" style="fill: #4c72b0; fill-opacity: 0.5; stroke: #4c72b0; stroke-linejoin: miter"/>
   </g>
   <g id="patch_246">
    <path d="M 541.06984 185.398125 
L 543.051369 185.398125 
L 543.051369 185.387401 
L 541.06984 185.387401 
z
" clip-path="url(#pa4d1c33d24)" style="fill: #4c72b0; fill-opacity: 0.5; stroke: #4c72b0; stroke-linejoin: miter"/>
   </g>
   <g id="patch_247">
    <path d="M 543.051389 185.398125 
L 545.032919 185.398125 
L 545.032919 185.395444 
L 543.051389 185.395444 
z
" clip-path="url(#pa4d1c33d24)" style="fill: #4c72b0; fill-opacity: 0.5; stroke: #4c72b0; stroke-linejoin: miter"/>
   </g>
   <g id="patch_248">
    <path d="M 545.032919 185.398125 
L 547.014468 185.398125 
L 547.014468 185.390082 
L 545.032919 185.390082 
z
" clip-path="url(#pa4d1c33d24)" style="fill: #4c72b0; fill-opacity: 0.5; stroke: #4c72b0; stroke-linejoin: miter"/>
   </g>
   <g id="patch_249">
    <path d="M 547.014448 185.398125 
L 548.995977 185.398125 
L 548.995977 185.387401 
L 547.014448 185.387401 
z
" clip-path="url(#pa4d1c33d24)" style="fill: #4c72b0; fill-opacity: 0.5; stroke: #4c72b0; stroke-linejoin: miter"/>
   </g>
   <g id="patch_250">
    <path d="M 548.995997 185.398125 
L 550.977527 185.398125 
L 550.977527 185.392763 
L 548.995997 185.392763 
z
" clip-path="url(#pa4d1c33d24)" style="fill: #4c72b0; fill-opacity: 0.5; stroke: #4c72b0; stroke-linejoin: miter"/>
   </g>
   <g id="patch_251">
    <path d="M 550.977507 185.398125 
L 552.959036 185.398125 
L 552.959036 185.395444 
L 550.977507 185.395444 
z
" clip-path="url(#pa4d1c33d24)" style="fill: #4c72b0; fill-opacity: 0.5; stroke: #4c72b0; stroke-linejoin: miter"/>
   </g>
   <g id="patch_252">
    <path d="M 552.959056 185.398125 
L 554.940605 185.398125 
L 554.940605 185.395444 
L 552.959056 185.395444 
z
" clip-path="url(#pa4d1c33d24)" style="fill: #4c72b0; fill-opacity: 0.5; stroke: #4c72b0; stroke-linejoin: miter"/>
   </g>
   <g id="patch_253">
    <path d="M 554.940605 185.398125 
L 556.922134 185.398125 
L 556.922134 185.390082 
L 554.940605 185.390082 
z
" clip-path="url(#pa4d1c33d24)" style="fill: #4c72b0; fill-opacity: 0.5; stroke: #4c72b0; stroke-linejoin: miter"/>
   </g>
   <g id="patch_254">
    <path d="M 556.922115 185.398125 
L 558.903644 185.398125 
L 558.903644 185.398125 
L 556.922115 185.398125 
z
" clip-path="url(#pa4d1c33d24)" style="fill: #4c72b0; fill-opacity: 0.5; stroke: #4c72b0; stroke-linejoin: miter"/>
   </g>
   <g id="patch_255">
    <path d="M 558.903664 185.398125 
L 560.885193 185.398125 
L 560.885193 185.390082 
L 558.903664 185.390082 
z
" clip-path="url(#pa4d1c33d24)" style="fill: #4c72b0; fill-opacity: 0.5; stroke: #4c72b0; stroke-linejoin: miter"/>
   </g>
   <g id="patch_256">
    <path d="M 560.885193 185.398125 
L 562.866742 185.398125 
L 562.866742 185.395444 
L 560.885193 185.395444 
z
" clip-path="url(#pa4d1c33d24)" style="fill: #4c72b0; fill-opacity: 0.5; stroke: #4c72b0; stroke-linejoin: miter"/>
   </g>
   <g id="patch_257">
    <path d="M 562.866723 185.398125 
L 564.848252 185.398125 
L 564.848252 185.390082 
L 562.866723 185.390082 
z
" clip-path="url(#pa4d1c33d24)" style="fill: #4c72b0; fill-opacity: 0.5; stroke: #4c72b0; stroke-linejoin: miter"/>
   </g>
   <g id="patch_258">
    <path d="M 564.848272 185.398125 
L 566.829801 185.398125 
L 566.829801 185.395444 
L 564.848272 185.395444 
z
" clip-path="url(#pa4d1c33d24)" style="fill: #4c72b0; fill-opacity: 0.5; stroke: #4c72b0; stroke-linejoin: miter"/>
   </g>
   <g id="patch_259">
    <path d="M 34.193438 185.398125 
L 34.193438 22.318125 
" style="fill: none; stroke: #ffffff; stroke-width: 1.25; stroke-linejoin: miter; stroke-linecap: square"/>
   </g>
   <g id="patch_260">
    <path d="M 592.193437 185.398125 
L 592.193437 22.318125 
" style="fill: none; stroke: #ffffff; stroke-width: 1.25; stroke-linejoin: miter; stroke-linecap: square"/>
   </g>
   <g id="patch_261">
    <path d="M 34.193438 185.398125 
L 592.193438 185.398125 
" style="fill: none; stroke: #ffffff; stroke-width: 1.25; stroke-linejoin: miter; stroke-linecap: square"/>
   </g>
   <g id="patch_262">
    <path d="M 34.193438 22.318125 
L 592.193438 22.318125 
" style="fill: none; stroke: #ffffff; stroke-width: 1.25; stroke-linejoin: miter; stroke-linecap: square"/>
   </g>
   <g id="text_10">
    <!-- Variational dequantization -->
    <g style="fill: #262626" transform="translate(234.39375 16.318125)scale(0.12 -0.12)">
     <defs>
      <path id="DejaVuSans-56" d="M 1831 0 
L 50 4666 
L 709 4666 
L 2188 738 
L 3669 4666 
L 4325 4666 
L 2547 0 
L 1831 0 
z
" transform="scale(0.015625)"/>
      <path id="DejaVuSans-61" d="M 2194 1759 
Q 1497 1759 1228 1600 
Q 959 1441 959 1056 
Q 959 750 1161 570 
Q 1363 391 1709 391 
Q 2188 391 2477 730 
Q 2766 1069 2766 1631 
L 2766 1759 
L 2194 1759 
z
M 3341 1997 
L 3341 0 
L 2766 0 
L 2766 531 
Q 2569 213 2275 61 
Q 1981 -91 1556 -91 
Q 1019 -91 701 211 
Q 384 513 384 1019 
Q 384 1609 779 1909 
Q 1175 2209 1959 2209 
L 2766 2209 
L 2766 2266 
Q 2766 2663 2505 2880 
Q 2244 3097 1772 3097 
Q 1472 3097 1187 3025 
Q 903 2953 641 2809 
L 641 3341 
Q 956 3463 1253 3523 
Q 1550 3584 1831 3584 
Q 2591 3584 2966 3190 
Q 3341 2797 3341 1997 
z
" transform="scale(0.015625)"/>
      <path id="DejaVuSans-72" d="M 2631 2963 
Q 2534 3019 2420 3045 
Q 2306 3072 2169 3072 
Q 1681 3072 1420 2755 
Q 1159 2438 1159 1844 
L 1159 0 
L 581 0 
L 581 3500 
L 1159 3500 
L 1159 2956 
Q 1341 3275 1631 3429 
Q 1922 3584 2338 3584 
Q 2397 3584 2469 3576 
Q 2541 3569 2628 3553 
L 2631 2963 
z
" transform="scale(0.015625)"/>
      <path id="DejaVuSans-69" d="M 603 3500 
L 1178 3500 
L 1178 0 
L 603 0 
L 603 3500 
z
M 603 4863 
L 1178 4863 
L 1178 4134 
L 603 4134 
L 603 4863 
z
" transform="scale(0.015625)"/>
      <path id="DejaVuSans-74" d="M 1172 4494 
L 1172 3500 
L 2356 3500 
L 2356 3053 
L 1172 3053 
L 1172 1153 
Q 1172 725 1289 603 
Q 1406 481 1766 481 
L 2356 481 
L 2356 0 
L 1766 0 
Q 1100 0 847 248 
Q 594 497 594 1153 
L 594 3053 
L 172 3053 
L 172 3500 
L 594 3500 
L 594 4494 
L 1172 4494 
z
" transform="scale(0.015625)"/>
      <path id="DejaVuSans-6f" d="M 1959 3097 
Q 1497 3097 1228 2736 
Q 959 2375 959 1747 
Q 959 1119 1226 758 
Q 1494 397 1959 397 
Q 2419 397 2687 759 
Q 2956 1122 2956 1747 
Q 2956 2369 2687 2733 
Q 2419 3097 1959 3097 
z
M 1959 3584 
Q 2709 3584 3137 3096 
Q 3566 2609 3566 1747 
Q 3566 888 3137 398 
Q 2709 -91 1959 -91 
Q 1206 -91 779 398 
Q 353 888 353 1747 
Q 353 2609 779 3096 
Q 1206 3584 1959 3584 
z
" transform="scale(0.015625)"/>
      <path id="DejaVuSans-6e" d="M 3513 2113 
L 3513 0 
L 2938 0 
L 2938 2094 
Q 2938 2591 2744 2837 
Q 2550 3084 2163 3084 
Q 1697 3084 1428 2787 
Q 1159 2491 1159 1978 
L 1159 0 
L 581 0 
L 581 3500 
L 1159 3500 
L 1159 2956 
Q 1366 3272 1645 3428 
Q 1925 3584 2291 3584 
Q 2894 3584 3203 3211 
Q 3513 2838 3513 2113 
z
" transform="scale(0.015625)"/>
      <path id="DejaVuSans-6c" d="M 603 4863 
L 1178 4863 
L 1178 0 
L 603 0 
L 603 4863 
z
" transform="scale(0.015625)"/>
      <path id="DejaVuSans-20" transform="scale(0.015625)"/>
      <path id="DejaVuSans-64" d="M 2906 2969 
L 2906 4863 
L 3481 4863 
L 3481 0 
L 2906 0 
L 2906 525 
Q 2725 213 2448 61 
Q 2172 -91 1784 -91 
Q 1150 -91 751 415 
Q 353 922 353 1747 
Q 353 2572 751 3078 
Q 1150 3584 1784 3584 
Q 2172 3584 2448 3432 
Q 2725 3281 2906 2969 
z
M 947 1747 
Q 947 1113 1208 752 
Q 1469 391 1925 391 
Q 2381 391 2643 752 
Q 2906 1113 2906 1747 
Q 2906 2381 2643 2742 
Q 2381 3103 1925 3103 
Q 1469 3103 1208 2742 
Q 947 2381 947 1747 
z
" transform="scale(0.015625)"/>
      <path id="DejaVuSans-65" d="M 3597 1894 
L 3597 1613 
L 953 1613 
Q 991 1019 1311 708 
Q 1631 397 2203 397 
Q 2534 397 2845 478 
Q 3156 559 3463 722 
L 3463 178 
Q 3153 47 2828 -22 
Q 2503 -91 2169 -91 
Q 1331 -91 842 396 
Q 353 884 353 1716 
Q 353 2575 817 3079 
Q 1281 3584 2069 3584 
Q 2775 3584 3186 3129 
Q 3597 2675 3597 1894 
z
M 3022 2063 
Q 3016 2534 2758 2815 
Q 2500 3097 2075 3097 
Q 1594 3097 1305 2825 
Q 1016 2553 972 2059 
L 3022 2063 
z
" transform="scale(0.015625)"/>
      <path id="DejaVuSans-71" d="M 947 1747 
Q 947 1113 1208 752 
Q 1469 391 1925 391 
Q 2381 391 2643 752 
Q 2906 1113 2906 1747 
Q 2906 2381 2643 2742 
Q 2381 3103 1925 3103 
Q 1469 3103 1208 2742 
Q 947 2381 947 1747 
z
M 2906 525 
Q 2725 213 2448 61 
Q 2172 -91 1784 -91 
Q 1150 -91 751 415 
Q 353 922 353 1747 
Q 353 2572 751 3078 
Q 1150 3584 1784 3584 
Q 2172 3584 2448 3432 
Q 2725 3281 2906 2969 
L 2906 3500 
L 3481 3500 
L 3481 -1331 
L 2906 -1331 
L 2906 525 
z
" transform="scale(0.015625)"/>
      <path id="DejaVuSans-75" d="M 544 1381 
L 544 3500 
L 1119 3500 
L 1119 1403 
Q 1119 906 1312 657 
Q 1506 409 1894 409 
Q 2359 409 2629 706 
Q 2900 1003 2900 1516 
L 2900 3500 
L 3475 3500 
L 3475 0 
L 2900 0 
L 2900 538 
Q 2691 219 2414 64 
Q 2138 -91 1772 -91 
Q 1169 -91 856 284 
Q 544 659 544 1381 
z
M 1991 3584 
L 1991 3584 
z
" transform="scale(0.015625)"/>
      <path id="DejaVuSans-7a" d="M 353 3500 
L 3084 3500 
L 3084 2975 
L 922 459 
L 3084 459 
L 3084 0 
L 275 0 
L 275 525 
L 2438 3041 
L 353 3041 
L 353 3500 
z
" transform="scale(0.015625)"/>
     </defs>
     <use xlink:href="#DejaVuSans-56"/>
     <use xlink:href="#DejaVuSans-61" x="60.658203"/>
     <use xlink:href="#DejaVuSans-72" x="121.9375"/>
     <use xlink:href="#DejaVuSans-69" x="163.050781"/>
     <use xlink:href="#DejaVuSans-61" x="190.833984"/>
     <use xlink:href="#DejaVuSans-74" x="252.113281"/>
     <use xlink:href="#DejaVuSans-69" x="291.322266"/>
     <use xlink:href="#DejaVuSans-6f" x="319.105469"/>
     <use xlink:href="#DejaVuSans-6e" x="380.287109"/>
     <use xlink:href="#DejaVuSans-61" x="443.666016"/>
     <use xlink:href="#DejaVuSans-6c" x="504.945312"/>
     <use xlink:href="#DejaVuSans-20" x="532.728516"/>
     <use xlink:href="#DejaVuSans-64" x="564.515625"/>
     <use xlink:href="#DejaVuSans-65" x="627.992188"/>
     <use xlink:href="#DejaVuSans-71" x="689.515625"/>
     <use xlink:href="#DejaVuSans-75" x="752.992188"/>
     <use xlink:href="#DejaVuSans-61" x="816.371094"/>
     <use xlink:href="#DejaVuSans-6e" x="877.650391"/>
     <use xlink:href="#DejaVuSans-74" x="941.029297"/>
     <use xlink:href="#DejaVuSans-69" x="980.238281"/>
     <use xlink:href="#DejaVuSans-7a" x="1008.021484"/>
     <use xlink:href="#DejaVuSans-61" x="1060.511719"/>
     <use xlink:href="#DejaVuSans-74" x="1121.791016"/>
     <use xlink:href="#DejaVuSans-69" x="1161"/>
     <use xlink:href="#DejaVuSans-6f" x="1188.783203"/>
     <use xlink:href="#DejaVuSans-6e" x="1249.964844"/>
    </g>
   </g>
  </g>
 </g>
 <defs>
  <clipPath id="pa4d1c33d24">
   <rect x="34.193438" y="22.318125" width="558" height="163.08"/>
  </clipPath>
 </defs>
</svg>
