<?xml version="1.0" encoding="utf-8" standalone="no"?>
<!DOCTYPE svg PUBLIC "-//W3C//DTD SVG 1.1//EN"
  "http://www.w3.org/Graphics/SVG/1.1/DTD/svg11.dtd">
<svg xmlns:xlink="http://www.w3.org/1999/xlink" width="599.393438pt" height="212.744063pt" viewBox="0 0 599.393438 212.744063" xmlns="http://www.w3.org/2000/svg" version="1.1">
 <metadata>
  <rdf:RDF xmlns:dc="http://purl.org/dc/elements/1.1/" xmlns:cc="http://creativecommons.org/ns#" xmlns:rdf="http://www.w3.org/1999/02/22-rdf-syntax-ns#">
   <cc:Work>
    <dc:type rdf:resource="http://purl.org/dc/dcmitype/StillImage"/>
    <dc:date>2022-05-03T03:15:53.393133</dc:date>
    <dc:format>image/svg+xml</dc:format>
    <dc:creator>
     <cc:Agent>
      <dc:title>Matplotlib v3.5.1, https://matplotlib.org/</dc:title>
     </cc:Agent>
    </dc:creator>
   </cc:Work>
  </rdf:RDF>
 </metadata>
 <defs>
  <style type="text/css">*{stroke-linejoin: round; stroke-linecap: butt}</style>
 </defs>
 <g id="figure_1">
  <g id="patch_1">
   <path d="M 0 212.744063 
L 599.393438 212.744063 
L 599.393438 0 
L 0 0 
z
" style="fill: #ffffff"/>
  </g>
  <g id="axes_1">
   <g id="patch_2">
    <path d="M 34.193438 185.398125 
L 592.193437 185.398125 
L 592.193437 22.318125 
L 34.193438 22.318125 
z
" style="fill: #eaeaf2"/>
   </g>
   <g id="matplotlib.axis_1">
    <g id="xtick_1">
     <g id="line2d_1">
      <path d="M 105.551498 185.398125 
L 105.551498 22.318125 
" clip-path="url(#p1ca4505130)" style="fill: none; stroke: #ffffff; stroke-linecap: round"/>
     </g>
     <g id="text_1">
      <!-- −10 -->
      <g style="fill: #262626" transform="translate(93.94392 203.256406)scale(0.11 -0.11)">
       <defs>
        <path id="DejaVuSans-2212" d="M 678 2272 
L 4684 2272 
L 4684 1741 
L 678 1741 
L 678 2272 
z
" transform="scale(0.015625)"/>
        <path id="DejaVuSans-31" d="M 794 531 
L 1825 531 
L 1825 4091 
L 703 3866 
L 703 4441 
L 1819 4666 
L 2450 4666 
L 2450 531 
L 3481 531 
L 3481 0 
L 794 0 
L 794 531 
z
" transform="scale(0.015625)"/>
        <path id="DejaVuSans-30" d="M 2034 4250 
Q 1547 4250 1301 3770 
Q 1056 3291 1056 2328 
Q 1056 1369 1301 889 
Q 1547 409 2034 409 
Q 2525 409 2770 889 
Q 3016 1369 3016 2328 
Q 3016 3291 2770 3770 
Q 2525 4250 2034 4250 
z
M 2034 4750 
Q 2819 4750 3233 4129 
Q 3647 3509 3647 2328 
Q 3647 1150 3233 529 
Q 2819 -91 2034 -91 
Q 1250 -91 836 529 
Q 422 1150 422 2328 
Q 422 3509 836 4129 
Q 1250 4750 2034 4750 
z
" transform="scale(0.015625)"/>
       </defs>
       <use xlink:href="#DejaVuSans-2212"/>
       <use xlink:href="#DejaVuSans-31" x="83.789062"/>
       <use xlink:href="#DejaVuSans-30" x="147.412109"/>
      </g>
     </g>
    </g>
    <g id="xtick_2">
     <g id="line2d_2">
      <path d="M 209.79675 185.398125 
L 209.79675 22.318125 
" clip-path="url(#p1ca4505130)" style="fill: none; stroke: #ffffff; stroke-linecap: round"/>
     </g>
     <g id="text_2">
      <!-- −5 -->
      <g style="fill: #262626" transform="translate(201.688547 203.256406)scale(0.11 -0.11)">
       <defs>
        <path id="DejaVuSans-35" d="M 691 4666 
L 3169 4666 
L 3169 4134 
L 1269 4134 
L 1269 2991 
Q 1406 3038 1543 3061 
Q 1681 3084 1819 3084 
Q 2600 3084 3056 2656 
Q 3513 2228 3513 1497 
Q 3513 744 3044 326 
Q 2575 -91 1722 -91 
Q 1428 -91 1123 -41 
Q 819 9 494 109 
L 494 744 
Q 775 591 1075 516 
Q 1375 441 1709 441 
Q 2250 441 2565 725 
Q 2881 1009 2881 1497 
Q 2881 1984 2565 2268 
Q 2250 2553 1709 2553 
Q 1456 2553 1204 2497 
Q 953 2441 691 2322 
L 691 4666 
z
" transform="scale(0.015625)"/>
       </defs>
       <use xlink:href="#DejaVuSans-2212"/>
       <use xlink:href="#DejaVuSans-35" x="83.789062"/>
      </g>
     </g>
    </g>
    <g id="xtick_3">
     <g id="line2d_3">
      <path d="M 314.042003 185.398125 
L 314.042003 22.318125 
" clip-path="url(#p1ca4505130)" style="fill: none; stroke: #ffffff; stroke-linecap: round"/>
     </g>
     <g id="text_3">
      <!-- 0 -->
      <g style="fill: #262626" transform="translate(310.542628 203.256406)scale(0.11 -0.11)">
       <use xlink:href="#DejaVuSans-30"/>
      </g>
     </g>
    </g>
    <g id="xtick_4">
     <g id="line2d_4">
      <path d="M 418.287255 185.398125 
L 418.287255 22.318125 
" clip-path="url(#p1ca4505130)" style="fill: none; stroke: #ffffff; stroke-linecap: round"/>
     </g>
     <g id="text_4">
      <!-- 5 -->
      <g style="fill: #262626" transform="translate(414.78788 203.256406)scale(0.11 -0.11)">
       <use xlink:href="#DejaVuSans-35"/>
      </g>
     </g>
    </g>
    <g id="xtick_5">
     <g id="line2d_5">
      <path d="M 522.532508 185.398125 
L 522.532508 22.318125 
" clip-path="url(#p1ca4505130)" style="fill: none; stroke: #ffffff; stroke-linecap: round"/>
     </g>
     <g id="text_5">
      <!-- 10 -->
      <g style="fill: #262626" transform="translate(515.533758 203.256406)scale(0.11 -0.11)">
       <use xlink:href="#DejaVuSans-31"/>
       <use xlink:href="#DejaVuSans-30" x="63.623047"/>
      </g>
     </g>
    </g>
   </g>
   <g id="matplotlib.axis_2">
    <g id="ytick_1">
     <g id="line2d_6">
      <path d="M 34.193438 185.398125 
L 592.193437 185.398125 
" clip-path="url(#p1ca4505130)" style="fill: none; stroke: #ffffff; stroke-linecap: round"/>
     </g>
     <g id="text_6">
      <!-- 0.0 -->
      <g style="fill: #262626" transform="translate(7.2 189.577266)scale(0.11 -0.11)">
       <defs>
        <path id="DejaVuSans-2e" d="M 684 794 
L 1344 794 
L 1344 0 
L 684 0 
L 684 794 
z
" transform="scale(0.015625)"/>
       </defs>
       <use xlink:href="#DejaVuSans-30"/>
       <use xlink:href="#DejaVuSans-2e" x="63.623047"/>
       <use xlink:href="#DejaVuSans-30" x="95.410156"/>
      </g>
     </g>
    </g>
    <g id="ytick_2">
     <g id="line2d_7">
      <path d="M 34.193438 144.672668 
L 592.193437 144.672668 
" clip-path="url(#p1ca4505130)" style="fill: none; stroke: #ffffff; stroke-linecap: round"/>
     </g>
     <g id="text_7">
      <!-- 0.2 -->
      <g style="fill: #262626" transform="translate(7.2 148.851808)scale(0.11 -0.11)">
       <defs>
        <path id="DejaVuSans-32" d="M 1228 531 
L 3431 531 
L 3431 0 
L 469 0 
L 469 531 
Q 828 903 1448 1529 
Q 2069 2156 2228 2338 
Q 2531 2678 2651 2914 
Q 2772 3150 2772 3378 
Q 2772 3750 2511 3984 
Q 2250 4219 1831 4219 
Q 1534 4219 1204 4116 
Q 875 4013 500 3803 
L 500 4441 
Q 881 4594 1212 4672 
Q 1544 4750 1819 4750 
Q 2544 4750 2975 4387 
Q 3406 4025 3406 3419 
Q 3406 3131 3298 2873 
Q 3191 2616 2906 2266 
Q 2828 2175 2409 1742 
Q 1991 1309 1228 531 
z
" transform="scale(0.015625)"/>
       </defs>
       <use xlink:href="#DejaVuSans-30"/>
       <use xlink:href="#DejaVuSans-2e" x="63.623047"/>
       <use xlink:href="#DejaVuSans-32" x="95.410156"/>
      </g>
     </g>
    </g>
    <g id="ytick_3">
     <g id="line2d_8">
      <path d="M 34.193438 103.94721 
L 592.193437 103.94721 
" clip-path="url(#p1ca4505130)" style="fill: none; stroke: #ffffff; stroke-linecap: round"/>
     </g>
     <g id="text_8">
      <!-- 0.4 -->
      <g style="fill: #262626" transform="translate(7.2 108.126351)scale(0.11 -0.11)">
       <defs>
        <path id="DejaVuSans-34" d="M 2419 4116 
L 825 1625 
L 2419 1625 
L 2419 4116 
z
M 2253 4666 
L 3047 4666 
L 3047 1625 
L 3713 1625 
L 3713 1100 
L 3047 1100 
L 3047 0 
L 2419 0 
L 2419 1100 
L 313 1100 
L 313 1709 
L 2253 4666 
z
" transform="scale(0.015625)"/>
       </defs>
       <use xlink:href="#DejaVuSans-30"/>
       <use xlink:href="#DejaVuSans-2e" x="63.623047"/>
       <use xlink:href="#DejaVuSans-34" x="95.410156"/>
      </g>
     </g>
    </g>
    <g id="ytick_4">
     <g id="line2d_9">
      <path d="M 34.193438 63.221753 
L 592.193437 63.221753 
" clip-path="url(#p1ca4505130)" style="fill: none; stroke: #ffffff; stroke-linecap: round"/>
     </g>
     <g id="text_9">
      <!-- 0.6 -->
      <g style="fill: #262626" transform="translate(7.2 67.400894)scale(0.11 -0.11)">
       <defs>
        <path id="DejaVuSans-36" d="M 2113 2584 
Q 1688 2584 1439 2293 
Q 1191 2003 1191 1497 
Q 1191 994 1439 701 
Q 1688 409 2113 409 
Q 2538 409 2786 701 
Q 3034 994 3034 1497 
Q 3034 2003 2786 2293 
Q 2538 2584 2113 2584 
z
M 3366 4563 
L 3366 3988 
Q 3128 4100 2886 4159 
Q 2644 4219 2406 4219 
Q 1781 4219 1451 3797 
Q 1122 3375 1075 2522 
Q 1259 2794 1537 2939 
Q 1816 3084 2150 3084 
Q 2853 3084 3261 2657 
Q 3669 2231 3669 1497 
Q 3669 778 3244 343 
Q 2819 -91 2113 -91 
Q 1303 -91 875 529 
Q 447 1150 447 2328 
Q 447 3434 972 4092 
Q 1497 4750 2381 4750 
Q 2619 4750 2861 4703 
Q 3103 4656 3366 4563 
z
" transform="scale(0.015625)"/>
       </defs>
       <use xlink:href="#DejaVuSans-30"/>
       <use xlink:href="#DejaVuSans-2e" x="63.623047"/>
       <use xlink:href="#DejaVuSans-36" x="95.410156"/>
      </g>
     </g>
    </g>
    <g id="ytick_5">
     <g id="line2d_10">
      <path d="M 34.193438 22.496296 
L 592.193437 22.496296 
" clip-path="url(#p1ca4505130)" style="fill: none; stroke: #ffffff; stroke-linecap: round"/>
     </g>
     <g id="text_10">
      <!-- 0.8 -->
      <g style="fill: #262626" transform="translate(7.2 26.675436)scale(0.11 -0.11)">
       <defs>
        <path id="DejaVuSans-38" d="M 2034 2216 
Q 1584 2216 1326 1975 
Q 1069 1734 1069 1313 
Q 1069 891 1326 650 
Q 1584 409 2034 409 
Q 2484 409 2743 651 
Q 3003 894 3003 1313 
Q 3003 1734 2745 1975 
Q 2488 2216 2034 2216 
z
M 1403 2484 
Q 997 2584 770 2862 
Q 544 3141 544 3541 
Q 544 4100 942 4425 
Q 1341 4750 2034 4750 
Q 2731 4750 3128 4425 
Q 3525 4100 3525 3541 
Q 3525 3141 3298 2862 
Q 3072 2584 2669 2484 
Q 3125 2378 3379 2068 
Q 3634 1759 3634 1313 
Q 3634 634 3220 271 
Q 2806 -91 2034 -91 
Q 1263 -91 848 271 
Q 434 634 434 1313 
Q 434 1759 690 2068 
Q 947 2378 1403 2484 
z
M 1172 3481 
Q 1172 3119 1398 2916 
Q 1625 2713 2034 2713 
Q 2441 2713 2670 2916 
Q 2900 3119 2900 3481 
Q 2900 3844 2670 4047 
Q 2441 4250 2034 4250 
Q 1625 4250 1398 4047 
Q 1172 3844 1172 3481 
z
" transform="scale(0.015625)"/>
       </defs>
       <use xlink:href="#DejaVuSans-30"/>
       <use xlink:href="#DejaVuSans-2e" x="63.623047"/>
       <use xlink:href="#DejaVuSans-38" x="95.410156"/>
      </g>
     </g>
    </g>
   </g>
   <g id="patch_3">
    <path d="M 59.557074 185.398125 
L 61.538614 185.398125 
L 61.538614 185.196636 
L 59.557074 185.196636 
z
" clip-path="url(#p1ca4505130)" style="fill: #4c72b0; fill-opacity: 0.5; stroke: #4c72b0; stroke-linejoin: miter"/>
   </g>
   <g id="patch_4">
    <path d="M 61.538614 185.398125 
L 63.520134 185.398125 
L 63.520134 185.143259 
L 61.538614 185.143259 
z
" clip-path="url(#p1ca4505130)" style="fill: #4c72b0; fill-opacity: 0.5; stroke: #4c72b0; stroke-linejoin: miter"/>
   </g>
   <g id="patch_5">
    <path d="M 63.520115 185.398125 
L 65.501655 185.398125 
L 65.501655 185.131253 
L 63.520115 185.131253 
z
" clip-path="url(#p1ca4505130)" style="fill: #4c72b0; fill-opacity: 0.5; stroke: #4c72b0; stroke-linejoin: miter"/>
   </g>
   <g id="patch_6">
    <path d="M 65.501675 185.398125 
L 67.483215 185.398125 
L 67.483215 185.11524 
L 65.501675 185.11524 
z
" clip-path="url(#p1ca4505130)" style="fill: #4c72b0; fill-opacity: 0.5; stroke: #4c72b0; stroke-linejoin: miter"/>
   </g>
   <g id="patch_7">
    <path d="M 67.483215 185.398125 
L 69.464735 185.398125 
L 69.464735 185.065866 
L 67.483215 185.065866 
z
" clip-path="url(#p1ca4505130)" style="fill: #4c72b0; fill-opacity: 0.5; stroke: #4c72b0; stroke-linejoin: miter"/>
   </g>
   <g id="patch_8">
    <path d="M 69.464715 185.398125 
L 71.446256 185.398125 
L 71.446256 185.048522 
L 69.464715 185.048522 
z
" clip-path="url(#p1ca4505130)" style="fill: #4c72b0; fill-opacity: 0.5; stroke: #4c72b0; stroke-linejoin: miter"/>
   </g>
   <g id="patch_9">
    <path d="M 71.446275 185.398125 
L 73.427816 185.398125 
L 73.427816 185.039182 
L 71.446275 185.039182 
z
" clip-path="url(#p1ca4505130)" style="fill: #4c72b0; fill-opacity: 0.5; stroke: #4c72b0; stroke-linejoin: miter"/>
   </g>
   <g id="patch_10">
    <path d="M 73.427796 185.398125 
L 75.409336 185.398125 
L 75.409336 184.997817 
L 73.427796 184.997817 
z
" clip-path="url(#p1ca4505130)" style="fill: #4c72b0; fill-opacity: 0.5; stroke: #4c72b0; stroke-linejoin: miter"/>
   </g>
   <g id="patch_11">
    <path d="M 75.409356 185.398125 
L 77.390876 185.398125 
L 77.390876 184.905741 
L 75.409356 184.905741 
z
" clip-path="url(#p1ca4505130)" style="fill: #4c72b0; fill-opacity: 0.5; stroke: #4c72b0; stroke-linejoin: miter"/>
   </g>
   <g id="patch_12">
    <path d="M 77.390876 185.398125 
L 79.372416 185.398125 
L 79.372416 184.827018 
L 77.390876 184.827018 
z
" clip-path="url(#p1ca4505130)" style="fill: #4c72b0; fill-opacity: 0.5; stroke: #4c72b0; stroke-linejoin: miter"/>
   </g>
   <g id="patch_13">
    <path d="M 79.372397 185.398125 
L 81.353937 185.398125 
L 81.353937 184.849703 
L 79.372397 184.849703 
z
" clip-path="url(#p1ca4505130)" style="fill: #4c72b0; fill-opacity: 0.5; stroke: #4c72b0; stroke-linejoin: miter"/>
   </g>
   <g id="patch_14">
    <path d="M 81.353957 185.398125 
L 83.335477 185.398125 
L 83.335477 184.777641 
L 81.353957 184.777641 
z
" clip-path="url(#p1ca4505130)" style="fill: #4c72b0; fill-opacity: 0.5; stroke: #4c72b0; stroke-linejoin: miter"/>
   </g>
   <g id="patch_15">
    <path d="M 83.335477 185.398125 
L 85.317017 185.398125 
L 85.317017 184.637539 
L 83.335477 184.637539 
z
" clip-path="url(#p1ca4505130)" style="fill: #4c72b0; fill-opacity: 0.5; stroke: #4c72b0; stroke-linejoin: miter"/>
   </g>
   <g id="patch_16">
    <path d="M 85.316997 185.398125 
L 87.298538 185.398125 
L 87.298538 184.597508 
L 85.316997 184.597508 
z
" clip-path="url(#p1ca4505130)" style="fill: #4c72b0; fill-opacity: 0.5; stroke: #4c72b0; stroke-linejoin: miter"/>
   </g>
   <g id="patch_17">
    <path d="M 87.298558 185.398125 
L 89.280078 185.398125 
L 89.280078 184.633528 
L 87.298558 184.633528 
z
" clip-path="url(#p1ca4505130)" style="fill: #4c72b0; fill-opacity: 0.5; stroke: #4c72b0; stroke-linejoin: miter"/>
   </g>
   <g id="patch_18">
    <path d="M 89.280078 185.398125 
L 91.261618 185.398125 
L 91.261618 184.492094 
L 89.280078 184.492094 
z
" clip-path="url(#p1ca4505130)" style="fill: #4c72b0; fill-opacity: 0.5; stroke: #4c72b0; stroke-linejoin: miter"/>
   </g>
   <g id="patch_19">
    <path d="M 91.261598 185.398125 
L 93.243138 185.398125 
L 93.243138 184.408029 
L 91.261598 184.408029 
z
" clip-path="url(#p1ca4505130)" style="fill: #4c72b0; fill-opacity: 0.5; stroke: #4c72b0; stroke-linejoin: miter"/>
   </g>
   <g id="patch_20">
    <path d="M 93.243158 185.398125 
L 95.224679 185.398125 
L 95.224679 184.313279 
L 93.243158 184.313279 
z
" clip-path="url(#p1ca4505130)" style="fill: #4c72b0; fill-opacity: 0.5; stroke: #4c72b0; stroke-linejoin: miter"/>
   </g>
   <g id="patch_21">
    <path d="M 95.224679 185.398125 
L 97.206219 185.398125 
L 97.206219 184.185191 
L 95.224679 184.185191 
z
" clip-path="url(#p1ca4505130)" style="fill: #4c72b0; fill-opacity: 0.5; stroke: #4c72b0; stroke-linejoin: miter"/>
   </g>
   <g id="patch_22">
    <path d="M 97.206199 185.398125 
L 99.187739 185.398125 
L 99.187739 184.070436 
L 97.206199 184.070436 
z
" clip-path="url(#p1ca4505130)" style="fill: #4c72b0; fill-opacity: 0.5; stroke: #4c72b0; stroke-linejoin: miter"/>
   </g>
   <g id="patch_23">
    <path d="M 99.187759 185.398125 
L 101.169299 185.398125 
L 101.169299 183.839591 
L 99.187759 183.839591 
z
" clip-path="url(#p1ca4505130)" style="fill: #4c72b0; fill-opacity: 0.5; stroke: #4c72b0; stroke-linejoin: miter"/>
   </g>
   <g id="patch_24">
    <path d="M 101.169299 185.398125 
L 103.15082 185.398125 
L 103.15082 183.674113 
L 101.169299 183.674113 
z
" clip-path="url(#p1ca4505130)" style="fill: #4c72b0; fill-opacity: 0.5; stroke: #4c72b0; stroke-linejoin: miter"/>
   </g>
   <g id="patch_25">
    <path d="M 103.1508 185.398125 
L 105.13234 185.398125 
L 105.13234 183.526016 
L 103.1508 183.526016 
z
" clip-path="url(#p1ca4505130)" style="fill: #4c72b0; fill-opacity: 0.5; stroke: #4c72b0; stroke-linejoin: miter"/>
   </g>
   <g id="patch_26">
    <path d="M 105.13236 185.398125 
L 107.1139 185.398125 
L 107.1139 183.385909 
L 105.13236 183.385909 
z
" clip-path="url(#p1ca4505130)" style="fill: #4c72b0; fill-opacity: 0.5; stroke: #4c72b0; stroke-linejoin: miter"/>
   </g>
   <g id="patch_27">
    <path d="M 107.1139 185.398125 
L 109.09542 185.398125 
L 109.09542 183.239107 
L 107.1139 183.239107 
z
" clip-path="url(#p1ca4505130)" style="fill: #4c72b0; fill-opacity: 0.5; stroke: #4c72b0; stroke-linejoin: miter"/>
   </g>
   <g id="patch_28">
    <path d="M 109.095401 185.398125 
L 111.076941 185.398125 
L 111.076941 183.00695 
L 109.095401 183.00695 
z
" clip-path="url(#p1ca4505130)" style="fill: #4c72b0; fill-opacity: 0.5; stroke: #4c72b0; stroke-linejoin: miter"/>
   </g>
   <g id="patch_29">
    <path d="M 111.076961 185.398125 
L 113.058501 185.398125 
L 113.058501 182.77744 
L 111.076961 182.77744 
z
" clip-path="url(#p1ca4505130)" style="fill: #4c72b0; fill-opacity: 0.5; stroke: #4c72b0; stroke-linejoin: miter"/>
   </g>
   <g id="patch_30">
    <path d="M 113.058501 185.398125 
L 115.040021 185.398125 
L 115.040021 182.549236 
L 113.058501 182.549236 
z
" clip-path="url(#p1ca4505130)" style="fill: #4c72b0; fill-opacity: 0.5; stroke: #4c72b0; stroke-linejoin: miter"/>
   </g>
   <g id="patch_31">
    <path d="M 115.040001 185.398125 
L 117.021542 185.398125 
L 117.021542 182.31842 
L 115.040001 182.31842 
z
" clip-path="url(#p1ca4505130)" style="fill: #4c72b0; fill-opacity: 0.5; stroke: #4c72b0; stroke-linejoin: miter"/>
   </g>
   <g id="patch_32">
    <path d="M 117.021561 185.398125 
L 119.003102 185.398125 
L 119.003102 182.000842 
L 117.021561 182.000842 
z
" clip-path="url(#p1ca4505130)" style="fill: #4c72b0; fill-opacity: 0.5; stroke: #4c72b0; stroke-linejoin: miter"/>
   </g>
   <g id="patch_33">
    <path d="M 119.003102 185.398125 
L 120.984622 185.398125 
L 120.984622 181.517764 
L 119.003102 181.517764 
z
" clip-path="url(#p1ca4505130)" style="fill: #4c72b0; fill-opacity: 0.5; stroke: #4c72b0; stroke-linejoin: miter"/>
   </g>
   <g id="patch_34">
    <path d="M 120.984602 185.398125 
L 122.966142 185.398125 
L 122.966142 181.108154 
L 120.984602 181.108154 
z
" clip-path="url(#p1ca4505130)" style="fill: #4c72b0; fill-opacity: 0.5; stroke: #4c72b0; stroke-linejoin: miter"/>
   </g>
   <g id="patch_35">
    <path d="M 122.966162 185.398125 
L 124.947703 185.398125 
L 124.947703 180.771895 
L 122.966162 180.771895 
z
" clip-path="url(#p1ca4505130)" style="fill: #4c72b0; fill-opacity: 0.5; stroke: #4c72b0; stroke-linejoin: miter"/>
   </g>
   <g id="patch_36">
    <path d="M 124.947683 185.398125 
L 126.929223 185.398125 
L 126.929223 180.35424 
L 124.947683 180.35424 
z
" clip-path="url(#p1ca4505130)" style="fill: #4c72b0; fill-opacity: 0.5; stroke: #4c72b0; stroke-linejoin: miter"/>
   </g>
   <g id="patch_37">
    <path d="M 126.929243 185.398125 
L 128.910763 185.398125 
L 128.910763 179.84179 
L 126.929243 179.84179 
z
" clip-path="url(#p1ca4505130)" style="fill: #4c72b0; fill-opacity: 0.5; stroke: #4c72b0; stroke-linejoin: miter"/>
   </g>
   <g id="patch_38">
    <path d="M 128.910763 185.398125 
L 130.892303 185.398125 
L 130.892303 179.182671 
L 128.910763 179.182671 
z
" clip-path="url(#p1ca4505130)" style="fill: #4c72b0; fill-opacity: 0.5; stroke: #4c72b0; stroke-linejoin: miter"/>
   </g>
   <g id="patch_39">
    <path d="M 130.892283 185.398125 
L 132.873824 185.398125 
L 132.873824 178.67428 
L 130.892283 178.67428 
z
" clip-path="url(#p1ca4505130)" style="fill: #4c72b0; fill-opacity: 0.5; stroke: #4c72b0; stroke-linejoin: miter"/>
   </g>
   <g id="patch_40">
    <path d="M 132.873844 185.398125 
L 134.855364 185.398125 
L 134.855364 177.900275 
L 132.873844 177.900275 
z
" clip-path="url(#p1ca4505130)" style="fill: #4c72b0; fill-opacity: 0.5; stroke: #4c72b0; stroke-linejoin: miter"/>
   </g>
   <g id="patch_41">
    <path d="M 134.855364 185.398125 
L 136.836904 185.398125 
L 136.836904 177.261191 
L 134.855364 177.261191 
z
" clip-path="url(#p1ca4505130)" style="fill: #4c72b0; fill-opacity: 0.5; stroke: #4c72b0; stroke-linejoin: miter"/>
   </g>
   <g id="patch_42">
    <path d="M 136.836884 185.398125 
L 138.818424 185.398125 
L 138.818424 176.714103 
L 136.836884 176.714103 
z
" clip-path="url(#p1ca4505130)" style="fill: #4c72b0; fill-opacity: 0.5; stroke: #4c72b0; stroke-linejoin: miter"/>
   </g>
   <g id="patch_43">
    <path d="M 138.818444 185.398125 
L 140.799965 185.398125 
L 140.799965 175.431683 
L 138.818444 175.431683 
z
" clip-path="url(#p1ca4505130)" style="fill: #4c72b0; fill-opacity: 0.5; stroke: #4c72b0; stroke-linejoin: miter"/>
   </g>
   <g id="patch_44">
    <path d="M 140.799965 185.398125 
L 142.781505 185.398125 
L 142.781505 174.465705 
L 140.799965 174.465705 
z
" clip-path="url(#p1ca4505130)" style="fill: #4c72b0; fill-opacity: 0.5; stroke: #4c72b0; stroke-linejoin: miter"/>
   </g>
   <g id="patch_45">
    <path d="M 142.781485 185.398125 
L 144.763025 185.398125 
L 144.763025 173.282127 
L 142.781485 173.282127 
z
" clip-path="url(#p1ca4505130)" style="fill: #4c72b0; fill-opacity: 0.5; stroke: #4c72b0; stroke-linejoin: miter"/>
   </g>
   <g id="patch_46">
    <path d="M 144.763045 185.398125 
L 146.744565 185.398125 
L 146.744565 172.139781 
L 144.763045 172.139781 
z
" clip-path="url(#p1ca4505130)" style="fill: #4c72b0; fill-opacity: 0.5; stroke: #4c72b0; stroke-linejoin: miter"/>
   </g>
   <g id="patch_47">
    <path d="M 146.744565 185.398125 
L 148.726106 185.398125 
L 148.726106 171.184511 
L 146.744565 171.184511 
z
" clip-path="url(#p1ca4505130)" style="fill: #4c72b0; fill-opacity: 0.5; stroke: #4c72b0; stroke-linejoin: miter"/>
   </g>
   <g id="patch_48">
    <path d="M 148.726106 185.398125 
L 150.707646 185.398125 
L 150.707646 169.637987 
L 148.726106 169.637987 
z
" clip-path="url(#p1ca4505130)" style="fill: #4c72b0; fill-opacity: 0.5; stroke: #4c72b0; stroke-linejoin: miter"/>
   </g>
   <g id="patch_49">
    <path d="M 150.707646 185.398125 
L 152.689166 185.398125 
L 152.689166 168.103385 
L 150.707646 168.103385 
z
" clip-path="url(#p1ca4505130)" style="fill: #4c72b0; fill-opacity: 0.5; stroke: #4c72b0; stroke-linejoin: miter"/>
   </g>
   <g id="patch_50">
    <path d="M 152.689186 185.398125 
L 154.670706 185.398125 
L 154.670706 166.304657 
L 152.689186 166.304657 
z
" clip-path="url(#p1ca4505130)" style="fill: #4c72b0; fill-opacity: 0.5; stroke: #4c72b0; stroke-linejoin: miter"/>
   </g>
   <g id="patch_51">
    <path d="M 154.670706 185.398125 
L 156.652247 185.398125 
L 156.652247 164.164438 
L 154.670706 164.164438 
z
" clip-path="url(#p1ca4505130)" style="fill: #4c72b0; fill-opacity: 0.5; stroke: #4c72b0; stroke-linejoin: miter"/>
   </g>
   <g id="patch_52">
    <path d="M 156.652247 185.398125 
L 158.633767 185.398125 
L 158.633767 161.922594 
L 156.652247 161.922594 
z
" clip-path="url(#p1ca4505130)" style="fill: #4c72b0; fill-opacity: 0.5; stroke: #4c72b0; stroke-linejoin: miter"/>
   </g>
   <g id="patch_53">
    <path d="M 158.633777 185.398125 
L 160.615317 185.398125 
L 160.615317 159.627611 
L 158.633777 159.627611 
z
" clip-path="url(#p1ca4505130)" style="fill: #4c72b0; fill-opacity: 0.5; stroke: #4c72b0; stroke-linejoin: miter"/>
   </g>
   <g id="patch_54">
    <path d="M 160.615327 185.398125 
L 162.596848 185.398125 
L 162.596848 157.088179 
L 160.615327 157.088179 
z
" clip-path="url(#p1ca4505130)" style="fill: #4c72b0; fill-opacity: 0.5; stroke: #4c72b0; stroke-linejoin: miter"/>
   </g>
   <g id="patch_55">
    <path d="M 162.596848 185.398125 
L 164.578368 185.398125 
L 164.578368 154.380747 
L 162.596848 154.380747 
z
" clip-path="url(#p1ca4505130)" style="fill: #4c72b0; fill-opacity: 0.5; stroke: #4c72b0; stroke-linejoin: miter"/>
   </g>
   <g id="patch_56">
    <path d="M 164.578378 185.398125 
L 166.559918 185.398125 
L 166.559918 151.155752 
L 164.578378 151.155752 
z
" clip-path="url(#p1ca4505130)" style="fill: #4c72b0; fill-opacity: 0.5; stroke: #4c72b0; stroke-linejoin: miter"/>
   </g>
   <g id="patch_57">
    <path d="M 166.559928 185.398125 
L 168.541448 185.398125 
L 168.541448 147.946426 
L 166.559928 147.946426 
z
" clip-path="url(#p1ca4505130)" style="fill: #4c72b0; fill-opacity: 0.5; stroke: #4c72b0; stroke-linejoin: miter"/>
   </g>
   <g id="patch_58">
    <path d="M 168.541448 185.398125 
L 170.522969 185.398125 
L 170.522969 144.094107 
L 168.541448 144.094107 
z
" clip-path="url(#p1ca4505130)" style="fill: #4c72b0; fill-opacity: 0.5; stroke: #4c72b0; stroke-linejoin: miter"/>
   </g>
   <g id="patch_59">
    <path d="M 170.522979 185.398125 
L 172.504519 185.398125 
L 172.504519 139.94712 
L 170.522979 139.94712 
z
" clip-path="url(#p1ca4505130)" style="fill: #4c72b0; fill-opacity: 0.5; stroke: #4c72b0; stroke-linejoin: miter"/>
   </g>
   <g id="patch_60">
    <path d="M 172.504529 185.398125 
L 174.486049 185.398125 
L 174.486049 135.838374 
L 172.504529 135.838374 
z
" clip-path="url(#p1ca4505130)" style="fill: #4c72b0; fill-opacity: 0.5; stroke: #4c72b0; stroke-linejoin: miter"/>
   </g>
   <g id="patch_61">
    <path d="M 174.486049 185.398125 
L 176.467589 185.398125 
L 176.467589 130.774722 
L 174.486049 130.774722 
z
" clip-path="url(#p1ca4505130)" style="fill: #4c72b0; fill-opacity: 0.5; stroke: #4c72b0; stroke-linejoin: miter"/>
   </g>
   <g id="patch_62">
    <path d="M 176.467589 185.398125 
L 178.44911 185.398125 
L 178.44911 125.024658 
L 176.467589 125.024658 
z
" clip-path="url(#p1ca4505130)" style="fill: #4c72b0; fill-opacity: 0.5; stroke: #4c72b0; stroke-linejoin: miter"/>
   </g>
   <g id="patch_63">
    <path d="M 178.44913 185.398125 
L 180.43065 185.398125 
L 180.43065 119.753905 
L 178.44913 119.753905 
z
" clip-path="url(#p1ca4505130)" style="fill: #4c72b0; fill-opacity: 0.5; stroke: #4c72b0; stroke-linejoin: miter"/>
   </g>
   <g id="patch_64">
    <path d="M 180.43065 185.398125 
L 182.41219 185.398125 
L 182.41219 113.103779 
L 180.43065 113.103779 
z
" clip-path="url(#p1ca4505130)" style="fill: #4c72b0; fill-opacity: 0.5; stroke: #4c72b0; stroke-linejoin: miter"/>
   </g>
   <g id="patch_65">
    <path d="M 182.41219 185.398125 
L 184.39371 185.398125 
L 184.39371 105.416124 
L 182.41219 105.416124 
z
" clip-path="url(#p1ca4505130)" style="fill: #4c72b0; fill-opacity: 0.5; stroke: #4c72b0; stroke-linejoin: miter"/>
   </g>
   <g id="patch_66">
    <path d="M 184.39373 185.398125 
L 186.375251 185.398125 
L 186.375251 97.815565 
L 184.39373 97.815565 
z
" clip-path="url(#p1ca4505130)" style="fill: #4c72b0; fill-opacity: 0.5; stroke: #4c72b0; stroke-linejoin: miter"/>
   </g>
   <g id="patch_67">
    <path d="M 186.375251 185.398125 
L 188.356791 185.398125 
L 188.356791 88.765034 
L 186.375251 88.765034 
z
" clip-path="url(#p1ca4505130)" style="fill: #4c72b0; fill-opacity: 0.5; stroke: #4c72b0; stroke-linejoin: miter"/>
   </g>
   <g id="patch_68">
    <path d="M 188.356791 185.398125 
L 190.338311 185.398125 
L 190.338311 79.311888 
L 188.356791 79.311888 
z
" clip-path="url(#p1ca4505130)" style="fill: #4c72b0; fill-opacity: 0.5; stroke: #4c72b0; stroke-linejoin: miter"/>
   </g>
   <g id="patch_69">
    <path d="M 190.338321 185.398125 
L 192.319861 185.398125 
L 192.319861 68.649542 
L 190.338321 68.649542 
z
" clip-path="url(#p1ca4505130)" style="fill: #4c72b0; fill-opacity: 0.5; stroke: #4c72b0; stroke-linejoin: miter"/>
   </g>
   <g id="patch_70">
    <path d="M 192.319871 185.398125 
L 194.301392 185.398125 
L 194.301392 56.945217 
L 192.319871 56.945217 
z
" clip-path="url(#p1ca4505130)" style="fill: #4c72b0; fill-opacity: 0.5; stroke: #4c72b0; stroke-linejoin: miter"/>
   </g>
   <g id="patch_71">
    <path d="M 194.301392 185.398125 
L 196.282912 185.398125 
L 196.282912 45.088025 
L 194.301392 45.088025 
z
" clip-path="url(#p1ca4505130)" style="fill: #4c72b0; fill-opacity: 0.5; stroke: #4c72b0; stroke-linejoin: miter"/>
   </g>
   <g id="patch_72">
    <path d="M 196.282922 185.398125 
L 198.264462 185.398125 
L 198.264462 30.083839 
L 196.282922 30.083839 
z
" clip-path="url(#p1ca4505130)" style="fill: #4c72b0; fill-opacity: 0.5; stroke: #4c72b0; stroke-linejoin: miter"/>
   </g>
   <g id="patch_73">
    <path d="M 198.264472 185.398125 
L 200.245993 185.398125 
L 200.245993 162.409638 
L 198.264472 162.409638 
z
" clip-path="url(#p1ca4505130)" style="fill: #4c72b0; fill-opacity: 0.5; stroke: #4c72b0; stroke-linejoin: miter"/>
   </g>
   <g id="patch_74">
    <path d="M 200.245993 185.398125 
L 202.227533 185.398125 
L 202.227533 185.306054 
L 200.245993 185.306054 
z
" clip-path="url(#p1ca4505130)" style="fill: #4c72b0; fill-opacity: 0.5; stroke: #4c72b0; stroke-linejoin: miter"/>
   </g>
   <g id="patch_75">
    <path d="M 202.227533 185.398125 
L 204.209053 185.398125 
L 204.209053 185.3234 
L 202.227533 185.3234 
z
" clip-path="url(#p1ca4505130)" style="fill: #4c72b0; fill-opacity: 0.5; stroke: #4c72b0; stroke-linejoin: miter"/>
   </g>
   <g id="patch_76">
    <path d="M 204.209073 185.398125 
L 206.190593 185.398125 
L 206.190593 185.29271 
L 204.209073 185.29271 
z
" clip-path="url(#p1ca4505130)" style="fill: #4c72b0; fill-opacity: 0.5; stroke: #4c72b0; stroke-linejoin: miter"/>
   </g>
   <g id="patch_77">
    <path d="M 206.190593 185.398125 
L 208.172134 185.398125 
L 208.172134 185.298048 
L 206.190593 185.298048 
z
" clip-path="url(#p1ca4505130)" style="fill: #4c72b0; fill-opacity: 0.5; stroke: #4c72b0; stroke-linejoin: miter"/>
   </g>
   <g id="patch_78">
    <path d="M 208.172134 185.398125 
L 210.153654 185.398125 
L 210.153654 185.295379 
L 208.172134 185.295379 
z
" clip-path="url(#p1ca4505130)" style="fill: #4c72b0; fill-opacity: 0.5; stroke: #4c72b0; stroke-linejoin: miter"/>
   </g>
   <g id="patch_79">
    <path d="M 210.153674 185.398125 
L 212.135194 185.398125 
L 212.135194 185.244673 
L 210.153674 185.244673 
z
" clip-path="url(#p1ca4505130)" style="fill: #4c72b0; fill-opacity: 0.5; stroke: #4c72b0; stroke-linejoin: miter"/>
   </g>
   <g id="patch_80">
    <path d="M 212.135194 185.398125 
L 214.116734 185.398125 
L 214.116734 185.160609 
L 212.135194 185.160609 
z
" clip-path="url(#p1ca4505130)" style="fill: #4c72b0; fill-opacity: 0.5; stroke: #4c72b0; stroke-linejoin: miter"/>
   </g>
   <g id="patch_81">
    <path d="M 214.116734 185.398125 
L 216.098255 185.398125 
L 216.098255 185.043183 
L 214.116734 185.043183 
z
" clip-path="url(#p1ca4505130)" style="fill: #4c72b0; fill-opacity: 0.5; stroke: #4c72b0; stroke-linejoin: miter"/>
   </g>
   <g id="patch_82">
    <path d="M 216.098265 185.398125 
L 218.079805 185.398125 
L 218.079805 184.991145 
L 216.098265 184.991145 
z
" clip-path="url(#p1ca4505130)" style="fill: #4c72b0; fill-opacity: 0.5; stroke: #4c72b0; stroke-linejoin: miter"/>
   </g>
   <g id="patch_83">
    <path d="M 218.079815 185.398125 
L 220.061335 185.398125 
L 220.061335 185.009824 
L 218.079815 185.009824 
z
" clip-path="url(#p1ca4505130)" style="fill: #4c72b0; fill-opacity: 0.5; stroke: #4c72b0; stroke-linejoin: miter"/>
   </g>
   <g id="patch_84">
    <path d="M 220.061335 185.398125 
L 222.042855 185.398125 
L 222.042855 184.948443 
L 220.061335 184.948443 
z
" clip-path="url(#p1ca4505130)" style="fill: #4c72b0; fill-opacity: 0.5; stroke: #4c72b0; stroke-linejoin: miter"/>
   </g>
   <g id="patch_85">
    <path d="M 222.042865 185.398125 
L 224.024406 185.398125 
L 224.024406 184.988476 
L 222.042865 184.988476 
z
" clip-path="url(#p1ca4505130)" style="fill: #4c72b0; fill-opacity: 0.5; stroke: #4c72b0; stroke-linejoin: miter"/>
   </g>
   <g id="patch_86">
    <path d="M 224.024416 185.398125 
L 226.005936 185.398125 
L 226.005936 184.948443 
L 224.024416 184.948443 
z
" clip-path="url(#p1ca4505130)" style="fill: #4c72b0; fill-opacity: 0.5; stroke: #4c72b0; stroke-linejoin: miter"/>
   </g>
   <g id="patch_87">
    <path d="M 226.005936 185.398125 
L 227.987476 185.398125 
L 227.987476 184.915086 
L 226.005936 184.915086 
z
" clip-path="url(#p1ca4505130)" style="fill: #4c72b0; fill-opacity: 0.5; stroke: #4c72b0; stroke-linejoin: miter"/>
   </g>
   <g id="patch_88">
    <path d="M 227.987476 185.398125 
L 229.968997 185.398125 
L 229.968997 184.722935 
L 227.987476 184.722935 
z
" clip-path="url(#p1ca4505130)" style="fill: #4c72b0; fill-opacity: 0.5; stroke: #4c72b0; stroke-linejoin: miter"/>
   </g>
   <g id="patch_89">
    <path d="M 229.969006 185.398125 
L 231.950547 185.398125 
L 231.950547 184.678903 
L 229.969006 184.678903 
z
" clip-path="url(#p1ca4505130)" style="fill: #4c72b0; fill-opacity: 0.5; stroke: #4c72b0; stroke-linejoin: miter"/>
   </g>
   <g id="patch_90">
    <path d="M 231.950547 185.398125 
L 233.932067 185.398125 
L 233.932067 184.64821 
L 231.950547 184.64821 
z
" clip-path="url(#p1ca4505130)" style="fill: #4c72b0; fill-opacity: 0.5; stroke: #4c72b0; stroke-linejoin: miter"/>
   </g>
   <g id="patch_91">
    <path d="M 233.932067 185.398125 
L 235.913607 185.398125 
L 235.913607 184.706924 
L 233.932067 184.706924 
z
" clip-path="url(#p1ca4505130)" style="fill: #4c72b0; fill-opacity: 0.5; stroke: #4c72b0; stroke-linejoin: miter"/>
   </g>
   <g id="patch_92">
    <path d="M 235.913607 185.398125 
L 237.895147 185.398125 
L 237.895147 184.283931 
L 235.913607 184.283931 
z
" clip-path="url(#p1ca4505130)" style="fill: #4c72b0; fill-opacity: 0.5; stroke: #4c72b0; stroke-linejoin: miter"/>
   </g>
   <g id="patch_93">
    <path d="M 237.895138 185.398125 
L 239.876678 185.398125 
L 239.876678 184.209206 
L 237.895138 184.209206 
z
" clip-path="url(#p1ca4505130)" style="fill: #4c72b0; fill-opacity: 0.5; stroke: #4c72b0; stroke-linejoin: miter"/>
   </g>
   <g id="patch_94">
    <path d="M 239.876683 185.398125 
L 241.858203 185.398125 
L 241.858203 184.318622 
L 239.876683 184.318622 
z
" clip-path="url(#p1ca4505130)" style="fill: #4c72b0; fill-opacity: 0.5; stroke: #4c72b0; stroke-linejoin: miter"/>
   </g>
   <g id="patch_95">
    <path d="M 241.858208 185.398125 
L 243.839748 185.398125 
L 243.839748 184.203869 
L 241.858208 184.203869 
z
" clip-path="url(#p1ca4505130)" style="fill: #4c72b0; fill-opacity: 0.5; stroke: #4c72b0; stroke-linejoin: miter"/>
   </g>
   <g id="patch_96">
    <path d="M 243.839738 185.398125 
L 245.821279 185.398125 
L 245.821279 184.07577 
L 243.839738 184.07577 
z
" clip-path="url(#p1ca4505130)" style="fill: #4c72b0; fill-opacity: 0.5; stroke: #4c72b0; stroke-linejoin: miter"/>
   </g>
   <g id="patch_97">
    <path d="M 245.821279 185.398125 
L 247.802819 185.398125 
L 247.802819 183.63543 
L 245.821279 183.63543 
z
" clip-path="url(#p1ca4505130)" style="fill: #4c72b0; fill-opacity: 0.5; stroke: #4c72b0; stroke-linejoin: miter"/>
   </g>
   <g id="patch_98">
    <path d="M 247.802809 185.398125 
L 249.784349 185.398125 
L 249.784349 183.679464 
L 247.802809 183.679464 
z
" clip-path="url(#p1ca4505130)" style="fill: #4c72b0; fill-opacity: 0.5; stroke: #4c72b0; stroke-linejoin: miter"/>
   </g>
   <g id="patch_99">
    <path d="M 249.784354 185.398125 
L 251.765874 185.398125 
L 251.765874 183.662113 
L 249.784354 183.662113 
z
" clip-path="url(#p1ca4505130)" style="fill: #4c72b0; fill-opacity: 0.5; stroke: #4c72b0; stroke-linejoin: miter"/>
   </g>
   <g id="patch_100">
    <path d="M 251.765879 185.398125 
L 253.74742 185.398125 
L 253.74742 183.607408 
L 251.765879 183.607408 
z
" clip-path="url(#p1ca4505130)" style="fill: #4c72b0; fill-opacity: 0.5; stroke: #4c72b0; stroke-linejoin: miter"/>
   </g>
   <g id="patch_101">
    <path d="M 253.74741 185.398125 
L 255.72895 185.398125 
L 255.72895 183.511334 
L 253.74741 183.511334 
z
" clip-path="url(#p1ca4505130)" style="fill: #4c72b0; fill-opacity: 0.5; stroke: #4c72b0; stroke-linejoin: miter"/>
   </g>
   <g id="patch_102">
    <path d="M 255.72895 185.398125 
L 257.71049 185.398125 
L 257.71049 183.594064 
L 255.72895 183.594064 
z
" clip-path="url(#p1ca4505130)" style="fill: #4c72b0; fill-opacity: 0.5; stroke: #4c72b0; stroke-linejoin: miter"/>
   </g>
   <g id="patch_103">
    <path d="M 257.71049 185.398125 
L 259.69201 185.398125 
L 259.69201 183.536682 
L 257.71049 183.536682 
z
" clip-path="url(#p1ca4505130)" style="fill: #4c72b0; fill-opacity: 0.5; stroke: #4c72b0; stroke-linejoin: miter"/>
   </g>
   <g id="patch_104">
    <path d="M 259.69201 185.398125 
L 261.673551 185.398125 
L 261.673551 183.228449 
L 259.69201 183.228449 
z
" clip-path="url(#p1ca4505130)" style="fill: #4c72b0; fill-opacity: 0.5; stroke: #4c72b0; stroke-linejoin: miter"/>
   </g>
   <g id="patch_105">
    <path d="M 261.673551 185.398125 
L 263.655091 185.398125 
L 263.655091 182.968247 
L 261.673551 182.968247 
z
" clip-path="url(#p1ca4505130)" style="fill: #4c72b0; fill-opacity: 0.5; stroke: #4c72b0; stroke-linejoin: miter"/>
   </g>
   <g id="patch_106">
    <path d="M 263.655081 185.398125 
L 265.636621 185.398125 
L 265.636621 182.465192 
L 263.655081 182.465192 
z
" clip-path="url(#p1ca4505130)" style="fill: #4c72b0; fill-opacity: 0.5; stroke: #4c72b0; stroke-linejoin: miter"/>
   </g>
   <g id="patch_107">
    <path d="M 265.636626 185.398125 
L 267.618146 185.398125 
L 267.618146 183.213765 
L 265.636626 183.213765 
z
" clip-path="url(#p1ca4505130)" style="fill: #4c72b0; fill-opacity: 0.5; stroke: #4c72b0; stroke-linejoin: miter"/>
   </g>
   <g id="patch_108">
    <path d="M 267.618151 185.398125 
L 269.599692 185.398125 
L 269.599692 182.940226 
L 267.618151 182.940226 
z
" clip-path="url(#p1ca4505130)" style="fill: #4c72b0; fill-opacity: 0.5; stroke: #4c72b0; stroke-linejoin: miter"/>
   </g>
   <g id="patch_109">
    <path d="M 269.599682 185.398125 
L 271.581222 185.398125 
L 271.581222 182.454517 
L 269.599682 182.454517 
z
" clip-path="url(#p1ca4505130)" style="fill: #4c72b0; fill-opacity: 0.5; stroke: #4c72b0; stroke-linejoin: miter"/>
   </g>
   <g id="patch_110">
    <path d="M 271.581217 185.398125 
L 273.562757 185.398125 
L 273.562757 181.810015 
L 271.581217 181.810015 
z
" clip-path="url(#p1ca4505130)" style="fill: #4c72b0; fill-opacity: 0.5; stroke: #4c72b0; stroke-linejoin: miter"/>
   </g>
   <g id="patch_111">
    <path d="M 273.562752 185.398125 
L 275.544292 185.398125 
L 275.544292 182.853492 
L 273.562752 182.853492 
z
" clip-path="url(#p1ca4505130)" style="fill: #4c72b0; fill-opacity: 0.5; stroke: #4c72b0; stroke-linejoin: miter"/>
   </g>
   <g id="patch_112">
    <path d="M 275.544288 185.398125 
L 277.525828 185.398125 
L 277.525828 182.226337 
L 275.544288 182.226337 
z
" clip-path="url(#p1ca4505130)" style="fill: #4c72b0; fill-opacity: 0.5; stroke: #4c72b0; stroke-linejoin: miter"/>
   </g>
   <g id="patch_113">
    <path d="M 277.52582 185.398125 
L 279.507361 185.398125 
L 279.507361 182.142276 
L 277.52582 182.142276 
z
" clip-path="url(#p1ca4505130)" style="fill: #4c72b0; fill-opacity: 0.5; stroke: #4c72b0; stroke-linejoin: miter"/>
   </g>
   <g id="patch_114">
    <path d="M 279.507356 185.398125 
L 281.488896 185.398125 
L 281.488896 181.736629 
L 279.507356 181.736629 
z
" clip-path="url(#p1ca4505130)" style="fill: #4c72b0; fill-opacity: 0.5; stroke: #4c72b0; stroke-linejoin: miter"/>
   </g>
   <g id="patch_115">
    <path d="M 281.488888 185.398125 
L 283.470429 185.398125 
L 283.470429 182.241015 
L 281.488888 182.241015 
z
" clip-path="url(#p1ca4505130)" style="fill: #4c72b0; fill-opacity: 0.5; stroke: #4c72b0; stroke-linejoin: miter"/>
   </g>
   <g id="patch_116">
    <path d="M 283.470424 185.398125 
L 285.451964 185.398125 
L 285.451964 181.757979 
L 283.470424 181.757979 
z
" clip-path="url(#p1ca4505130)" style="fill: #4c72b0; fill-opacity: 0.5; stroke: #4c72b0; stroke-linejoin: miter"/>
   </g>
   <g id="patch_117">
    <path d="M 285.451959 185.398125 
L 287.433499 185.398125 
L 287.433499 182.302396 
L 285.451959 182.302396 
z
" clip-path="url(#p1ca4505130)" style="fill: #4c72b0; fill-opacity: 0.5; stroke: #4c72b0; stroke-linejoin: miter"/>
   </g>
   <g id="patch_118">
    <path d="M 287.433492 185.398125 
L 289.415032 185.398125 
L 289.415032 181.286948 
L 287.433492 181.286948 
z
" clip-path="url(#p1ca4505130)" style="fill: #4c72b0; fill-opacity: 0.5; stroke: #4c72b0; stroke-linejoin: miter"/>
   </g>
   <g id="patch_119">
    <path d="M 289.415024 185.398125 
L 291.396565 185.398125 
L 291.396565 180.745191 
L 289.415024 180.745191 
z
" clip-path="url(#p1ca4505130)" style="fill: #4c72b0; fill-opacity: 0.5; stroke: #4c72b0; stroke-linejoin: miter"/>
   </g>
   <g id="patch_120">
    <path d="M 291.39656 185.398125 
L 293.3781 185.398125 
L 293.3781 181.144169 
L 291.39656 181.144169 
z
" clip-path="url(#p1ca4505130)" style="fill: #4c72b0; fill-opacity: 0.5; stroke: #4c72b0; stroke-linejoin: miter"/>
   </g>
   <g id="patch_121">
    <path d="M 293.378092 185.398125 
L 295.359633 185.398125 
L 295.359633 181.190871 
L 293.378092 181.190871 
z
" clip-path="url(#p1ca4505130)" style="fill: #4c72b0; fill-opacity: 0.5; stroke: #4c72b0; stroke-linejoin: miter"/>
   </g>
   <g id="patch_122">
    <path d="M 295.359628 185.398125 
L 297.341168 185.398125 
L 297.341168 181.082791 
L 295.359628 181.082791 
z
" clip-path="url(#p1ca4505130)" style="fill: #4c72b0; fill-opacity: 0.5; stroke: #4c72b0; stroke-linejoin: miter"/>
   </g>
   <g id="patch_123">
    <path d="M 297.341163 185.398125 
L 299.322703 185.398125 
L 299.322703 181.017404 
L 297.341163 181.017404 
z
" clip-path="url(#p1ca4505130)" style="fill: #4c72b0; fill-opacity: 0.5; stroke: #4c72b0; stroke-linejoin: miter"/>
   </g>
   <g id="patch_124">
    <path d="M 299.322696 185.398125 
L 301.304236 185.398125 
L 301.304236 180.079345 
L 299.322696 180.079345 
z
" clip-path="url(#p1ca4505130)" style="fill: #4c72b0; fill-opacity: 0.5; stroke: #4c72b0; stroke-linejoin: miter"/>
   </g>
   <g id="patch_125">
    <path d="M 301.304231 185.398125 
L 303.285771 185.398125 
L 303.285771 181.246915 
L 301.304231 181.246915 
z
" clip-path="url(#p1ca4505130)" style="fill: #4c72b0; fill-opacity: 0.5; stroke: #4c72b0; stroke-linejoin: miter"/>
   </g>
   <g id="patch_126">
    <path d="M 303.285764 185.398125 
L 305.267304 185.398125 
L 305.267304 181.018738 
L 303.285764 181.018738 
z
" clip-path="url(#p1ca4505130)" style="fill: #4c72b0; fill-opacity: 0.5; stroke: #4c72b0; stroke-linejoin: miter"/>
   </g>
   <g id="patch_127">
    <path d="M 305.267298 185.398125 
L 307.248839 185.398125 
L 307.248839 180.813246 
L 305.267298 180.813246 
z
" clip-path="url(#p1ca4505130)" style="fill: #4c72b0; fill-opacity: 0.5; stroke: #4c72b0; stroke-linejoin: miter"/>
   </g>
   <g id="patch_128">
    <path d="M 307.248832 185.398125 
L 309.230373 185.398125 
L 309.230373 180.902649 
L 307.248832 180.902649 
z
" clip-path="url(#p1ca4505130)" style="fill: #4c72b0; fill-opacity: 0.5; stroke: #4c72b0; stroke-linejoin: miter"/>
   </g>
   <g id="patch_129">
    <path d="M 309.230366 185.398125 
L 311.211907 185.398125 
L 311.211907 180.388918 
L 309.230366 180.388918 
z
" clip-path="url(#p1ca4505130)" style="fill: #4c72b0; fill-opacity: 0.5; stroke: #4c72b0; stroke-linejoin: miter"/>
   </g>
   <g id="patch_130">
    <path d="M 311.2119 185.398125 
L 313.193441 185.398125 
L 313.193441 180.495667 
L 311.2119 180.495667 
z
" clip-path="url(#p1ca4505130)" style="fill: #4c72b0; fill-opacity: 0.5; stroke: #4c72b0; stroke-linejoin: miter"/>
   </g>
   <g id="patch_131">
    <path d="M 313.193434 185.398125 
L 315.174975 185.398125 
L 315.174975 178.071126 
L 313.193434 178.071126 
z
" clip-path="url(#p1ca4505130)" style="fill: #4c72b0; fill-opacity: 0.5; stroke: #4c72b0; stroke-linejoin: miter"/>
   </g>
   <g id="patch_132">
    <path d="M 315.174968 185.398125 
L 317.156509 185.398125 
L 317.156509 180.618429 
L 315.174968 180.618429 
z
" clip-path="url(#p1ca4505130)" style="fill: #4c72b0; fill-opacity: 0.5; stroke: #4c72b0; stroke-linejoin: miter"/>
   </g>
   <g id="patch_133">
    <path d="M 317.156502 185.398125 
L 319.138043 185.398125 
L 319.138043 180.017965 
L 317.156502 180.017965 
z
" clip-path="url(#p1ca4505130)" style="fill: #4c72b0; fill-opacity: 0.5; stroke: #4c72b0; stroke-linejoin: miter"/>
   </g>
   <g id="patch_134">
    <path d="M 319.138036 185.398125 
L 321.119577 185.398125 
L 321.119577 180.658459 
L 319.138036 180.658459 
z
" clip-path="url(#p1ca4505130)" style="fill: #4c72b0; fill-opacity: 0.5; stroke: #4c72b0; stroke-linejoin: miter"/>
   </g>
   <g id="patch_135">
    <path d="M 321.119571 185.398125 
L 323.101111 185.398125 
L 323.101111 180.61843 
L 321.119571 180.61843 
z
" clip-path="url(#p1ca4505130)" style="fill: #4c72b0; fill-opacity: 0.5; stroke: #4c72b0; stroke-linejoin: miter"/>
   </g>
   <g id="patch_136">
    <path d="M 323.101105 185.398125 
L 325.082645 185.398125 
L 325.082645 181.314966 
L 323.101105 181.314966 
z
" clip-path="url(#p1ca4505130)" style="fill: #4c72b0; fill-opacity: 0.5; stroke: #4c72b0; stroke-linejoin: miter"/>
   </g>
   <g id="patch_137">
    <path d="M 325.082639 185.398125 
L 327.064179 185.398125 
L 327.064179 181.237574 
L 325.082639 181.237574 
z
" clip-path="url(#p1ca4505130)" style="fill: #4c72b0; fill-opacity: 0.5; stroke: #4c72b0; stroke-linejoin: miter"/>
   </g>
   <g id="patch_138">
    <path d="M 327.064172 185.398125 
L 329.045712 185.398125 
L 329.045712 179.667026 
L 327.064172 179.667026 
z
" clip-path="url(#p1ca4505130)" style="fill: #4c72b0; fill-opacity: 0.5; stroke: #4c72b0; stroke-linejoin: miter"/>
   </g>
   <g id="patch_139">
    <path d="M 329.045707 185.398125 
L 331.027247 185.398125 
L 331.027247 181.084125 
L 329.045707 181.084125 
z
" clip-path="url(#p1ca4505130)" style="fill: #4c72b0; fill-opacity: 0.5; stroke: #4c72b0; stroke-linejoin: miter"/>
   </g>
   <g id="patch_140">
    <path d="M 331.027242 185.398125 
L 333.008783 185.398125 
L 333.008783 180.681144 
L 331.027242 180.681144 
z
" clip-path="url(#p1ca4505130)" style="fill: #4c72b0; fill-opacity: 0.5; stroke: #4c72b0; stroke-linejoin: miter"/>
   </g>
   <g id="patch_141">
    <path d="M 333.008775 185.398125 
L 334.990315 185.398125 
L 334.990315 182.0035 
L 333.008775 182.0035 
z
" clip-path="url(#p1ca4505130)" style="fill: #4c72b0; fill-opacity: 0.5; stroke: #4c72b0; stroke-linejoin: miter"/>
   </g>
   <g id="patch_142">
    <path d="M 334.99031 185.398125 
L 336.971851 185.398125 
L 336.971851 179.69371 
L 334.99031 179.69371 
z
" clip-path="url(#p1ca4505130)" style="fill: #4c72b0; fill-opacity: 0.5; stroke: #4c72b0; stroke-linejoin: miter"/>
   </g>
   <g id="patch_143">
    <path d="M 336.971843 185.398125 
L 338.953383 185.398125 
L 338.953383 181.266933 
L 336.971843 181.266933 
z
" clip-path="url(#p1ca4505130)" style="fill: #4c72b0; fill-opacity: 0.5; stroke: #4c72b0; stroke-linejoin: miter"/>
   </g>
   <g id="patch_144">
    <path d="M 338.953376 185.398125 
L 340.934916 185.398125 
L 340.934916 181.162847 
L 338.953376 181.162847 
z
" clip-path="url(#p1ca4505130)" style="fill: #4c72b0; fill-opacity: 0.5; stroke: #4c72b0; stroke-linejoin: miter"/>
   </g>
   <g id="patch_145">
    <path d="M 340.934911 185.398125 
L 342.916451 185.398125 
L 342.916451 181.999499 
L 340.934911 181.999499 
z
" clip-path="url(#p1ca4505130)" style="fill: #4c72b0; fill-opacity: 0.5; stroke: #4c72b0; stroke-linejoin: miter"/>
   </g>
   <g id="patch_146">
    <path d="M 342.916446 185.398125 
L 344.897987 185.398125 
L 344.897987 182.175631 
L 342.916446 182.175631 
z
" clip-path="url(#p1ca4505130)" style="fill: #4c72b0; fill-opacity: 0.5; stroke: #4c72b0; stroke-linejoin: miter"/>
   </g>
   <g id="patch_147">
    <path d="M 344.897979 185.398125 
L 346.879519 185.398125 
L 346.879519 181.77666 
L 344.897979 181.77666 
z
" clip-path="url(#p1ca4505130)" style="fill: #4c72b0; fill-opacity: 0.5; stroke: #4c72b0; stroke-linejoin: miter"/>
   </g>
   <g id="patch_148">
    <path d="M 346.879514 185.398125 
L 348.861055 185.398125 
L 348.861055 181.628546 
L 346.879514 181.628546 
z
" clip-path="url(#p1ca4505130)" style="fill: #4c72b0; fill-opacity: 0.5; stroke: #4c72b0; stroke-linejoin: miter"/>
   </g>
   <g id="patch_149">
    <path d="M 348.861047 185.398125 
L 350.842587 185.398125 
L 350.842587 181.810015 
L 348.861047 181.810015 
z
" clip-path="url(#p1ca4505130)" style="fill: #4c72b0; fill-opacity: 0.5; stroke: #4c72b0; stroke-linejoin: miter"/>
   </g>
   <g id="patch_150">
    <path d="M 350.842583 185.398125 
L 352.824123 185.398125 
L 352.824123 182.792111 
L 350.842583 182.792111 
z
" clip-path="url(#p1ca4505130)" style="fill: #4c72b0; fill-opacity: 0.5; stroke: #4c72b0; stroke-linejoin: miter"/>
   </g>
   <g id="patch_151">
    <path d="M 352.824118 185.398125 
L 354.805658 185.398125 
L 354.805658 182.084894 
L 352.824118 182.084894 
z
" clip-path="url(#p1ca4505130)" style="fill: #4c72b0; fill-opacity: 0.5; stroke: #4c72b0; stroke-linejoin: miter"/>
   </g>
   <g id="patch_152">
    <path d="M 354.805653 185.398125 
L 356.787193 185.398125 
L 356.787193 181.970143 
L 354.805653 181.970143 
z
" clip-path="url(#p1ca4505130)" style="fill: #4c72b0; fill-opacity: 0.5; stroke: #4c72b0; stroke-linejoin: miter"/>
   </g>
   <g id="patch_153">
    <path d="M 356.787183 185.398125 
L 358.768724 185.398125 
L 358.768724 182.615975 
L 356.787183 182.615975 
z
" clip-path="url(#p1ca4505130)" style="fill: #4c72b0; fill-opacity: 0.5; stroke: #4c72b0; stroke-linejoin: miter"/>
   </g>
   <g id="patch_154">
    <path d="M 358.768729 185.398125 
L 360.750249 185.398125 
L 360.750249 182.936217 
L 358.768729 182.936217 
z
" clip-path="url(#p1ca4505130)" style="fill: #4c72b0; fill-opacity: 0.5; stroke: #4c72b0; stroke-linejoin: miter"/>
   </g>
   <g id="patch_155">
    <path d="M 360.750254 185.398125 
L 362.731794 185.398125 
L 362.731794 182.559932 
L 360.750254 182.559932 
z
" clip-path="url(#p1ca4505130)" style="fill: #4c72b0; fill-opacity: 0.5; stroke: #4c72b0; stroke-linejoin: miter"/>
   </g>
   <g id="patch_156">
    <path d="M 362.731784 185.398125 
L 364.713324 185.398125 
L 364.713324 182.746743 
L 362.731784 182.746743 
z
" clip-path="url(#p1ca4505130)" style="fill: #4c72b0; fill-opacity: 0.5; stroke: #4c72b0; stroke-linejoin: miter"/>
   </g>
   <g id="patch_157">
    <path d="M 364.713324 185.398125 
L 366.694865 185.398125 
L 366.694865 182.878845 
L 364.713324 182.878845 
z
" clip-path="url(#p1ca4505130)" style="fill: #4c72b0; fill-opacity: 0.5; stroke: #4c72b0; stroke-linejoin: miter"/>
   </g>
   <g id="patch_158">
    <path d="M 366.694865 185.398125 
L 368.676385 185.398125 
L 368.676385 183.312508 
L 366.694865 183.312508 
z
" clip-path="url(#p1ca4505130)" style="fill: #4c72b0; fill-opacity: 0.5; stroke: #4c72b0; stroke-linejoin: miter"/>
   </g>
   <g id="patch_159">
    <path d="M 368.676385 185.398125 
L 370.657925 185.398125 
L 370.657925 183.480643 
L 368.676385 183.480643 
z
" clip-path="url(#p1ca4505130)" style="fill: #4c72b0; fill-opacity: 0.5; stroke: #4c72b0; stroke-linejoin: miter"/>
   </g>
   <g id="patch_160">
    <path d="M 370.657925 185.398125 
L 372.639465 185.398125 
L 372.639465 183.425934 
L 370.657925 183.425934 
z
" clip-path="url(#p1ca4505130)" style="fill: #4c72b0; fill-opacity: 0.5; stroke: #4c72b0; stroke-linejoin: miter"/>
   </g>
   <g id="patch_161">
    <path d="M 372.639455 185.398125 
L 374.620996 185.398125 
L 374.620996 183.449953 
L 372.639455 183.449953 
z
" clip-path="url(#p1ca4505130)" style="fill: #4c72b0; fill-opacity: 0.5; stroke: #4c72b0; stroke-linejoin: miter"/>
   </g>
   <g id="patch_162">
    <path d="M 374.621001 185.398125 
L 376.602521 185.398125 
L 376.602521 183.575379 
L 374.621001 183.575379 
z
" clip-path="url(#p1ca4505130)" style="fill: #4c72b0; fill-opacity: 0.5; stroke: #4c72b0; stroke-linejoin: miter"/>
   </g>
   <g id="patch_163">
    <path d="M 376.602526 185.398125 
L 378.584066 185.398125 
L 378.584066 183.835584 
L 376.602526 183.835584 
z
" clip-path="url(#p1ca4505130)" style="fill: #4c72b0; fill-opacity: 0.5; stroke: #4c72b0; stroke-linejoin: miter"/>
   </g>
   <g id="patch_164">
    <path d="M 378.584056 185.398125 
L 380.565596 185.398125 
L 380.565596 183.740844 
L 378.584056 183.740844 
z
" clip-path="url(#p1ca4505130)" style="fill: #4c72b0; fill-opacity: 0.5; stroke: #4c72b0; stroke-linejoin: miter"/>
   </g>
   <g id="patch_165">
    <path d="M 380.565596 185.398125 
L 382.547137 185.398125 
L 382.547137 184.162504 
L 380.565596 184.162504 
z
" clip-path="url(#p1ca4505130)" style="fill: #4c72b0; fill-opacity: 0.5; stroke: #4c72b0; stroke-linejoin: miter"/>
   </g>
   <g id="patch_166">
    <path d="M 382.547127 185.398125 
L 384.528667 185.398125 
L 384.528667 184.101123 
L 382.547127 184.101123 
z
" clip-path="url(#p1ca4505130)" style="fill: #4c72b0; fill-opacity: 0.5; stroke: #4c72b0; stroke-linejoin: miter"/>
   </g>
   <g id="patch_167">
    <path d="M 384.528672 185.398125 
L 386.510192 185.398125 
L 386.510192 184.127807 
L 384.528672 184.127807 
z
" clip-path="url(#p1ca4505130)" style="fill: #4c72b0; fill-opacity: 0.5; stroke: #4c72b0; stroke-linejoin: miter"/>
   </g>
   <g id="patch_168">
    <path d="M 386.510197 185.398125 
L 388.491737 185.398125 
L 388.491737 184.333302 
L 386.510197 184.333302 
z
" clip-path="url(#p1ca4505130)" style="fill: #4c72b0; fill-opacity: 0.5; stroke: #4c72b0; stroke-linejoin: miter"/>
   </g>
   <g id="patch_169">
    <path d="M 388.491728 185.398125 
L 390.473268 185.398125 
L 390.473268 184.313287 
L 388.491728 184.313287 
z
" clip-path="url(#p1ca4505130)" style="fill: #4c72b0; fill-opacity: 0.5; stroke: #4c72b0; stroke-linejoin: miter"/>
   </g>
   <g id="patch_170">
    <path d="M 390.473268 185.398125 
L 392.454808 185.398125 
L 392.454808 184.394683 
L 390.473268 184.394683 
z
" clip-path="url(#p1ca4505130)" style="fill: #4c72b0; fill-opacity: 0.5; stroke: #4c72b0; stroke-linejoin: miter"/>
   </g>
   <g id="patch_171">
    <path d="M 392.454808 185.398125 
L 394.436328 185.398125 
L 394.436328 184.484083 
L 392.454808 184.484083 
z
" clip-path="url(#p1ca4505130)" style="fill: #4c72b0; fill-opacity: 0.5; stroke: #4c72b0; stroke-linejoin: miter"/>
   </g>
   <g id="patch_172">
    <path d="M 394.436328 185.398125 
L 396.417869 185.398125 
L 396.417869 184.015724 
L 394.436328 184.015724 
z
" clip-path="url(#p1ca4505130)" style="fill: #4c72b0; fill-opacity: 0.5; stroke: #4c72b0; stroke-linejoin: miter"/>
   </g>
   <g id="patch_173">
    <path d="M 396.417874 185.398125 
L 398.399399 185.398125 
L 398.399399 183.303168 
L 396.417874 183.303168 
z
" clip-path="url(#p1ca4505130)" style="fill: #4c72b0; fill-opacity: 0.5; stroke: #4c72b0; stroke-linejoin: miter"/>
   </g>
   <g id="patch_174">
    <path d="M 398.399399 185.398125 
L 400.380939 185.398125 
L 400.380939 183.429942 
L 398.399399 183.429942 
z
" clip-path="url(#p1ca4505130)" style="fill: #4c72b0; fill-opacity: 0.5; stroke: #4c72b0; stroke-linejoin: miter"/>
   </g>
   <g id="patch_175">
    <path d="M 400.380939 185.398125 
L 402.362459 185.398125 
L 402.362459 173.033874 
L 400.380939 173.033874 
z
" clip-path="url(#p1ca4505130)" style="fill: #4c72b0; fill-opacity: 0.5; stroke: #4c72b0; stroke-linejoin: miter"/>
   </g>
   <g id="patch_176">
    <path d="M 402.362469 185.398125 
L 404.34401 185.398125 
L 404.34401 174.170811 
L 402.362469 174.170811 
z
" clip-path="url(#p1ca4505130)" style="fill: #4c72b0; fill-opacity: 0.5; stroke: #4c72b0; stroke-linejoin: miter"/>
   </g>
   <g id="patch_177">
    <path d="M 404.34402 185.398125 
L 406.32554 185.398125 
L 406.32554 174.963369 
L 404.34402 174.963369 
z
" clip-path="url(#p1ca4505130)" style="fill: #4c72b0; fill-opacity: 0.5; stroke: #4c72b0; stroke-linejoin: miter"/>
   </g>
   <g id="patch_178">
    <path d="M 406.32554 185.398125 
L 408.30706 185.398125 
L 408.30706 170.285076 
L 406.32554 170.285076 
z
" clip-path="url(#p1ca4505130)" style="fill: #4c72b0; fill-opacity: 0.5; stroke: #4c72b0; stroke-linejoin: miter"/>
   </g>
   <g id="patch_179">
    <path d="M 408.30707 185.398125 
L 410.28861 185.398125 
L 410.28861 171.237886 
L 408.30707 171.237886 
z
" clip-path="url(#p1ca4505130)" style="fill: #4c72b0; fill-opacity: 0.5; stroke: #4c72b0; stroke-linejoin: miter"/>
   </g>
   <g id="patch_180">
    <path d="M 410.28862 185.398125 
L 412.270141 185.398125 
L 412.270141 172.600204 
L 410.28862 172.600204 
z
" clip-path="url(#p1ca4505130)" style="fill: #4c72b0; fill-opacity: 0.5; stroke: #4c72b0; stroke-linejoin: miter"/>
   </g>
   <g id="patch_181">
    <path d="M 412.270141 185.398125 
L 414.251681 185.398125 
L 414.251681 173.698448 
L 412.270141 173.698448 
z
" clip-path="url(#p1ca4505130)" style="fill: #4c72b0; fill-opacity: 0.5; stroke: #4c72b0; stroke-linejoin: miter"/>
   </g>
   <g id="patch_182">
    <path d="M 414.251681 185.398125 
L 416.233201 185.398125 
L 416.233201 176.479211 
L 414.251681 176.479211 
z
" clip-path="url(#p1ca4505130)" style="fill: #4c72b0; fill-opacity: 0.5; stroke: #4c72b0; stroke-linejoin: miter"/>
   </g>
   <g id="patch_183">
    <path d="M 416.233221 185.398125 
L 418.214741 185.398125 
L 418.214741 178.20188 
L 416.233221 178.20188 
z
" clip-path="url(#p1ca4505130)" style="fill: #4c72b0; fill-opacity: 0.5; stroke: #4c72b0; stroke-linejoin: miter"/>
   </g>
   <g id="patch_184">
    <path d="M 418.214741 185.398125 
L 420.196282 185.398125 
L 420.196282 178.909127 
L 418.214741 178.909127 
z
" clip-path="url(#p1ca4505130)" style="fill: #4c72b0; fill-opacity: 0.5; stroke: #4c72b0; stroke-linejoin: miter"/>
   </g>
   <g id="patch_185">
    <path d="M 420.196282 185.398125 
L 422.177802 185.398125 
L 422.177802 179.400142 
L 420.196282 179.400142 
z
" clip-path="url(#p1ca4505130)" style="fill: #4c72b0; fill-opacity: 0.5; stroke: #4c72b0; stroke-linejoin: miter"/>
   </g>
   <g id="patch_186">
    <path d="M 422.177822 185.398125 
L 424.159342 185.398125 
L 424.159342 179.99527 
L 422.177822 179.99527 
z
" clip-path="url(#p1ca4505130)" style="fill: #4c72b0; fill-opacity: 0.5; stroke: #4c72b0; stroke-linejoin: miter"/>
   </g>
   <g id="patch_187">
    <path d="M 424.159342 185.398125 
L 426.140882 185.398125 
L 426.140882 180.555729 
L 424.159342 180.555729 
z
" clip-path="url(#p1ca4505130)" style="fill: #4c72b0; fill-opacity: 0.5; stroke: #4c72b0; stroke-linejoin: miter"/>
   </g>
   <g id="patch_188">
    <path d="M 426.140882 185.398125 
L 428.122403 185.398125 
L 428.122403 180.885293 
L 426.140882 180.885293 
z
" clip-path="url(#p1ca4505130)" style="fill: #4c72b0; fill-opacity: 0.5; stroke: #4c72b0; stroke-linejoin: miter"/>
   </g>
   <g id="patch_189">
    <path d="M 428.122413 185.398125 
L 430.103953 185.398125 
L 430.103953 182.032866 
L 428.122413 182.032866 
z
" clip-path="url(#p1ca4505130)" style="fill: #4c72b0; fill-opacity: 0.5; stroke: #4c72b0; stroke-linejoin: miter"/>
   </g>
   <g id="patch_190">
    <path d="M 430.103963 185.398125 
L 432.085483 185.398125 
L 432.085483 184.122469 
L 430.103963 184.122469 
z
" clip-path="url(#p1ca4505130)" style="fill: #4c72b0; fill-opacity: 0.5; stroke: #4c72b0; stroke-linejoin: miter"/>
   </g>
   <g id="patch_191">
    <path d="M 432.085483 185.398125 
L 434.067004 185.398125 
L 434.067004 184.263912 
L 432.085483 184.263912 
z
" clip-path="url(#p1ca4505130)" style="fill: #4c72b0; fill-opacity: 0.5; stroke: #4c72b0; stroke-linejoin: miter"/>
   </g>
   <g id="patch_192">
    <path d="M 434.067014 185.398125 
L 436.048554 185.398125 
L 436.048554 184.334639 
L 434.067014 184.334639 
z
" clip-path="url(#p1ca4505130)" style="fill: #4c72b0; fill-opacity: 0.5; stroke: #4c72b0; stroke-linejoin: miter"/>
   </g>
   <g id="patch_193">
    <path d="M 436.048564 185.398125 
L 438.030084 185.398125 
L 438.030084 184.346643 
L 436.048564 184.346643 
z
" clip-path="url(#p1ca4505130)" style="fill: #4c72b0; fill-opacity: 0.5; stroke: #4c72b0; stroke-linejoin: miter"/>
   </g>
   <g id="patch_194">
    <path d="M 438.030084 185.398125 
L 440.011624 185.398125 
L 440.011624 184.452063 
L 438.030084 184.452063 
z
" clip-path="url(#p1ca4505130)" style="fill: #4c72b0; fill-opacity: 0.5; stroke: #4c72b0; stroke-linejoin: miter"/>
   </g>
   <g id="patch_195">
    <path d="M 440.011624 185.398125 
L 441.993145 185.398125 
L 441.993145 184.600173 
L 440.011624 184.600173 
z
" clip-path="url(#p1ca4505130)" style="fill: #4c72b0; fill-opacity: 0.5; stroke: #4c72b0; stroke-linejoin: miter"/>
   </g>
   <g id="patch_196">
    <path d="M 441.993165 185.398125 
L 443.974685 185.398125 
L 443.974685 184.640204 
L 441.993165 184.640204 
z
" clip-path="url(#p1ca4505130)" style="fill: #4c72b0; fill-opacity: 0.5; stroke: #4c72b0; stroke-linejoin: miter"/>
   </g>
   <g id="patch_197">
    <path d="M 443.974685 185.398125 
L 445.956225 185.398125 
L 445.956225 184.761635 
L 443.974685 184.761635 
z
" clip-path="url(#p1ca4505130)" style="fill: #4c72b0; fill-opacity: 0.5; stroke: #4c72b0; stroke-linejoin: miter"/>
   </g>
   <g id="patch_198">
    <path d="M 445.956225 185.398125 
L 447.937745 185.398125 
L 447.937745 184.768303 
L 445.956225 184.768303 
z
" clip-path="url(#p1ca4505130)" style="fill: #4c72b0; fill-opacity: 0.5; stroke: #4c72b0; stroke-linejoin: miter"/>
   </g>
   <g id="patch_199">
    <path d="M 447.937765 185.398125 
L 449.919286 185.398125 
L 449.919286 184.790988 
L 447.937765 184.790988 
z
" clip-path="url(#p1ca4505130)" style="fill: #4c72b0; fill-opacity: 0.5; stroke: #4c72b0; stroke-linejoin: miter"/>
   </g>
   <g id="patch_200">
    <path d="M 449.919286 185.398125 
L 451.900826 185.398125 
L 451.900826 184.819012 
L 449.919286 184.819012 
z
" clip-path="url(#p1ca4505130)" style="fill: #4c72b0; fill-opacity: 0.5; stroke: #4c72b0; stroke-linejoin: miter"/>
   </g>
   <g id="patch_201">
    <path d="M 451.900826 185.398125 
L 453.882346 185.398125 
L 453.882346 184.981802 
L 451.900826 184.981802 
z
" clip-path="url(#p1ca4505130)" style="fill: #4c72b0; fill-opacity: 0.5; stroke: #4c72b0; stroke-linejoin: miter"/>
   </g>
   <g id="patch_202">
    <path d="M 453.882356 185.398125 
L 455.863896 185.398125 
L 455.863896 184.933767 
L 453.882356 184.933767 
z
" clip-path="url(#p1ca4505130)" style="fill: #4c72b0; fill-opacity: 0.5; stroke: #4c72b0; stroke-linejoin: miter"/>
   </g>
   <g id="patch_203">
    <path d="M 455.863906 185.398125 
L 457.845427 185.398125 
L 457.845427 184.972462 
L 455.863906 184.972462 
z
" clip-path="url(#p1ca4505130)" style="fill: #4c72b0; fill-opacity: 0.5; stroke: #4c72b0; stroke-linejoin: miter"/>
   </g>
   <g id="patch_204">
    <path d="M 457.845427 185.398125 
L 459.826947 185.398125 
L 459.826947 185.06053 
L 457.845427 185.06053 
z
" clip-path="url(#p1ca4505130)" style="fill: #4c72b0; fill-opacity: 0.5; stroke: #4c72b0; stroke-linejoin: miter"/>
   </g>
   <g id="patch_205">
    <path d="M 459.826957 185.398125 
L 461.808497 185.398125 
L 461.808497 185.076544 
L 459.826957 185.076544 
z
" clip-path="url(#p1ca4505130)" style="fill: #4c72b0; fill-opacity: 0.5; stroke: #4c72b0; stroke-linejoin: miter"/>
   </g>
   <g id="patch_206">
    <path d="M 461.808507 185.398125 
L 463.790027 185.398125 
L 463.790027 185.095224 
L 461.808507 185.095224 
z
" clip-path="url(#p1ca4505130)" style="fill: #4c72b0; fill-opacity: 0.5; stroke: #4c72b0; stroke-linejoin: miter"/>
   </g>
   <g id="patch_207">
    <path d="M 463.790027 185.398125 
L 465.771548 185.398125 
L 465.771548 185.144595 
L 463.790027 185.144595 
z
" clip-path="url(#p1ca4505130)" style="fill: #4c72b0; fill-opacity: 0.5; stroke: #4c72b0; stroke-linejoin: miter"/>
   </g>
   <g id="patch_208">
    <path d="M 465.771558 185.398125 
L 467.753098 185.398125 
L 467.753098 185.160609 
L 465.771558 185.160609 
z
" clip-path="url(#p1ca4505130)" style="fill: #4c72b0; fill-opacity: 0.5; stroke: #4c72b0; stroke-linejoin: miter"/>
   </g>
   <g id="patch_209">
    <path d="M 467.753108 185.398125 
L 469.734628 185.398125 
L 469.734628 185.192632 
L 467.753108 185.192632 
z
" clip-path="url(#p1ca4505130)" style="fill: #4c72b0; fill-opacity: 0.5; stroke: #4c72b0; stroke-linejoin: miter"/>
   </g>
   <g id="patch_210">
    <path d="M 469.734628 185.398125 
L 471.716169 185.398125 
L 471.716169 185.193968 
L 469.734628 185.193968 
z
" clip-path="url(#p1ca4505130)" style="fill: #4c72b0; fill-opacity: 0.5; stroke: #4c72b0; stroke-linejoin: miter"/>
   </g>
   <g id="patch_211">
    <path d="M 471.716169 185.398125 
L 473.697689 185.398125 
L 473.697689 185.209979 
L 471.716169 185.209979 
z
" clip-path="url(#p1ca4505130)" style="fill: #4c72b0; fill-opacity: 0.5; stroke: #4c72b0; stroke-linejoin: miter"/>
   </g>
   <g id="patch_212">
    <path d="M 473.697709 185.398125 
L 475.679229 185.398125 
L 475.679229 185.225992 
L 473.697709 185.225992 
z
" clip-path="url(#p1ca4505130)" style="fill: #4c72b0; fill-opacity: 0.5; stroke: #4c72b0; stroke-linejoin: miter"/>
   </g>
   <g id="patch_213">
    <path d="M 475.679229 185.398125 
L 477.660769 185.398125 
L 477.660769 185.259351 
L 475.679229 185.259351 
z
" clip-path="url(#p1ca4505130)" style="fill: #4c72b0; fill-opacity: 0.5; stroke: #4c72b0; stroke-linejoin: miter"/>
   </g>
   <g id="patch_214">
    <path d="M 477.660769 185.398125 
L 479.64229 185.398125 
L 479.64229 185.247341 
L 477.660769 185.247341 
z
" clip-path="url(#p1ca4505130)" style="fill: #4c72b0; fill-opacity: 0.5; stroke: #4c72b0; stroke-linejoin: miter"/>
   </g>
   <g id="patch_215">
    <path d="M 479.64231 185.398125 
L 481.62383 185.398125 
L 481.62383 185.252679 
L 479.64231 185.252679 
z
" clip-path="url(#p1ca4505130)" style="fill: #4c72b0; fill-opacity: 0.5; stroke: #4c72b0; stroke-linejoin: miter"/>
   </g>
   <g id="patch_216">
    <path d="M 481.62381 185.398125 
L 483.60535 185.398125 
L 483.60535 185.270026 
L 481.62381 185.270026 
z
" clip-path="url(#p1ca4505130)" style="fill: #4c72b0; fill-opacity: 0.5; stroke: #4c72b0; stroke-linejoin: miter"/>
   </g>
   <g id="patch_217">
    <path d="M 483.60537 185.398125 
L 485.58691 185.398125 
L 485.58691 185.306054 
L 483.60537 185.306054 
z
" clip-path="url(#p1ca4505130)" style="fill: #4c72b0; fill-opacity: 0.5; stroke: #4c72b0; stroke-linejoin: miter"/>
   </g>
   <g id="patch_218">
    <path d="M 485.58691 185.398125 
L 487.568431 185.398125 
L 487.568431 185.310056 
L 485.58691 185.310056 
z
" clip-path="url(#p1ca4505130)" style="fill: #4c72b0; fill-opacity: 0.5; stroke: #4c72b0; stroke-linejoin: miter"/>
   </g>
   <g id="patch_219">
    <path d="M 487.568411 185.398125 
L 489.549951 185.398125 
L 489.549951 185.31406 
L 487.568411 185.31406 
z
" clip-path="url(#p1ca4505130)" style="fill: #4c72b0; fill-opacity: 0.5; stroke: #4c72b0; stroke-linejoin: miter"/>
   </g>
   <g id="patch_220">
    <path d="M 489.549971 185.398125 
L 491.531511 185.398125 
L 491.531511 185.328738 
L 489.549971 185.328738 
z
" clip-path="url(#p1ca4505130)" style="fill: #4c72b0; fill-opacity: 0.5; stroke: #4c72b0; stroke-linejoin: miter"/>
   </g>
   <g id="patch_221">
    <path d="M 491.531511 185.398125 
L 493.513031 185.398125 
L 493.513031 185.327403 
L 491.531511 185.327403 
z
" clip-path="url(#p1ca4505130)" style="fill: #4c72b0; fill-opacity: 0.5; stroke: #4c72b0; stroke-linejoin: miter"/>
   </g>
   <g id="patch_222">
    <path d="M 493.513012 185.398125 
L 495.494552 185.398125 
L 495.494552 185.334076 
L 493.513012 185.334076 
z
" clip-path="url(#p1ca4505130)" style="fill: #4c72b0; fill-opacity: 0.5; stroke: #4c72b0; stroke-linejoin: miter"/>
   </g>
   <g id="patch_223">
    <path d="M 495.494572 185.398125 
L 497.476112 185.398125 
L 497.476112 185.339413 
L 495.494572 185.339413 
z
" clip-path="url(#p1ca4505130)" style="fill: #4c72b0; fill-opacity: 0.5; stroke: #4c72b0; stroke-linejoin: miter"/>
   </g>
   <g id="patch_224">
    <path d="M 497.476112 185.398125 
L 499.457632 185.398125 
L 499.457632 185.352756 
L 497.476112 185.352756 
z
" clip-path="url(#p1ca4505130)" style="fill: #4c72b0; fill-opacity: 0.5; stroke: #4c72b0; stroke-linejoin: miter"/>
   </g>
   <g id="patch_225">
    <path d="M 499.457612 185.398125 
L 501.439153 185.398125 
L 501.439153 185.362097 
L 499.457612 185.362097 
z
" clip-path="url(#p1ca4505130)" style="fill: #4c72b0; fill-opacity: 0.5; stroke: #4c72b0; stroke-linejoin: miter"/>
   </g>
   <g id="patch_226">
    <path d="M 501.439172 185.398125 
L 503.420713 185.398125 
L 503.420713 185.354091 
L 501.439172 185.354091 
z
" clip-path="url(#p1ca4505130)" style="fill: #4c72b0; fill-opacity: 0.5; stroke: #4c72b0; stroke-linejoin: miter"/>
   </g>
   <g id="patch_227">
    <path d="M 503.420693 185.398125 
L 505.402233 185.398125 
L 505.402233 185.364766 
L 503.420693 185.364766 
z
" clip-path="url(#p1ca4505130)" style="fill: #4c72b0; fill-opacity: 0.5; stroke: #4c72b0; stroke-linejoin: miter"/>
   </g>
   <g id="patch_228">
    <path d="M 505.402253 185.398125 
L 507.383773 185.398125 
L 507.383773 185.367434 
L 505.402253 185.367434 
z
" clip-path="url(#p1ca4505130)" style="fill: #4c72b0; fill-opacity: 0.5; stroke: #4c72b0; stroke-linejoin: miter"/>
   </g>
   <g id="patch_229">
    <path d="M 507.383773 185.398125 
L 509.365314 185.398125 
L 509.365314 185.362097 
L 507.383773 185.362097 
z
" clip-path="url(#p1ca4505130)" style="fill: #4c72b0; fill-opacity: 0.5; stroke: #4c72b0; stroke-linejoin: miter"/>
   </g>
   <g id="patch_230">
    <path d="M 509.365294 185.398125 
L 511.346834 185.398125 
L 511.346834 185.368769 
L 509.365294 185.368769 
z
" clip-path="url(#p1ca4505130)" style="fill: #4c72b0; fill-opacity: 0.5; stroke: #4c72b0; stroke-linejoin: miter"/>
   </g>
   <g id="patch_231">
    <path d="M 511.346854 185.398125 
L 513.328374 185.398125 
L 513.328374 185.376775 
L 511.346854 185.376775 
z
" clip-path="url(#p1ca4505130)" style="fill: #4c72b0; fill-opacity: 0.5; stroke: #4c72b0; stroke-linejoin: miter"/>
   </g>
   <g id="patch_232">
    <path d="M 513.328374 185.398125 
L 515.309914 185.398125 
L 515.309914 185.367435 
L 513.328374 185.367435 
z
" clip-path="url(#p1ca4505130)" style="fill: #4c72b0; fill-opacity: 0.5; stroke: #4c72b0; stroke-linejoin: miter"/>
   </g>
   <g id="patch_233">
    <path d="M 515.309894 185.398125 
L 517.291435 185.398125 
L 517.291435 185.380778 
L 515.309894 185.380778 
z
" clip-path="url(#p1ca4505130)" style="fill: #4c72b0; fill-opacity: 0.5; stroke: #4c72b0; stroke-linejoin: miter"/>
   </g>
   <g id="patch_234">
    <path d="M 517.291455 185.398125 
L 519.272975 185.398125 
L 519.272975 185.382113 
L 517.291455 185.382113 
z
" clip-path="url(#p1ca4505130)" style="fill: #4c72b0; fill-opacity: 0.5; stroke: #4c72b0; stroke-linejoin: miter"/>
   </g>
   <g id="patch_235">
    <path d="M 519.272975 185.398125 
L 521.254515 185.398125 
L 521.254515 185.383447 
L 519.272975 185.383447 
z
" clip-path="url(#p1ca4505130)" style="fill: #4c72b0; fill-opacity: 0.5; stroke: #4c72b0; stroke-linejoin: miter"/>
   </g>
   <g id="patch_236">
    <path d="M 521.254495 185.398125 
L 523.236035 185.398125 
L 523.236035 185.391453 
L 521.254495 185.391453 
z
" clip-path="url(#p1ca4505130)" style="fill: #4c72b0; fill-opacity: 0.5; stroke: #4c72b0; stroke-linejoin: miter"/>
   </g>
   <g id="patch_237">
    <path d="M 523.236055 185.398125 
L 525.217576 185.398125 
L 525.217576 185.384781 
L 523.236055 185.384781 
z
" clip-path="url(#p1ca4505130)" style="fill: #4c72b0; fill-opacity: 0.5; stroke: #4c72b0; stroke-linejoin: miter"/>
   </g>
   <g id="patch_238">
    <path d="M 525.217576 185.398125 
L 527.199116 185.398125 
L 527.199116 185.388784 
L 525.217576 185.388784 
z
" clip-path="url(#p1ca4505130)" style="fill: #4c72b0; fill-opacity: 0.5; stroke: #4c72b0; stroke-linejoin: miter"/>
   </g>
   <g id="patch_239">
    <path d="M 527.199096 185.398125 
L 529.180636 185.398125 
L 529.180636 185.382113 
L 527.199096 185.382113 
z
" clip-path="url(#p1ca4505130)" style="fill: #4c72b0; fill-opacity: 0.5; stroke: #4c72b0; stroke-linejoin: miter"/>
   </g>
   <g id="patch_240">
    <path d="M 529.180656 185.398125 
L 531.162196 185.398125 
L 531.162196 185.384781 
L 529.180656 185.384781 
z
" clip-path="url(#p1ca4505130)" style="fill: #4c72b0; fill-opacity: 0.5; stroke: #4c72b0; stroke-linejoin: miter"/>
   </g>
   <g id="patch_241">
    <path d="M 531.162196 185.398125 
L 533.143717 185.398125 
L 533.143717 185.395456 
L 531.162196 185.395456 
z
" clip-path="url(#p1ca4505130)" style="fill: #4c72b0; fill-opacity: 0.5; stroke: #4c72b0; stroke-linejoin: miter"/>
   </g>
   <g id="patch_242">
    <path d="M 533.143697 185.398125 
L 535.125237 185.398125 
L 535.125237 185.38745 
L 533.143697 185.38745 
z
" clip-path="url(#p1ca4505130)" style="fill: #4c72b0; fill-opacity: 0.5; stroke: #4c72b0; stroke-linejoin: miter"/>
   </g>
   <g id="patch_243">
    <path d="M 535.125257 185.398125 
L 537.106797 185.398125 
L 537.106797 185.396791 
L 535.125257 185.396791 
z
" clip-path="url(#p1ca4505130)" style="fill: #4c72b0; fill-opacity: 0.5; stroke: #4c72b0; stroke-linejoin: miter"/>
   </g>
   <g id="patch_244">
    <path d="M 537.106797 185.398125 
L 539.088317 185.398125 
L 539.088317 185.394122 
L 537.106797 185.394122 
z
" clip-path="url(#p1ca4505130)" style="fill: #4c72b0; fill-opacity: 0.5; stroke: #4c72b0; stroke-linejoin: miter"/>
   </g>
   <g id="patch_245">
    <path d="M 539.088298 185.398125 
L 541.069838 185.398125 
L 541.069838 185.391453 
L 539.088298 185.391453 
z
" clip-path="url(#p1ca4505130)" style="fill: #4c72b0; fill-opacity: 0.5; stroke: #4c72b0; stroke-linejoin: miter"/>
   </g>
   <g id="patch_246">
    <path d="M 541.069858 185.398125 
L 543.051398 185.398125 
L 543.051398 185.388784 
L 541.069858 185.388784 
z
" clip-path="url(#p1ca4505130)" style="fill: #4c72b0; fill-opacity: 0.5; stroke: #4c72b0; stroke-linejoin: miter"/>
   </g>
   <g id="patch_247">
    <path d="M 543.051398 185.398125 
L 545.032918 185.398125 
L 545.032918 185.390119 
L 543.051398 185.390119 
z
" clip-path="url(#p1ca4505130)" style="fill: #4c72b0; fill-opacity: 0.5; stroke: #4c72b0; stroke-linejoin: miter"/>
   </g>
   <g id="patch_248">
    <path d="M 545.032898 185.398125 
L 547.014439 185.398125 
L 547.014439 185.394122 
L 545.032898 185.394122 
z
" clip-path="url(#p1ca4505130)" style="fill: #4c72b0; fill-opacity: 0.5; stroke: #4c72b0; stroke-linejoin: miter"/>
   </g>
   <g id="patch_249">
    <path d="M 547.014459 185.398125 
L 548.995999 185.398125 
L 548.995999 185.392788 
L 547.014459 185.392788 
z
" clip-path="url(#p1ca4505130)" style="fill: #4c72b0; fill-opacity: 0.5; stroke: #4c72b0; stroke-linejoin: miter"/>
   </g>
   <g id="patch_250">
    <path d="M 548.995999 185.398125 
L 550.977519 185.398125 
L 550.977519 185.398125 
L 548.995999 185.398125 
z
" clip-path="url(#p1ca4505130)" style="fill: #4c72b0; fill-opacity: 0.5; stroke: #4c72b0; stroke-linejoin: miter"/>
   </g>
   <g id="patch_251">
    <path d="M 550.977499 185.398125 
L 552.959039 185.398125 
L 552.959039 185.396791 
L 550.977499 185.396791 
z
" clip-path="url(#p1ca4505130)" style="fill: #4c72b0; fill-opacity: 0.5; stroke: #4c72b0; stroke-linejoin: miter"/>
   </g>
   <g id="patch_252">
    <path d="M 552.959059 185.398125 
L 554.9406 185.398125 
L 554.9406 185.392788 
L 552.959059 185.392788 
z
" clip-path="url(#p1ca4505130)" style="fill: #4c72b0; fill-opacity: 0.5; stroke: #4c72b0; stroke-linejoin: miter"/>
   </g>
   <g id="patch_253">
    <path d="M 554.94058 185.398125 
L 556.92212 185.398125 
L 556.92212 185.394122 
L 554.94058 185.394122 
z
" clip-path="url(#p1ca4505130)" style="fill: #4c72b0; fill-opacity: 0.5; stroke: #4c72b0; stroke-linejoin: miter"/>
   </g>
   <g id="patch_254">
    <path d="M 556.92214 185.398125 
L 558.90366 185.398125 
L 558.90366 185.398125 
L 556.92214 185.398125 
z
" clip-path="url(#p1ca4505130)" style="fill: #4c72b0; fill-opacity: 0.5; stroke: #4c72b0; stroke-linejoin: miter"/>
   </g>
   <g id="patch_255">
    <path d="M 558.90366 185.398125 
L 560.8852 185.398125 
L 560.8852 185.395456 
L 558.90366 185.395456 
z
" clip-path="url(#p1ca4505130)" style="fill: #4c72b0; fill-opacity: 0.5; stroke: #4c72b0; stroke-linejoin: miter"/>
   </g>
   <g id="patch_256">
    <path d="M 560.88518 185.398125 
L 562.866721 185.398125 
L 562.866721 185.392788 
L 560.88518 185.392788 
z
" clip-path="url(#p1ca4505130)" style="fill: #4c72b0; fill-opacity: 0.5; stroke: #4c72b0; stroke-linejoin: miter"/>
   </g>
   <g id="patch_257">
    <path d="M 562.866741 185.398125 
L 564.848261 185.398125 
L 564.848261 185.396791 
L 562.866741 185.396791 
z
" clip-path="url(#p1ca4505130)" style="fill: #4c72b0; fill-opacity: 0.5; stroke: #4c72b0; stroke-linejoin: miter"/>
   </g>
   <g id="patch_258">
    <path d="M 564.848261 185.398125 
L 566.829801 185.398125 
L 566.829801 185.395456 
L 564.848261 185.395456 
z
" clip-path="url(#p1ca4505130)" style="fill: #4c72b0; fill-opacity: 0.5; stroke: #4c72b0; stroke-linejoin: miter"/>
   </g>
   <g id="patch_259">
    <path d="M 34.193438 185.398125 
L 34.193438 22.318125 
" style="fill: none; stroke: #ffffff; stroke-width: 1.25; stroke-linejoin: miter; stroke-linecap: square"/>
   </g>
   <g id="patch_260">
    <path d="M 592.193437 185.398125 
L 592.193437 22.318125 
" style="fill: none; stroke: #ffffff; stroke-width: 1.25; stroke-linejoin: miter; stroke-linecap: square"/>
   </g>
   <g id="patch_261">
    <path d="M 34.193437 185.398125 
L 592.193438 185.398125 
" style="fill: none; stroke: #ffffff; stroke-width: 1.25; stroke-linejoin: miter; stroke-linecap: square"/>
   </g>
   <g id="patch_262">
    <path d="M 34.193437 22.318125 
L 592.193438 22.318125 
" style="fill: none; stroke: #ffffff; stroke-width: 1.25; stroke-linejoin: miter; stroke-linecap: square"/>
   </g>
   <g id="text_11">
    <!-- Dequantization -->
    <g style="fill: #262626" transform="translate(267.452812 16.318125)scale(0.12 -0.12)">
     <defs>
      <path id="DejaVuSans-44" d="M 1259 4147 
L 1259 519 
L 2022 519 
Q 2988 519 3436 956 
Q 3884 1394 3884 2338 
Q 3884 3275 3436 3711 
Q 2988 4147 2022 4147 
L 1259 4147 
z
M 628 4666 
L 1925 4666 
Q 3281 4666 3915 4102 
Q 4550 3538 4550 2338 
Q 4550 1131 3912 565 
Q 3275 0 1925 0 
L 628 0 
L 628 4666 
z
" transform="scale(0.015625)"/>
      <path id="DejaVuSans-65" d="M 3597 1894 
L 3597 1613 
L 953 1613 
Q 991 1019 1311 708 
Q 1631 397 2203 397 
Q 2534 397 2845 478 
Q 3156 559 3463 722 
L 3463 178 
Q 3153 47 2828 -22 
Q 2503 -91 2169 -91 
Q 1331 -91 842 396 
Q 353 884 353 1716 
Q 353 2575 817 3079 
Q 1281 3584 2069 3584 
Q 2775 3584 3186 3129 
Q 3597 2675 3597 1894 
z
M 3022 2063 
Q 3016 2534 2758 2815 
Q 2500 3097 2075 3097 
Q 1594 3097 1305 2825 
Q 1016 2553 972 2059 
L 3022 2063 
z
" transform="scale(0.015625)"/>
      <path id="DejaVuSans-71" d="M 947 1747 
Q 947 1113 1208 752 
Q 1469 391 1925 391 
Q 2381 391 2643 752 
Q 2906 1113 2906 1747 
Q 2906 2381 2643 2742 
Q 2381 3103 1925 3103 
Q 1469 3103 1208 2742 
Q 947 2381 947 1747 
z
M 2906 525 
Q 2725 213 2448 61 
Q 2172 -91 1784 -91 
Q 1150 -91 751 415 
Q 353 922 353 1747 
Q 353 2572 751 3078 
Q 1150 3584 1784 3584 
Q 2172 3584 2448 3432 
Q 2725 3281 2906 2969 
L 2906 3500 
L 3481 3500 
L 3481 -1331 
L 2906 -1331 
L 2906 525 
z
" transform="scale(0.015625)"/>
      <path id="DejaVuSans-75" d="M 544 1381 
L 544 3500 
L 1119 3500 
L 1119 1403 
Q 1119 906 1312 657 
Q 1506 409 1894 409 
Q 2359 409 2629 706 
Q 2900 1003 2900 1516 
L 2900 3500 
L 3475 3500 
L 3475 0 
L 2900 0 
L 2900 538 
Q 2691 219 2414 64 
Q 2138 -91 1772 -91 
Q 1169 -91 856 284 
Q 544 659 544 1381 
z
M 1991 3584 
L 1991 3584 
z
" transform="scale(0.015625)"/>
      <path id="DejaVuSans-61" d="M 2194 1759 
Q 1497 1759 1228 1600 
Q 959 1441 959 1056 
Q 959 750 1161 570 
Q 1363 391 1709 391 
Q 2188 391 2477 730 
Q 2766 1069 2766 1631 
L 2766 1759 
L 2194 1759 
z
M 3341 1997 
L 3341 0 
L 2766 0 
L 2766 531 
Q 2569 213 2275 61 
Q 1981 -91 1556 -91 
Q 1019 -91 701 211 
Q 384 513 384 1019 
Q 384 1609 779 1909 
Q 1175 2209 1959 2209 
L 2766 2209 
L 2766 2266 
Q 2766 2663 2505 2880 
Q 2244 3097 1772 3097 
Q 1472 3097 1187 3025 
Q 903 2953 641 2809 
L 641 3341 
Q 956 3463 1253 3523 
Q 1550 3584 1831 3584 
Q 2591 3584 2966 3190 
Q 3341 2797 3341 1997 
z
" transform="scale(0.015625)"/>
      <path id="DejaVuSans-6e" d="M 3513 2113 
L 3513 0 
L 2938 0 
L 2938 2094 
Q 2938 2591 2744 2837 
Q 2550 3084 2163 3084 
Q 1697 3084 1428 2787 
Q 1159 2491 1159 1978 
L 1159 0 
L 581 0 
L 581 3500 
L 1159 3500 
L 1159 2956 
Q 1366 3272 1645 3428 
Q 1925 3584 2291 3584 
Q 2894 3584 3203 3211 
Q 3513 2838 3513 2113 
z
" transform="scale(0.015625)"/>
      <path id="DejaVuSans-74" d="M 1172 4494 
L 1172 3500 
L 2356 3500 
L 2356 3053 
L 1172 3053 
L 1172 1153 
Q 1172 725 1289 603 
Q 1406 481 1766 481 
L 2356 481 
L 2356 0 
L 1766 0 
Q 1100 0 847 248 
Q 594 497 594 1153 
L 594 3053 
L 172 3053 
L 172 3500 
L 594 3500 
L 594 4494 
L 1172 4494 
z
" transform="scale(0.015625)"/>
      <path id="DejaVuSans-69" d="M 603 3500 
L 1178 3500 
L 1178 0 
L 603 0 
L 603 3500 
z
M 603 4863 
L 1178 4863 
L 1178 4134 
L 603 4134 
L 603 4863 
z
" transform="scale(0.015625)"/>
      <path id="DejaVuSans-7a" d="M 353 3500 
L 3084 3500 
L 3084 2975 
L 922 459 
L 3084 459 
L 3084 0 
L 275 0 
L 275 525 
L 2438 3041 
L 353 3041 
L 353 3500 
z
" transform="scale(0.015625)"/>
      <path id="DejaVuSans-6f" d="M 1959 3097 
Q 1497 3097 1228 2736 
Q 959 2375 959 1747 
Q 959 1119 1226 758 
Q 1494 397 1959 397 
Q 2419 397 2687 759 
Q 2956 1122 2956 1747 
Q 2956 2369 2687 2733 
Q 2419 3097 1959 3097 
z
M 1959 3584 
Q 2709 3584 3137 3096 
Q 3566 2609 3566 1747 
Q 3566 888 3137 398 
Q 2709 -91 1959 -91 
Q 1206 -91 779 398 
Q 353 888 353 1747 
Q 353 2609 779 3096 
Q 1206 3584 1959 3584 
z
" transform="scale(0.015625)"/>
     </defs>
     <use xlink:href="#DejaVuSans-44"/>
     <use xlink:href="#DejaVuSans-65" x="77.001953"/>
     <use xlink:href="#DejaVuSans-71" x="138.525391"/>
     <use xlink:href="#DejaVuSans-75" x="202.001953"/>
     <use xlink:href="#DejaVuSans-61" x="265.380859"/>
     <use xlink:href="#DejaVuSans-6e" x="326.660156"/>
     <use xlink:href="#DejaVuSans-74" x="390.039062"/>
     <use xlink:href="#DejaVuSans-69" x="429.248047"/>
     <use xlink:href="#DejaVuSans-7a" x="457.03125"/>
     <use xlink:href="#DejaVuSans-61" x="509.521484"/>
     <use xlink:href="#DejaVuSans-74" x="570.800781"/>
     <use xlink:href="#DejaVuSans-69" x="610.009766"/>
     <use xlink:href="#DejaVuSans-6f" x="637.792969"/>
     <use xlink:href="#DejaVuSans-6e" x="698.974609"/>
    </g>
   </g>
  </g>
 </g>
 <defs>
  <clipPath id="p1ca4505130">
   <rect x="34.193438" y="22.318125" width="558" height="163.08"/>
  </clipPath>
 </defs>
</svg>
